Monoto-SemiCondensedLight.ufo
<glyph name="numbersign" format="2">
  <advance width="530"/>
  <unicode hex="0023"/>
  <outline>
    <contour>
      <point x="103" y="0" type="line"/>
      <point x="127" y="0" type="line"/>
      <point x="163" y="231" type="line"/>
      <point x="298" y="231" type="line"/>
      <point x="262" y="0" type="line"/>
      <point x="287" y="0" type="line"/>
      <point x="323" y="231" type="line"/>
      <point x="447" y="231" type="line"/>
      <point x="447" y="255" type="line"/>
      <point x="326" y="255" type="line"/>
      <point x="359" y="471" type="line"/>
      <point x="480" y="471" type="line"/>
      <point x="480" y="495" type="line"/>
      <point x="362" y="495" type="line"/>
      <point x="395" y="714" type="line"/>
      <point x="371" y="714" type="line"/>
      <point x="337" y="495" type="line"/>
      <point x="203" y="495" type="line"/>
      <point x="236" y="714" type="line"/>
      <point x="212" y="714" type="line"/>
      <point x="178" y="495" type="line"/>
      <point x="52" y="495" type="line"/>
      <point x="52" y="471" type="line"/>
      <point x="174" y="471" type="line"/>
      <point x="141" y="255" type="line"/>
      <point x="21" y="255" type="line"/>
      <point x="21" y="231" type="line"/>
      <point x="138" y="231" type="line"/>
    </contour>
    <contour>
      <point x="166" y="255" type="line"/>
      <point x="199" y="471" type="line"/>
      <point x="334" y="471" type="line"/>
      <point x="302" y="255" type="line"/>
    </contour>
  </outline>
</glyph>
<glyph name="ampersand" format="2">
  <advance width="530"/>
  <unicode hex="0026"/>
  <outline>
    <contour>
      <point x="197" y="-10" type="curve" smooth="yes"/>
      <point x="348" y="-10"/>
      <point x="430" y="149"/>
      <point x="448" y="317" type="curve"/>
      <point x="423" y="317" type="line"/>
      <point x="410" y="175"/>
      <point x="330" y="15"/>
      <point x="199" y="15" type="curve" smooth="yes"/>
      <point x="122" y="15"/>
      <point x="64" y="75"/>
      <point x="64" y="176" type="curve" smooth="yes"/>
      <point x="64" y="265"/>
      <point x="111" y="327"/>
      <point x="191" y="379" type="curve" smooth="yes"/>
      <point x="272" y="431"/>
      <point x="334" y="489"/>
      <point x="334" y="581" type="curve" smooth="yes"/>
      <point x="334" y="675"/>
      <point x="283" y="725"/>
      <point x="211" y="725" type="curve" smooth="yes"/>
      <point x="134" y="725"/>
      <point x="83" y="670"/>
      <point x="83" y="582" type="curve" smooth="yes"/>
      <point x="83" y="512"/>
      <point x="122" y="453"/>
      <point x="172" y="382" type="curve" smooth="yes"/>
      <point x="444" y="0" type="line"/>
      <point x="475" y="0" type="line"/>
      <point x="194" y="394" type="line" smooth="yes"/>
      <point x="148" y="458"/>
      <point x="108" y="516"/>
      <point x="108" y="582" type="curve" smooth="yes"/>
      <point x="108" y="654"/>
      <point x="146" y="700"/>
      <point x="211" y="700" type="curve" smooth="yes"/>
      <point x="272" y="700"/>
      <point x="308" y="655"/>
      <point x="308" y="581" type="curve" smooth="yes"/>
      <point x="308" y="505"/>
      <point x="254" y="447"/>
      <point x="175" y="398" type="curve" smooth="yes"/>
      <point x="87" y="343"/>
      <point x="38" y="277"/>
      <point x="38" y="176" type="curve" smooth="yes"/>
      <point x="38" y="60"/>
      <point x="104" y="-10"/>
    </contour>
  </outline>
</glyph>
<glyph name="slash" format="2">
  <advance width="530"/>
  <unicode hex="002F"/>
  <outline>
    <contour>
      <point x="102" y="0" type="line"/>
      <point x="130" y="0" type="line"/>
      <point x="398" y="714" type="line"/>
      <point x="370" y="714" type="line"/>
    </contour>
  </outline>
</glyph>
<glyph name="one" format="2">
  <advance width="530"/>
  <unicode hex="0031"/>
  <outline>
    <contour>
      <point x="251" y="0" type="line"/>
      <point x="278" y="0" type="line"/>
      <point x="278" y="714" type="line"/>
      <point x="255" y="714" type="line"/>
      <point x="87" y="580" type="line"/>
      <point x="104" y="560" type="line"/>
      <point x="204" y="641" type="line" smooth="yes"/>
      <point x="224" y="658"/>
      <point x="237" y="668"/>
      <point x="252" y="683" type="curve"/>
      <point x="251" y="648"/>
      <point x="251" y="614"/>
      <point x="251" y="565" type="curve" smooth="yes"/>
    </contour>
    <contour>
      <point x="126" y="0" type="line"/>
      <point x="406" y="0" type="line"/>
      <point x="406" y="20" type="line"/>
      <point x="278" y="23" type="line"/>
      <point x="251" y="23" type="line"/>
      <point x="126" y="20" type="line"/>
    </contour>
  </outline>
</glyph>
<glyph name="two" format="2">
  <advance width="530"/>
  <unicode hex="0032"/>
  <outline>
    <contour>
      <point x="68" y="0" type="line"/>
      <point x="437" y="0" type="line"/>
      <point x="437" y="25" type="line"/>
      <point x="104" y="25" type="line"/>
      <point x="104" y="27" type="line"/>
      <point x="273" y="235" type="line" smooth="yes"/>
      <point x="355" y="336"/>
      <point x="412" y="418"/>
      <point x="412" y="539" type="curve" smooth="yes"/>
      <point x="412" y="657"/>
      <point x="345" y="724"/>
      <point x="245" y="724" type="curve" smooth="yes"/>
      <point x="189" y="724"/>
      <point x="132" y="705"/>
      <point x="86" y="668" type="curve"/>
      <point x="101" y="648" type="line"/>
      <point x="142" y="680"/>
      <point x="194" y="699"/>
      <point x="244" y="699" type="curve" smooth="yes"/>
      <point x="330" y="699"/>
      <point x="385" y="646"/>
      <point x="385" y="539" type="curve" smooth="yes"/>
      <point x="385" y="427"/>
      <point x="339" y="356"/>
      <point x="256" y="254" type="curve" smooth="yes"/>
      <point x="68" y="21" type="line"/>
    </contour>
  </outline>
</glyph>
<glyph name="five" format="2">
  <advance width="530"/>
  <unicode hex="0035"/>
  <outline>
    <contour>
      <point x="218" y="-10" type="curve" smooth="yes"/>
      <point x="359" y="-10"/>
      <point x="438" y="84"/>
      <point x="438" y="220" type="curve" smooth="yes"/>
      <point x="438" y="348"/>
      <point x="368" y="426"/>
      <point x="238" y="426" type="curve" smooth="yes"/>
      <point x="184" y="426"/>
      <point x="142" y="415"/>
      <point x="114" y="408" type="curve"/>
      <point x="137" y="689" type="line"/>
      <point x="398" y="689" type="line"/>
      <point x="398" y="714" type="line"/>
      <point x="114" y="714" type="line"/>
      <point x="87" y="393" type="line"/>
      <point x="104" y="378" type="line"/>
      <point x="141" y="391"/>
      <point x="185" y="401"/>
      <point x="237" y="401" type="curve" smooth="yes"/>
      <point x="358" y="401"/>
      <point x="411" y="331"/>
      <point x="411" y="220" type="curve" smooth="yes"/>
      <point x="411" y="99"/>
      <point x="343" y="15"/>
      <point x="218" y="15" type="curve" smooth="yes"/>
      <point x="158" y="15"/>
      <point x="107" y="33"/>
      <point x="71" y="55" type="curve"/>
      <point x="71" y="26" type="line"/>
      <point x="106" y="6"/>
      <point x="156" y="-10"/>
    </contour>
  </outline>
</glyph>
<glyph name="equal" format="2">
  <advance width="530"/>
  <unicode hex="003D"/>
  <outline>
    <contour>
      <point x="50" y="445" type="line"/>
      <point x="450" y="445" type="line"/>
      <point x="450" y="470" type="line"/>
      <point x="50" y="470" type="line"/>
    </contour>
    <contour>
      <point x="50" y="236" type="line"/>
      <point x="450" y="236" type="line"/>
      <point x="450" y="261" type="line"/>
      <point x="50" y="261" type="line"/>
    </contour>
  </outline>
</glyph>
<glyph name="at" format="2">
  <advance width="530"/>
  <unicode hex="0040"/>
  <outline>
    <contour>
      <point x="272" y="-89" type="curve" smooth="yes"/>
      <point x="325" y="-89"/>
      <point x="379" y="-74"/>
      <point x="422" y="-49" type="curve"/>
      <point x="422" y="-21" type="line"/>
      <point x="374" y="-49"/>
      <point x="321" y="-64"/>
      <point x="270" y="-64" type="curve" smooth="yes"/>
      <point x="118" y="-64"/>
      <point x="27" y="72"/>
      <point x="27" y="292" type="curve" smooth="yes"/>
      <point x="27" y="545"/>
      <point x="127" y="688"/>
      <point x="268" y="688" type="curve" smooth="yes"/>
      <point x="402" y="688"/>
      <point x="473" y="559"/>
      <point x="473" y="353" type="curve" smooth="yes"/>
      <point x="473" y="232"/>
      <point x="451" y="139"/>
      <point x="398" y="139" type="curve" smooth="yes"/>
      <point x="360" y="139"/>
      <point x="346" y="180"/>
      <point x="346" y="257" type="curve" smooth="yes"/>
      <point x="346" y="285"/>
      <point x="348" y="324"/>
      <point x="349" y="348" type="curve" smooth="yes"/>
      <point x="355" y="493" type="line"/>
      <point x="328" y="506"/>
      <point x="299" y="513"/>
      <point x="275" y="513" type="curve" smooth="yes"/>
      <point x="185" y="513"/>
      <point x="133" y="419"/>
      <point x="133" y="287" type="curve" smooth="yes"/>
      <point x="133" y="179"/>
      <point x="168" y="114"/>
      <point x="232" y="114" type="curve" smooth="yes"/>
      <point x="274" y="114"/>
      <point x="311" y="144"/>
      <point x="327" y="197" type="curve"/>
      <point x="329" y="197" type="line"/>
      <point x="333" y="146"/>
      <point x="360" y="114"/>
      <point x="400" y="114" type="curve" smooth="yes"/>
      <point x="467" y="114"/>
      <point x="500" y="221"/>
      <point x="500" y="356" type="curve" smooth="yes"/>
      <point x="500" y="576"/>
      <point x="413" y="713"/>
      <point x="266" y="713" type="curve" smooth="yes"/>
      <point x="111" y="713"/>
      <point x="0" y="562"/>
      <point x="0" y="294" type="curve" smooth="yes"/>
      <point x="0" y="59"/>
      <point x="100" y="-89"/>
    </contour>
    <contour>
      <point x="234" y="139" type="curve" smooth="yes"/>
      <point x="184" y="139"/>
      <point x="160" y="195"/>
      <point x="160" y="288" type="curve" smooth="yes"/>
      <point x="160" y="412"/>
      <point x="203" y="488"/>
      <point x="275" y="488" type="curve" smooth="yes"/>
      <point x="292" y="488"/>
      <point x="311" y="483"/>
      <point x="329" y="473" type="curve"/>
      <point x="322" y="323" type="line" smooth="yes"/>
      <point x="316" y="195"/>
      <point x="284" y="139"/>
    </contour>
  </outline>
</glyph>
<glyph name="C" format="2">
  <advance width="530"/>
  <unicode hex="0043"/>
  <anchor x="302" y="0" name="bottom"/>
  <anchor x="310" y="714" name="top"/>
  <anchor x="480" y="714" name="topright"/>
  <outline>
    <contour>
      <point x="318" y="-10" type="curve" smooth="yes"/>
      <point x="376" y="-10"/>
      <point x="426" y="2"/>
      <point x="460" y="17" type="curve"/>
      <point x="460" y="44" type="line"/>
      <point x="426" y="29"/>
      <point x="379" y="15"/>
      <point x="318" y="15" type="curve" smooth="yes"/>
      <point x="168" y="15"/>
      <point x="86" y="154"/>
      <point x="86" y="359" type="curve" smooth="yes"/>
      <point x="86" y="542"/>
      <point x="164" y="699"/>
      <point x="325" y="699" type="curve" smooth="yes"/>
      <point x="366" y="699"/>
      <point x="411" y="694"/>
      <point x="456" y="669" type="curve"/>
      <point x="467" y="692" type="line"/>
      <point x="423" y="714"/>
      <point x="377" y="724"/>
      <point x="325" y="724" type="curve" smooth="yes"/>
      <point x="147" y="724"/>
      <point x="59" y="558"/>
      <point x="59" y="359" type="curve" smooth="yes"/>
      <point x="59" y="135"/>
      <point x="154" y="-10"/>
    </contour>
  </outline>
</glyph>
<glyph name="D" format="2">
  <advance width="530"/>
  <unicode hex="0044"/>
  <anchor x="189" y="0" name="bottom"/>
  <anchor x="248" y="357" name="center"/>
  <anchor x="233" y="714" name="top"/>
  <anchor x="500" y="714" name="topright"/>
  <outline>
    <contour>
      <point x="65" y="0" type="line"/>
      <point x="189" y="0" type="line" smooth="yes"/>
      <point x="370" y="0"/>
      <point x="450" y="123"/>
      <point x="450" y="362" type="curve" smooth="yes"/>
      <point x="450" y="595"/>
      <point x="370" y="714"/>
      <point x="190" y="714" type="curve" smooth="yes"/>
      <point x="65" y="714" type="line"/>
    </contour>
    <contour>
      <point x="91" y="25" type="line"/>
      <point x="91" y="689" type="line"/>
      <point x="185" y="689" type="line" smooth="yes"/>
      <point x="362" y="689"/>
      <point x="423" y="569"/>
      <point x="423" y="360" type="curve" smooth="yes"/>
      <point x="423" y="140"/>
      <point x="353" y="25"/>
      <point x="184" y="25" type="curve" smooth="yes"/>
    </contour>
  </outline>
</glyph>
<glyph name="E" format="2">
  <advance width="530"/>
  <unicode hex="0045"/>
  <anchor x="254" y="0" name="bottom"/>
  <anchor x="354" y="10" name="ogonek"/>
  <anchor x="247" y="714" name="top"/>
  <anchor x="20" y="714" name="topleft"/>
  <anchor x="480" y="714" name="topright"/>
  <outline>
    <contour>
      <point x="95" y="0" type="line"/>
      <point x="405" y="0" type="line"/>
      <point x="405" y="25" type="line"/>
      <point x="121" y="25" type="line"/>
      <point x="121" y="364" type="line"/>
      <point x="388" y="364" type="line"/>
      <point x="388" y="389" type="line"/>
      <point x="121" y="389" type="line"/>
      <point x="121" y="689" type="line"/>
      <point x="405" y="689" type="line"/>
      <point x="405" y="714" type="line"/>
      <point x="95" y="714" type="line"/>
    </contour>
  </outline>
</glyph>
<glyph name="F" format="2">
  <advance width="530"/>
  <unicode hex="0046"/>
  <anchor x="257" y="0" name="bottom"/>
  <anchor x="253" y="714" name="top"/>
  <anchor x="480" y="714" name="topright"/>
  <outline>
    <contour>
      <point x="95" y="0" type="line"/>
      <point x="121" y="0" type="line"/>
      <point x="121" y="329" type="line"/>
      <point x="389" y="329" type="line"/>
      <point x="389" y="354" type="line"/>
      <point x="121" y="354" type="line"/>
      <point x="121" y="689" type="line"/>
      <point x="405" y="689" type="line"/>
      <point x="405" y="714" type="line"/>
      <point x="95" y="714" type="line"/>
    </contour>
  </outline>
</glyph>
<glyph name="J" format="2">
  <advance width="530"/>
  <unicode hex="004A"/>
  <anchor x="250" y="0" name="bottom"/>
  <anchor x="348" y="714" name="top"/>
  <anchor x="480" y="714" name="topright"/>
  <outline>
    <contour>
      <point x="201" y="-15" type="curve" smooth="yes"/>
      <point x="321" y="-15"/>
      <point x="360" y="58"/>
      <point x="360" y="196" type="curve" smooth="yes"/>
      <point x="360" y="714" type="line"/>
      <point x="334" y="714" type="line"/>
      <point x="334" y="204" type="line" smooth="yes"/>
      <point x="334" y="71"/>
      <point x="301" y="10"/>
      <point x="201" y="10" type="curve" smooth="yes"/>
      <point x="144" y="10"/>
      <point x="98" y="27"/>
      <point x="60" y="48" type="curve"/>
      <point x="60" y="19" type="line"/>
      <point x="103" y="-1"/>
      <point x="149" y="-15"/>
    </contour>
  </outline>
</glyph>
<glyph name="P" format="2">
  <advance width="530"/>
  <unicode hex="0050"/>
  <anchor x="250" y="0" name="bottom"/>
  <anchor x="250" y="714" name="top"/>
  <anchor x="500" y="714" name="topright"/>
  <outline>
    <contour>
      <point x="95" y="0" type="line"/>
      <point x="121" y="0" type="line"/>
      <point x="121" y="306" type="line"/>
      <point x="250" y="306" type="line" smooth="yes"/>
      <point x="385" y="306"/>
      <point x="455" y="372"/>
      <point x="455" y="515" type="curve" smooth="yes"/>
      <point x="455" y="663"/>
      <point x="378" y="714"/>
      <point x="243" y="714" type="curve" smooth="yes"/>
      <point x="95" y="714" type="line"/>
    </contour>
    <contour>
      <point x="121" y="331" type="line"/>
      <point x="121" y="689" type="line"/>
      <point x="234" y="689" type="line" smooth="yes"/>
      <point x="367" y="689"/>
      <point x="428" y="645"/>
      <point x="428" y="516" type="curve" smooth="yes"/>
      <point x="428" y="385"/>
      <point x="366" y="331"/>
      <point x="241" y="331" type="curve" smooth="yes"/>
    </contour>
  </outline>
</glyph>
<glyph name="U" format="2">
  <advance width="530"/>
  <unicode hex="0055"/>
  <anchor x="250" y="0" name="bottom"/>
  <anchor x="450" y="10" name="ogonek"/>
  <anchor x="250" y="714" name="top"/>
  <anchor x="480" y="714" name="topright"/>
  <outline>
    <contour>
      <point x="249" y="-10" type="curve" smooth="yes"/>
      <point x="356" y="-10"/>
      <point x="435" y="58"/>
      <point x="435" y="230" type="curve" smooth="yes"/>
      <point x="435" y="714" type="line"/>
      <point x="409" y="714" type="line"/>
      <point x="409" y="233" type="line" smooth="yes"/>
      <point x="409" y="78"/>
      <point x="345" y="15"/>
      <point x="250" y="15" type="curve" smooth="yes"/>
      <point x="149" y="15"/>
      <point x="91" y="84"/>
      <point x="91" y="239" type="curve" smooth="yes"/>
      <point x="91" y="714" type="line"/>
      <point x="65" y="714" type="line"/>
      <point x="65" y="236" type="line" smooth="yes"/>
      <point x="65" y="70"/>
      <point x="132" y="-10"/>
    </contour>
  </outline>
</glyph>
<glyph name="V" format="2">
  <advance width="530"/>
  <unicode hex="0056"/>
  <anchor x="250" y="0" name="bottom"/>
  <anchor x="250" y="714" name="top"/>
  <anchor x="480" y="714" name="topright"/>
  <outline>
    <contour>
      <point x="234" y="0" type="line"/>
      <point x="263" y="0" type="line"/>
      <point x="475" y="714" type="line"/>
      <point x="448" y="714" type="line"/>
      <point x="279" y="140" type="line" smooth="yes"/>
      <point x="267" y="100"/>
      <point x="258" y="67"/>
      <point x="250" y="34" type="curve"/>
      <point x="249" y="34" type="line"/>
      <point x="241" y="68"/>
      <point x="230" y="102"/>
      <point x="219" y="140" type="curve" smooth="yes"/>
      <point x="52" y="714" type="line"/>
      <point x="25" y="714" type="line"/>
    </contour>
  </outline>
</glyph>
<glyph name="W" format="2">
  <advance width="530"/>
  <unicode hex="0057"/>
  <anchor x="250" y="0" name="bottom"/>
  <anchor x="250" y="714" name="top"/>
  <anchor x="480" y="714" name="topright"/>
  <outline>
    <contour>
      <point x="125" y="0" type="line"/>
      <point x="163" y="0" type="line"/>
      <point x="233" y="375" type="line" smooth="yes"/>
      <point x="240" y="411"/>
      <point x="244" y="433"/>
      <point x="250" y="475" type="curve"/>
      <point x="252" y="475" type="line"/>
      <point x="257" y="433"/>
      <point x="260" y="410"/>
      <point x="267" y="375" type="curve" smooth="yes"/>
      <point x="337" y="0" type="line"/>
      <point x="373" y="0" type="line"/>
      <point x="475" y="714" type="line"/>
      <point x="447" y="714" type="line"/>
      <point x="422" y="526"/>
      <point x="396" y="339"/>
      <point x="371" y="151" type="curve" smooth="yes"/>
      <point x="365" y="109"/>
      <point x="361" y="73"/>
      <point x="357" y="26" type="curve"/>
      <point x="355" y="26" type="line"/>
      <point x="348" y="68"/>
      <point x="342" y="109"/>
      <point x="334" y="151" type="curve" smooth="yes"/>
      <point x="263" y="528" type="line"/>
      <point x="237" y="528" type="line"/>
      <point x="165" y="151" type="line" smooth="yes"/>
      <point x="157" y="110"/>
      <point x="153" y="70"/>
      <point x="146" y="29" type="curve"/>
      <point x="144" y="29" type="line"/>
      <point x="139" y="75"/>
      <point x="133" y="110"/>
      <point x="128" y="151" type="curve" smooth="yes"/>
      <point x="105" y="340"/>
      <point x="77" y="526"/>
      <point x="52" y="714" type="curve"/>
      <point x="25" y="714" type="line"/>
    </contour>
  </outline>
</glyph>
<glyph name="X" format="2">
  <advance width="530"/>
  <unicode hex="0058"/>
  <anchor x="260" y="0" name="bottom"/>
  <anchor x="260" y="714" name="top"/>
  <anchor x="480" y="714" name="topright"/>
  <outline>
    <contour>
      <point x="35" y="0" type="line"/>
      <point x="64" y="0" type="line"/>
      <point x="255" y="348" type="line"/>
      <point x="437" y="0" type="line"/>
      <point x="465" y="0" type="line"/>
      <point x="270" y="372" type="line"/>
      <point x="458" y="714" type="line"/>
      <point x="428" y="714" type="line"/>
      <point x="254" y="396" type="line"/>
      <point x="87" y="714" type="line"/>
      <point x="59" y="714" type="line"/>
      <point x="239" y="372" type="line"/>
    </contour>
  </outline>
</glyph>
<glyph name="e" format="2">
  <advance width="530"/>
  <unicode hex="0065"/>
  <anchor x="260" y="0" name="bottom"/>
  <anchor x="267" y="10" name="ogonek"/>
  <anchor x="260" y="528" name="top"/>
  <anchor x="480" y="528" name="topright"/>
  <outline>
    <contour>
      <point x="280" y="-10" type="curve" smooth="yes"/>
      <point x="335" y="-10"/>
      <point x="380" y="2"/>
      <point x="419" y="23" type="curve"/>
      <point x="419" y="51" type="line"/>
      <point x="372" y="25"/>
      <point x="332" y="15"/>
      <point x="280" y="15" type="curve" smooth="yes"/>
      <point x="163" y="15"/>
      <point x="100" y="102"/>
      <point x="100" y="270" type="curve"/>
      <point x="437" y="270" type="line"/>
      <point x="437" y="296" type="line" smooth="yes"/>
      <point x="437" y="426"/>
      <point x="388" y="538"/>
      <point x="261" y="538" type="curve" smooth="yes"/>
      <point x="134" y="538"/>
      <point x="73" y="419"/>
      <point x="73" y="262" type="curve" smooth="yes"/>
      <point x="73" y="99"/>
      <point x="137" y="-10"/>
    </contour>
    <contour>
      <point x="101" y="294" type="line"/>
      <point x="110" y="439"/>
      <point x="170" y="513"/>
      <point x="261" y="513" type="curve" smooth="yes"/>
      <point x="366" y="513"/>
      <point x="411" y="419"/>
      <point x="411" y="294" type="curve"/>
    </contour>
  </outline>
</glyph>
<glyph name="g" format="2">
  <advance width="530"/>
  <unicode hex="0067"/>
  <anchor x="250" y="-241" name="bottom"/>
  <anchor x="250" y="528" name="top"/>
  <anchor x="480" y="528" name="topright"/>
  <outline>
    <contour>
      <point x="215" y="-241" type="curve" smooth="yes"/>
      <point x="357" y="-241"/>
      <point x="415" y="-163"/>
      <point x="415" y="-30" type="curve" smooth="yes"/>
      <point x="415" y="528" type="line"/>
      <point x="394" y="528" type="line"/>
      <point x="390" y="439" type="line"/>
      <point x="388" y="439" type="line"/>
      <point x="367" y="492"/>
      <point x="327" y="538"/>
      <point x="244" y="538" type="curve" smooth="yes"/>
      <point x="118" y="538"/>
      <point x="60" y="432"/>
      <point x="60" y="259" type="curve" smooth="yes"/>
      <point x="60" y="78"/>
      <point x="123" y="-10"/>
      <point x="233" y="-10" type="curve" smooth="yes"/>
      <point x="317" y="-10"/>
      <point x="372" y="42"/>
      <point x="389" y="114" type="curve"/>
      <point x="392" y="114" type="line"/>
      <point x="389" y="74"/>
      <point x="389" y="50"/>
      <point x="389" y="15" type="curve" smooth="yes"/>
      <point x="389" y="-30" type="line" smooth="yes"/>
      <point x="389" y="-151"/>
      <point x="337" y="-216"/>
      <point x="216" y="-216" type="curve" smooth="yes"/>
      <point x="158" y="-216"/>
      <point x="114" y="-201"/>
      <point x="75" y="-179" type="curve"/>
      <point x="75" y="-208" type="line"/>
      <point x="113" y="-228"/>
      <point x="157" y="-241"/>
    </contour>
    <contour>
      <point x="235" y="15" type="curve" smooth="yes"/>
      <point x="136" y="15"/>
      <point x="86" y="96"/>
      <point x="86" y="258" type="curve" smooth="yes"/>
      <point x="86" y="414"/>
      <point x="132" y="513"/>
      <point x="244" y="513" type="curve" smooth="yes"/>
      <point x="351" y="513"/>
      <point x="389" y="423"/>
      <point x="389" y="312" type="curve" smooth="yes"/>
      <point x="389" y="234" type="line" smooth="yes"/>
      <point x="389" y="131"/>
      <point x="354" y="15"/>
    </contour>
  </outline>
</glyph>
<glyph name="m" format="2">
  <advance width="530"/>
  <unicode hex="006D"/>
  <anchor x="252" y="0" name="bottom"/>
  <anchor x="253" y="528" name="top"/>
  <anchor x="480" y="528" name="topright"/>
  <outline>
    <contour>
      <point x="56" y="0" type="line"/>
      <point x="82" y="0" type="line"/>
      <point x="82" y="366" type="line" smooth="yes"/>
      <point x="82" y="440"/>
      <point x="113" y="513"/>
      <point x="172" y="513" type="curve" smooth="yes"/>
      <point x="208" y="513"/>
      <point x="238" y="497"/>
      <point x="238" y="384" type="curve" smooth="yes"/>
      <point x="238" y="0" type="line"/>
      <point x="264" y="0" type="line"/>
      <point x="264" y="366" type="line" smooth="yes"/>
      <point x="264" y="458"/>
      <point x="298" y="513"/>
      <point x="351" y="513" type="curve" smooth="yes"/>
      <point x="388" y="513"/>
      <point x="418" y="493"/>
      <point x="418" y="401" type="curve" smooth="yes"/>
      <point x="418" y="0" type="line"/>
      <point x="444" y="0" type="line"/>
      <point x="444" y="403" type="line" smooth="yes"/>
      <point x="444" y="505"/>
      <point x="410" y="537"/>
      <point x="354" y="537" type="curve" smooth="yes"/>
      <point x="299" y="537"/>
      <point x="271" y="501"/>
      <point x="258" y="460" type="curve"/>
      <point x="255" y="460" type="line"/>
      <point x="250" y="496"/>
      <point x="229" y="537"/>
      <point x="174" y="537" type="curve" smooth="yes"/>
      <point x="114" y="537"/>
      <point x="90" y="492"/>
      <point x="80" y="457" type="curve"/>
      <point x="78" y="457" type="line"/>
      <point x="75" y="528" type="line"/>
      <point x="56" y="528" type="line"/>
    </contour>
  </outline>
</glyph>
<glyph name="n" format="2">
  <advance width="530"/>
  <unicode hex="006E"/>
  <anchor x="258" y="0" name="bottom"/>
  <anchor x="255" y="528" name="top"/>
  <anchor x="480" y="528" name="topright"/>
  <outline>
    <contour>
      <point x="85" y="0" type="line"/>
      <point x="111" y="0" type="line"/>
      <point x="111" y="307" type="line" smooth="yes"/>
      <point x="111" y="446"/>
      <point x="179" y="512"/>
      <point x="270" y="512" type="curve" smooth="yes"/>
      <point x="348" y="512"/>
      <point x="394" y="467"/>
      <point x="394" y="355" type="curve" smooth="yes"/>
      <point x="394" y="0" type="line"/>
      <point x="420" y="0" type="line"/>
      <point x="420" y="361" type="line" smooth="yes"/>
      <point x="420" y="483"/>
      <point x="366" y="537"/>
      <point x="270" y="537" type="curve" smooth="yes"/>
      <point x="175" y="537"/>
      <point x="128" y="476"/>
      <point x="110" y="416" type="curve"/>
      <point x="108" y="416" type="line"/>
      <point x="105" y="528" type="line"/>
      <point x="85" y="528" type="line"/>
    </contour>
  </outline>
</glyph>
<glyph name="t" format="2">
  <advance width="530"/>
  <unicode hex="0074"/>
  <anchor x="323" y="0" name="bottom"/>
  <anchor x="229" y="290" name="center"/>
  <anchor x="231" y="659" name="top"/>
  <anchor x="480" y="659" name="topright"/>
  <outline>
    <contour>
      <point x="351" y="-10" type="curve" smooth="yes"/>
      <point x="386" y="-10"/>
      <point x="408" y="-4"/>
      <point x="430" y="3" type="curve"/>
      <point x="430" y="28" type="line"/>
      <point x="408" y="20"/>
      <point x="384" y="15"/>
      <point x="351" y="15" type="curve" smooth="yes"/>
      <point x="265" y="15"/>
      <point x="241" y="75"/>
      <point x="241" y="183" type="curve" smooth="yes"/>
      <point x="241" y="503" type="line"/>
      <point x="418" y="503" type="line"/>
      <point x="418" y="528" type="line"/>
      <point x="241" y="528" type="line"/>
      <point x="241" y="659" type="line"/>
      <point x="219" y="659" type="line"/>
      <point x="214" y="528" type="line"/>
      <point x="84" y="524" type="line"/>
      <point x="84" y="503" type="line"/>
      <point x="215" y="503" type="line"/>
      <point x="215" y="180" type="line" smooth="yes"/>
      <point x="215" y="62"/>
      <point x="246" y="-10"/>
    </contour>
  </outline>
</glyph>
<glyph name="w" format="2">
  <advance width="530"/>
  <unicode hex="0077"/>
  <anchor x="256" y="0" name="bottom"/>
  <anchor x="256" y="528" name="top"/>
  <anchor x="480" y="528" name="topright"/>
  <outline>
    <contour>
      <point x="129" y="-1" type="line"/>
      <point x="152" y="-1" type="line"/>
      <point x="229" y="269" type="line" smooth="yes"/>
      <point x="238" y="301"/>
      <point x="247" y="335"/>
      <point x="254" y="367" type="curve"/>
      <point x="256" y="367" type="line"/>
      <point x="263" y="335"/>
      <point x="272" y="304"/>
      <point x="281" y="270" type="curve" smooth="yes"/>
      <point x="355" y="-1" type="line"/>
      <point x="377" y="-1" type="line"/>
      <point x="486" y="528" type="line"/>
      <point x="460" y="528" type="line"/>
      <point x="387" y="155" type="line" smooth="yes"/>
      <point x="378" y="107"/>
      <point x="373" y="89"/>
      <point x="366" y="44" type="curve"/>
      <point x="364" y="44" type="line"/>
      <point x="358" y="77"/>
      <point x="347" y="113"/>
      <point x="335" y="157" type="curve" smooth="yes"/>
      <point x="267" y="407" type="line"/>
      <point x="244" y="407" type="line"/>
      <point x="174" y="160" type="line" smooth="yes"/>
      <point x="160" y="111"/>
      <point x="149" y="73"/>
      <point x="143" y="45" type="curve"/>
      <point x="141" y="45" type="line"/>
      <point x="134" y="78"/>
      <point x="129" y="107"/>
      <point x="118" y="158" type="curve" smooth="yes"/>
      <point x="41" y="528" type="line"/>
      <point x="14" y="528" type="line"/>
    </contour>
  </outline>
</glyph>
<glyph name="y" format="2">
  <advance width="530"/>
  <unicode hex="0079"/>
  <anchor x="250" y="-243" name="bottom"/>
  <anchor x="250" y="528" name="top"/>
  <anchor x="480" y="528" name="topright"/>
  <outline>
    <contour>
      <point x="110" y="-243" type="curve" smooth="yes"/>
      <point x="173" y="-243"/>
      <point x="208" y="-201"/>
      <point x="236" y="-112" type="curve" smooth="yes"/>
      <point x="435" y="528" type="line"/>
      <point x="409" y="528" type="line"/>
      <point x="292" y="155" type="line" smooth="yes"/>
      <point x="279" y="112"/>
      <point x="269" y="83"/>
      <point x="260" y="48" type="curve"/>
      <point x="258" y="48" type="line"/>
      <point x="252" y="69"/>
      <point x="245" y="92"/>
      <point x="224" y="156" type="curve" smooth="yes"/>
      <point x="101" y="528" type="line"/>
      <point x="75" y="528" type="line"/>
      <point x="247" y="10" type="line"/>
      <point x="209" y="-112" type="line" smooth="yes"/>
      <point x="184" y="-193"/>
      <point x="151" y="-217"/>
      <point x="110" y="-217" type="curve" smooth="yes"/>
      <point x="94" y="-217"/>
      <point x="80" y="-213"/>
      <point x="65" y="-207" type="curve"/>
      <point x="65" y="-234" type="line"/>
      <point x="81" y="-240"/>
      <point x="94" y="-243"/>
    </contour>
  </outline>
</glyph>
<glyph name="braceleft" format="2">
  <advance width="530"/>
  <unicode hex="007B"/>
  <outline>
    <contour>
      <point x="388" y="-158" type="curve"/>
      <point x="388" y="-137" type="line"/>
      <point x="294" y="-137"/>
      <point x="260" y="-108"/>
      <point x="260" y="-16" type="curve" smooth="yes"/>
      <point x="260" y="157" type="line" smooth="yes"/>
      <point x="260" y="234"/>
      <point x="240" y="267"/>
      <point x="182" y="277" type="curve"/>
      <point x="182" y="278" type="line"/>
      <point x="240" y="288"/>
      <point x="260" y="327"/>
      <point x="260" y="398" type="curve" smooth="yes"/>
      <point x="260" y="571" type="line" smooth="yes"/>
      <point x="260" y="659"/>
      <point x="301" y="693"/>
      <point x="388" y="693" type="curve"/>
      <point x="388" y="714" type="line"/>
      <point x="289" y="714"/>
      <point x="235" y="672"/>
      <point x="235" y="578" type="curve" smooth="yes"/>
      <point x="235" y="405" type="line" smooth="yes"/>
      <point x="235" y="314"/>
      <point x="205" y="289"/>
      <point x="129" y="289" type="curve"/>
      <point x="129" y="266" type="line"/>
      <point x="214" y="266"/>
      <point x="235" y="238"/>
      <point x="235" y="150" type="curve" smooth="yes"/>
      <point x="235" y="-23" type="line" smooth="yes"/>
      <point x="235" y="-125"/>
      <point x="280" y="-157"/>
    </contour>
  </outline>
</glyph>
<glyph name="bar" format="2">
  <advance width="530"/>
  <unicode hex="007C"/>
  <outline>
    <contour>
      <point x="215" y="-240" type="line"/>
      <point x="240" y="-240" type="line"/>
      <point x="240" y="760" type="line"/>
      <point x="215" y="760" type="line"/>
    </contour>
  </outline>
</glyph>
<glyph name="sterling" format="2">
  <advance width="530"/>
  <unicode hex="00A3"/>
  <outline>
    <contour>
      <point x="41" y="0" type="line"/>
      <point x="433" y="0" type="line"/>
      <point x="433" y="25" type="line"/>
      <point x="96" y="25" type="line"/>
      <point x="139" y="47"/>
      <point x="169" y="96"/>
      <point x="169" y="183" type="curve" smooth="yes"/>
      <point x="169" y="338" type="line"/>
      <point x="339" y="338" type="line"/>
      <point x="339" y="363" type="line"/>
      <point x="169" y="363" type="line"/>
      <point x="169" y="527" type="line" smooth="yes"/>
      <point x="169" y="645"/>
      <point x="212" y="699"/>
      <point x="306" y="699" type="curve" smooth="yes"/>
      <point x="345" y="699"/>
      <point x="375" y="691"/>
      <point x="412" y="669" type="curve"/>
      <point x="424" y="691" type="line"/>
      <point x="392" y="711"/>
      <point x="356" y="724"/>
      <point x="306" y="724" type="curve" smooth="yes"/>
      <point x="191" y="724"/>
      <point x="143" y="651"/>
      <point x="143" y="532" type="curve" smooth="yes"/>
      <point x="143" y="363" type="line"/>
      <point x="49" y="363" type="line"/>
      <point x="49" y="338" type="line"/>
      <point x="143" y="338" type="line"/>
      <point x="143" y="185" type="line" smooth="yes"/>
      <point x="143" y="89"/>
      <point x="108" y="40"/>
      <point x="41" y="23" type="curve"/>
    </contour>
  </outline>
</glyph>
<glyph name="yen" format="2">
  <advance width="530"/>
  <unicode hex="00A5"/>
  <outline>
    <contour>
      <point x="237" y="0" type="line"/>
      <point x="263" y="0" type="line"/>
      <point x="263" y="159" type="line"/>
      <point x="410" y="159" type="line"/>
      <point x="410" y="183" type="line"/>
      <point x="263" y="183" type="line"/>
      <point x="263" y="295" type="line"/>
      <point x="410" y="295" type="line"/>
      <point x="410" y="319" type="line"/>
      <point x="268" y="319" type="line"/>
      <point x="452" y="714" type="line"/>
      <point x="424" y="714" type="line"/>
      <point x="250" y="338" type="line"/>
      <point x="76" y="714" type="line"/>
      <point x="47" y="714" type="line"/>
      <point x="232" y="319" type="line"/>
      <point x="91" y="319" type="line"/>
      <point x="91" y="295" type="line"/>
      <point x="237" y="295" type="line"/>
      <point x="237" y="183" type="line"/>
      <point x="91" y="183" type="line"/>
      <point x="91" y="159" type="line"/>
      <point x="237" y="159" type="line"/>
    </contour>
  </outline>
</glyph>
<glyph name="brokenbar" format="2">
  <advance width="530"/>
  <unicode hex="00A6"/>
  <outline>
    <contour>
      <point x="215" y="386" type="line"/>
      <point x="240" y="386" type="line"/>
      <point x="240" y="762" type="line"/>
      <point x="215" y="762" type="line"/>
    </contour>
    <contour>
      <point x="215" y="-248" type="line"/>
      <point x="240" y="-248" type="line"/>
      <point x="240" y="130" type="line"/>
      <point x="215" y="130" type="line"/>
    </contour>
  </outline>
</glyph>
<glyph name="overscore" format="2">
  <advance width="530"/>
  <unicode hex="00AF"/>
  <outline>
    <contour>
      <point x="136" y="616" type="line"/>
      <point x="364" y="616" type="line"/>
      <point x="364" y="640" type="line"/>
      <point x="136" y="640" type="line"/>
    </contour>
  </outline>
</glyph>
<glyph name="degree" format="2">
  <advance width="530"/>
  <unicode hex="00B0"/>
  <outline>
    <contour>
      <point x="250" y="460" type="curve" smooth="yes"/>
      <point x="326" y="460"/>
      <point x="381" y="511"/>
      <point x="381" y="592" type="curve" smooth="yes"/>
      <point x="381" y="675"/>
      <point x="321" y="724"/>
      <point x="249" y="724" type="curve" smooth="yes"/>
      <point x="178" y="724"/>
      <point x="118" y="677"/>
      <point x="118" y="592" type="curve" smooth="yes"/>
      <point x="118" y="506"/>
      <point x="180" y="460"/>
    </contour>
    <contour>
      <point x="249" y="483" type="curve" smooth="yes"/>
      <point x="189" y="483"/>
      <point x="143" y="524"/>
      <point x="143" y="592" type="curve" smooth="yes"/>
      <point x="143" y="657"/>
      <point x="186" y="701"/>
      <point x="249" y="701" type="curve" smooth="yes"/>
      <point x="314" y="701"/>
      <point x="356" y="657"/>
      <point x="356" y="591" type="curve" smooth="yes"/>
      <point x="356" y="524"/>
      <point x="311" y="483"/>
    </contour>
  </outline>
</glyph>
<glyph name="cedilla" format="2">
  <advance width="530"/>
  <unicode hex="00B8"/>
  <outline>
    <contour>
      <point x="219" y="-240" type="curve" smooth="yes"/>
      <point x="287" y="-240"/>
      <point x="332" y="-203"/>
      <point x="332" y="-146" type="curve" smooth="yes"/>
      <point x="332" y="-99"/>
      <point x="301" y="-69"/>
      <point x="244" y="-64" type="curve"/>
      <point x="274" y="0" type="line"/>
      <point x="248" y="0" type="line"/>
      <point x="209" y="-83" type="line"/>
      <point x="272" y="-84"/>
      <point x="307" y="-101"/>
      <point x="307" y="-146" type="curve" smooth="yes"/>
      <point x="307" y="-192"/>
      <point x="271" y="-217"/>
      <point x="218" y="-217" type="curve" smooth="yes"/>
      <point x="203" y="-217"/>
      <point x="185" y="-215"/>
      <point x="169" y="-210" type="curve"/>
      <point x="169" y="-234" type="line"/>
      <point x="184" y="-238"/>
      <point x="203" y="-240"/>
    </contour>
  </outline>
</glyph>
<glyph name="Thorn" format="2">
  <advance width="530"/>
  <unicode hex="00DE"/>
  <anchor x="250" y="0" name="bottom"/>
  <anchor x="250" y="714" name="top"/>
  <outline>
    <contour>
      <point x="95" y="0" type="line"/>
      <point x="121" y="0" type="line"/>
      <point x="121" y="176" type="line"/>
      <point x="250" y="176" type="line" smooth="yes"/>
      <point x="385" y="176"/>
      <point x="455" y="242"/>
      <point x="455" y="385" type="curve" smooth="yes"/>
      <point x="455" y="533"/>
      <point x="378" y="584"/>
      <point x="243" y="584" type="curve" smooth="yes"/>
      <point x="121" y="584" type="line"/>
      <point x="121" y="714" type="line"/>
      <point x="95" y="714" type="line"/>
    </contour>
    <contour>
      <point x="121" y="201" type="line"/>
      <point x="121" y="559" type="line"/>
      <point x="234" y="559" type="line" smooth="yes"/>
      <point x="367" y="559"/>
      <point x="428" y="515"/>
      <point x="428" y="386" type="curve" smooth="yes"/>
      <point x="428" y="255"/>
      <point x="366" y="201"/>
      <point x="241" y="201" type="curve" smooth="yes"/>
    </contour>
  </outline>
</glyph>
<glyph name="ae" format="2">
  <advance width="530"/>
  <unicode hex="00E6"/>
  <anchor x="250" y="0" name="bottom"/>
  <anchor x="250" y="528" name="top"/>
  <outline>
    <contour>
      <point x="134" y="-10" type="curve" smooth="yes"/>
      <point x="209" y="-10"/>
      <point x="238" y="49"/>
      <point x="249" y="135" type="curve"/>
      <point x="263" y="49"/>
      <point x="299" y="-10"/>
      <point x="368" y="-10" type="curve" smooth="yes"/>
      <point x="396" y="-10"/>
      <point x="426" y="0"/>
      <point x="457" y="22" type="curve"/>
      <point x="457" y="50" type="line"/>
      <point x="415" y="21"/>
      <point x="388" y="15"/>
      <point x="370" y="15" type="curve" smooth="yes"/>
      <point x="290" y="15"/>
      <point x="261" y="126"/>
      <point x="261" y="270" type="curve"/>
      <point x="475" y="270" type="line"/>
      <point x="475" y="297" type="line" smooth="yes"/>
      <point x="475" y="434"/>
      <point x="443" y="538"/>
      <point x="364" y="538" type="curve" smooth="yes"/>
      <point x="302" y="538"/>
      <point x="267" y="474"/>
      <point x="252" y="395" type="curve"/>
      <point x="246" y="490"/>
      <point x="212" y="537"/>
      <point x="146" y="537" type="curve" smooth="yes"/>
      <point x="106" y="537"/>
      <point x="73" y="523"/>
      <point x="43" y="502" type="curve"/>
      <point x="53" y="479" type="line"/>
      <point x="88" y="504"/>
      <point x="116" y="512"/>
      <point x="142" y="512" type="curve" smooth="yes"/>
      <point x="202" y="512"/>
      <point x="230" y="465"/>
      <point x="230" y="354" type="curve" smooth="yes"/>
      <point x="230" y="296" type="line"/>
      <point x="195" y="294" type="line" smooth="yes"/>
      <point x="89" y="288"/>
      <point x="24" y="237"/>
      <point x="24" y="128" type="curve" smooth="yes"/>
      <point x="24" y="48"/>
      <point x="59" y="-10"/>
    </contour>
    <contour>
      <point x="132" y="15" type="curve" smooth="yes"/>
      <point x="79" y="15"/>
      <point x="52" y="61"/>
      <point x="52" y="127" type="curve" smooth="yes"/>
      <point x="52" y="216"/>
      <point x="95" y="264"/>
      <point x="191" y="269" type="curve" smooth="yes"/>
      <point x="230" y="271" type="line"/>
      <point x="230" y="200" type="line" smooth="yes"/>
      <point x="230" y="107"/>
      <point x="208" y="15"/>
    </contour>
    <contour>
      <point x="261" y="295" type="line"/>
      <point x="266" y="430"/>
      <point x="309" y="513"/>
      <point x="364" y="513" type="curve" smooth="yes"/>
      <point x="423" y="513"/>
      <point x="449" y="418"/>
      <point x="449" y="295" type="curve"/>
    </contour>
  </outline>
</glyph>
<glyph name="eth" format="2">
  <advance width="530"/>
  <unicode hex="00F0"/>
  <anchor x="250" y="0" name="bottom"/>
  <anchor x="250" y="264" name="center"/>
  <anchor x="250" y="757" name="top"/>
  <anchor x="480" y="760" name="topright"/>
  <outline>
    <contour>
      <point x="247" y="-10" type="curve" smooth="yes"/>
      <point x="371" y="-10"/>
      <point x="440" y="89"/>
      <point x="440" y="272" type="curve" smooth="yes"/>
      <point x="440" y="460"/>
      <point x="367" y="669"/>
      <point x="178" y="757" type="curve"/>
      <point x="162" y="740" type="line"/>
      <point x="289" y="676"/>
      <point x="377" y="543"/>
      <point x="403" y="390" type="curve"/>
      <point x="400" y="390" type="line"/>
      <point x="376" y="433"/>
      <point x="325" y="464"/>
      <point x="256" y="464" type="curve" smooth="yes"/>
      <point x="138" y="464"/>
      <point x="60" y="373"/>
      <point x="60" y="224" type="curve" smooth="yes"/>
      <point x="60" y="95"/>
      <point x="119" y="-10"/>
    </contour>
    <contour>
      <point x="245" y="15" type="curve" smooth="yes"/>
      <point x="147" y="15"/>
      <point x="86" y="97"/>
      <point x="86" y="225" type="curve" smooth="yes"/>
      <point x="86" y="357"/>
      <point x="151" y="439"/>
      <point x="259" y="439" type="curve" smooth="yes"/>
      <point x="366" y="439"/>
      <point x="413" y="358"/>
      <point x="413" y="243" type="curve" smooth="yes"/>
      <point x="413" y="112"/>
      <point x="352" y="15"/>
    </contour>
    <contour>
      <point x="159" y="602" type="line"/>
      <point x="380" y="734" type="line"/>
      <point x="368" y="755" type="line"/>
      <point x="147" y="622" type="line"/>
    </contour>
  </outline>
</glyph>
<glyph name="Hbar" format="2">
  <advance width="530"/>
  <unicode hex="0126"/>
  <anchor x="250" y="0" name="bottom"/>
  <anchor x="250" y="357" name="center"/>
  <anchor x="250" y="714" name="top"/>
  <anchor x="20" y="714" name="topleft"/>
  <outline>
    <contour>
      <point x="0" y="548" type="line"/>
      <point x="500" y="548" type="line"/>
      <point x="500" y="573" type="line"/>
      <point x="0" y="573" type="line"/>
    </contour>
    <contour>
      <point x="65" y="0" type="line"/>
      <point x="91" y="0" type="line"/>
      <point x="91" y="363" type="line"/>
      <point x="409" y="363" type="line"/>
      <point x="409" y="0" type="line"/>
      <point x="435" y="0" type="line"/>
      <point x="435" y="714" type="line"/>
      <point x="409" y="714" type="line"/>
      <point x="409" y="388" type="line"/>
      <point x="91" y="388" type="line"/>
      <point x="91" y="714" type="line"/>
      <point x="65" y="714" type="line"/>
    </contour>
  </outline>
</glyph>
<glyph name="idotless" format="2">
  <advance width="500"/>
  <unicode hex="0131"/>
  <anchor x="250" y="0" name="bottom"/>
  <anchor x="450" y="10" name="ogonek"/>
  <anchor x="250" y="528" name="top"/>
  <outline>
    <contour>
      <point x="82" y="0" type="line"/>
      <point x="432" y="0" type="line"/>
      <point x="432" y="21" type="line"/>
      <point x="275" y="25" type="line"/>
      <point x="275" y="528" type="line"/>
      <point x="100" y="528" type="line"/>
      <point x="100" y="507" type="line"/>
      <point x="249" y="503" type="line"/>
      <point x="249" y="25" type="line"/>
      <point x="82" y="21" type="line"/>
    </contour>
  </outline>
</glyph>
<glyph name="IJ" format="2">
  <advance width="530"/>
  <unicode hex="0132"/>
  <anchor x="250" y="0" name="bottom"/>
  <anchor x="0" y="0" name="caret_1"/>
  <anchor x="250" y="714" name="top"/>
  <anchor x="20" y="714" name="topleft"/>
  <outline>
    <contour>
      <point x="233" y="-15" type="curve" smooth="yes"/>
      <point x="343" y="-15"/>
      <point x="380" y="57"/>
      <point x="380" y="176" type="curve" smooth="yes"/>
      <point x="380" y="714" type="line"/>
      <point x="354" y="714" type="line"/>
      <point x="354" y="184" type="line" smooth="yes"/>
      <point x="354" y="67"/>
      <point x="323" y="9"/>
      <point x="234" y="9" type="curve" smooth="yes"/>
      <point x="180" y="9"/>
      <point x="130" y="36"/>
      <point x="110" y="55" type="curve"/>
      <point x="110" y="27" type="line"/>
      <point x="135" y="5"/>
      <point x="182" y="-15"/>
    </contour>
    <contour>
      <point x="110" y="147" type="line"/>
      <point x="136" y="147" type="line"/>
      <point x="136" y="714" type="line"/>
      <point x="110" y="714" type="line"/>
    </contour>
  </outline>
</glyph>
<glyph name="ij" format="2">
  <advance width="530"/>
  <unicode hex="0133"/>
  <anchor x="266" y="-248" name="bottom"/>
  <anchor x="0" y="0" name="caret_1"/>
  <anchor x="256" y="724" name="top"/>
  <outline>
    <contour>
      <point x="236" y="-248" type="curve" smooth="yes"/>
      <point x="321" y="-248"/>
      <point x="378" y="-196"/>
      <point x="378" y="-88" type="curve" smooth="yes"/>
      <point x="378" y="528" type="line"/>
      <point x="352" y="528" type="line"/>
      <point x="352" y="-81" type="line" smooth="yes"/>
      <point x="352" y="-168"/>
      <point x="314" y="-222"/>
      <point x="236" y="-222" type="curve" smooth="yes"/>
      <point x="198" y="-222"/>
      <point x="141" y="-210"/>
      <point x="122" y="-201" type="curve"/>
      <point x="122" y="-228" type="line"/>
      <point x="137" y="-234"/>
      <point x="189" y="-248"/>
    </contour>
    <contour>
      <point x="122" y="0" type="line"/>
      <point x="148" y="0" type="line"/>
      <point x="148" y="528" type="line"/>
      <point x="122" y="528" type="line"/>
    </contour>
    <contour>
      <point x="137" y="650" type="curve" smooth="yes"/>
      <point x="163" y="650"/>
      <point x="167" y="669"/>
      <point x="167" y="687" type="curve" smooth="yes"/>
      <point x="167" y="706"/>
      <point x="161" y="724"/>
      <point x="137" y="724" type="curve" smooth="yes"/>
      <point x="111" y="724"/>
      <point x="105" y="706"/>
      <point x="105" y="687" type="curve" smooth="yes"/>
      <point x="105" y="667"/>
      <point x="112" y="650"/>
    </contour>
    <contour>
      <point x="365" y="650" type="curve" smooth="yes"/>
      <point x="391" y="650"/>
      <point x="395" y="669"/>
      <point x="395" y="687" type="curve" smooth="yes"/>
      <point x="395" y="706"/>
      <point x="389" y="724"/>
      <point x="365" y="724" type="curve" smooth="yes"/>
      <point x="339" y="724"/>
      <point x="333" y="706"/>
      <point x="333" y="687" type="curve" smooth="yes"/>
      <point x="333" y="667"/>
      <point x="340" y="650"/>
    </contour>
  </outline>
</glyph>
<glyph name="Eng" format="2">
  <advance width="530"/>
  <unicode hex="014A"/>
  <anchor x="285" y="-175" name="bottom"/>
  <anchor x="255" y="714" name="top"/>
  <anchor x="500" y="714" name="topright"/>
  <outline>
    <contour>
      <point x="312" y="-175" type="curve" smooth="yes"/>
      <point x="393" y="-175"/>
      <point x="435" y="-125"/>
      <point x="435" y="-2" type="curve" smooth="yes"/>
      <point x="435" y="42" type="line"/>
      <point x="410" y="42" type="line"/>
      <point x="410" y="0" type="line" smooth="yes"/>
      <point x="410" y="-106"/>
      <point x="378" y="-150"/>
      <point x="310" y="-150" type="curve" smooth="yes"/>
      <point x="287" y="-150"/>
      <point x="260" y="-144"/>
      <point x="243" y="-137" type="curve"/>
      <point x="243" y="-162" type="line"/>
      <point x="257" y="-169"/>
      <point x="286" y="-175"/>
    </contour>
    <component base="N"/>
  </outline>
</glyph>
<glyph name="oe" format="2">
  <advance width="530"/>
  <unicode hex="0153"/>
  <anchor x="250" y="0" name="bottom"/>
  <anchor x="250" y="528" name="top"/>
  <outline>
    <contour>
      <point x="143" y="-10" type="curve" smooth="yes"/>
      <point x="210" y="-10"/>
      <point x="247" y="50"/>
      <point x="260" y="145" type="curve"/>
      <point x="275" y="43"/>
      <point x="311" y="-10"/>
      <point x="386" y="-10" type="curve" smooth="yes"/>
      <point x="419" y="-10"/>
      <point x="444" y="-2"/>
      <point x="470" y="17" type="curve"/>
      <point x="470" y="43" type="line"/>
      <point x="436" y="20"/>
      <point x="420" y="13"/>
      <point x="388" y="13" type="curve" smooth="yes"/>
      <point x="306" y="13"/>
      <point x="275" y="103"/>
      <point x="275" y="268" type="curve"/>
      <point x="475" y="268" type="line"/>
      <point x="475" y="296" type="line" smooth="yes"/>
      <point x="475" y="426"/>
      <point x="447" y="537"/>
      <point x="369" y="537" type="curve" smooth="yes"/>
      <point x="307" y="537"/>
      <point x="274" y="464"/>
      <point x="261" y="373" type="curve"/>
      <point x="250" y="469"/>
      <point x="214" y="537"/>
      <point x="146" y="537" type="curve" smooth="yes"/>
      <point x="67" y="537"/>
      <point x="21" y="446"/>
      <point x="21" y="256" type="curve" smooth="yes"/>
      <point x="21" y="95"/>
      <point x="54" y="-10"/>
    </contour>
    <contour>
      <point x="144" y="14" type="curve" smooth="yes"/>
      <point x="77" y="14"/>
      <point x="47" y="113"/>
      <point x="47" y="264" type="curve" smooth="yes"/>
      <point x="47" y="421"/>
      <point x="80" y="513"/>
      <point x="145" y="513" type="curve" smooth="yes"/>
      <point x="218" y="513"/>
      <point x="246" y="400"/>
      <point x="246" y="265" type="curve" smooth="yes"/>
      <point x="246" y="124"/>
      <point x="215" y="14"/>
    </contour>
    <contour>
      <point x="275" y="294" type="line"/>
      <point x="275" y="385"/>
      <point x="305" y="513"/>
      <point x="369" y="513" type="curve" smooth="yes"/>
      <point x="423" y="513"/>
      <point x="448" y="423"/>
      <point x="448" y="294" type="curve"/>
    </contour>
  </outline>
</glyph>
<glyph name="longs" format="2">
  <advance width="530"/>
  <unicode hex="017F"/>
  <anchor x="250" y="0" name="bottom"/>
  <anchor x="355" y="765" name="top"/>
  <outline>
    <contour>
      <point x="231" y="0" type="line"/>
      <point x="257" y="0" type="line"/>
      <point x="257" y="582" type="line" smooth="yes"/>
      <point x="257" y="696"/>
      <point x="300" y="741"/>
      <point x="381" y="741" type="curve" smooth="yes"/>
      <point x="402" y="741"/>
      <point x="424" y="738"/>
      <point x="441" y="732" type="curve"/>
      <point x="445" y="757" type="line"/>
      <point x="427" y="762"/>
      <point x="403" y="765"/>
      <point x="381" y="765" type="curve" smooth="yes"/>
      <point x="275" y="765"/>
      <point x="231" y="698"/>
      <point x="231" y="585" type="curve" smooth="yes"/>
    </contour>
  </outline>
</glyph>
<glyph name="uni0187" format="2">
  <advance width="530"/>
  <unicode hex="0187"/>
  <anchor x="320" y="0" name="bottom"/>
  <anchor x="320" y="854" name="top"/>
  <anchor x="480" y="714" name="topright"/>
  <outline>
    <contour>
      <point x="443" y="692" type="line"/>
      <point x="467" y="692" type="line"/>
      <point x="467" y="772" type="line" smooth="yes"/>
      <point x="467" y="818"/>
      <point x="481" y="830"/>
      <point x="503" y="830" type="curve" smooth="yes"/>
      <point x="520" y="830"/>
      <point x="532" y="823"/>
      <point x="537" y="819" type="curve"/>
      <point x="537" y="845" type="line"/>
      <point x="527" y="851"/>
      <point x="516" y="854"/>
      <point x="502" y="854" type="curve" smooth="yes"/>
      <point x="464" y="854"/>
      <point x="443" y="833"/>
      <point x="443" y="770" type="curve" smooth="yes"/>
    </contour>
    <component base="C"/>
  </outline>
</glyph>
<glyph name="uni0188" format="2">
  <advance width="530"/>
  <unicode hex="0188"/>
  <anchor x="250" y="0" name="bottom"/>
  <anchor x="250" y="769" name="top"/>
  <anchor x="480" y="528" name="topright"/>
  <outline>
    <contour>
      <point x="395" y="517" type="line"/>
      <point x="420" y="517" type="line"/>
      <point x="420" y="685" type="line" smooth="yes"/>
      <point x="420" y="734"/>
      <point x="434" y="746"/>
      <point x="459" y="746" type="curve" smooth="yes"/>
      <point x="470" y="746"/>
      <point x="478" y="744"/>
      <point x="490" y="737" type="curve"/>
      <point x="490" y="761" type="line"/>
      <point x="481" y="766"/>
      <point x="470" y="769"/>
      <point x="456" y="769" type="curve" smooth="yes"/>
      <point x="413" y="769"/>
      <point x="395" y="742"/>
      <point x="395" y="680" type="curve" smooth="yes"/>
    </contour>
    <component base="c"/>
  </outline>
</glyph>
<glyph name="uni018A" format="2">
  <advance width="530"/>
  <unicode hex="018A"/>
  <anchor x="250" y="0" name="bottom"/>
  <anchor x="250" y="714" name="top"/>
  <outline>
    <contour>
      <point x="110" y="0" type="line"/>
      <point x="202" y="0" type="line" smooth="yes"/>
      <point x="383" y="0"/>
      <point x="458" y="123"/>
      <point x="458" y="362" type="curve" smooth="yes"/>
      <point x="458" y="595"/>
      <point x="383" y="714"/>
      <point x="203" y="714" type="curve" smooth="yes"/>
      <point x="110" y="714" type="line"/>
    </contour>
    <contour>
      <point x="136" y="25" type="line"/>
      <point x="136" y="689" type="line"/>
      <point x="198" y="689" type="line" smooth="yes"/>
      <point x="375" y="689"/>
      <point x="431" y="569"/>
      <point x="431" y="360" type="curve" smooth="yes"/>
      <point x="431" y="140"/>
      <point x="366" y="25"/>
      <point x="197" y="25" type="curve" smooth="yes"/>
    </contour>
    <contour>
      <point x="16" y="544" type="curve"/>
      <point x="42" y="544" type="line"/>
      <point x="40" y="556"/>
      <point x="36" y="577"/>
      <point x="36" y="596" type="curve" smooth="yes"/>
      <point x="36" y="654"/>
      <point x="64" y="689"/>
      <point x="108" y="689" type="curve" smooth="yes"/>
      <point x="118" y="689" type="line"/>
      <point x="118" y="714" type="line"/>
      <point x="106" y="714" type="line" smooth="yes"/>
      <point x="44" y="714"/>
      <point x="10" y="665"/>
      <point x="10" y="595" type="curve" smooth="yes"/>
      <point x="10" y="579"/>
      <point x="12" y="559"/>
    </contour>
  </outline>
</glyph>
<glyph name="uni018B" format="2">
  <advance width="530"/>
  <unicode hex="018B"/>
  <anchor x="250" y="0" name="bottom"/>
  <anchor x="244" y="714" name="top"/>
  <anchor x="0" y="0" name="topright"/>
  <outline>
    <contour>
      <point x="82" y="689" type="line"/>
      <point x="393" y="689" type="line"/>
      <point x="393" y="714" type="line"/>
      <point x="82" y="714" type="line"/>
    </contour>
    <component base="P" xScale="-1" yScale="-1" xOffset="500" yOffset="714"/>
  </outline>
</glyph>
<glyph name="uni018C" format="2">
  <advance width="530"/>
  <unicode hex="018C"/>
  <anchor x="250" y="0" name="bottom"/>
  <anchor x="256" y="760" name="top"/>
  <anchor x="480" y="760" name="topright"/>
  <anchor x="250" y="264" name="center"/>
  <outline>
    <contour>
      <point x="106" y="735" type="line"/>
      <point x="400" y="735" type="line"/>
      <point x="400" y="760" type="line"/>
      <point x="106" y="760" type="line"/>
    </contour>
    <component base="d"/>
  </outline>
</glyph>
<glyph name="florin" format="2">
  <advance width="530"/>
  <unicode hex="0192"/>
  <anchor x="228" y="-240" name="bottom"/>
  <anchor x="321" y="724" name="top"/>
  <outline>
    <contour>
      <point x="127" y="-240" type="curve" smooth="yes"/>
      <point x="211" y="-240"/>
      <point x="241" y="-176"/>
      <point x="241" y="-83" type="curve" smooth="yes"/>
      <point x="241" y="422" type="line"/>
      <point x="358" y="422" type="line"/>
      <point x="358" y="447" type="line"/>
      <point x="241" y="447" type="line"/>
      <point x="241" y="543" type="line" smooth="yes"/>
      <point x="241" y="652"/>
      <point x="270" y="700"/>
      <point x="341" y="700" type="curve" smooth="yes"/>
      <point x="367" y="700"/>
      <point x="389" y="696"/>
      <point x="408" y="687" type="curve"/>
      <point x="416" y="711" type="line"/>
      <point x="392" y="721"/>
      <point x="369" y="724"/>
      <point x="342" y="724" type="curve" smooth="yes"/>
      <point x="252" y="724"/>
      <point x="215" y="660"/>
      <point x="215" y="547" type="curve" smooth="yes"/>
      <point x="215" y="447" type="line"/>
      <point x="100" y="443" type="line"/>
      <point x="100" y="422" type="line"/>
      <point x="215" y="422" type="line"/>
      <point x="215" y="-86" type="line" smooth="yes"/>
      <point x="215" y="-170"/>
      <point x="189" y="-215"/>
      <point x="127" y="-215" type="curve" smooth="yes"/>
      <point x="106" y="-215"/>
      <point x="86" y="-211"/>
      <point x="66" y="-205" type="curve"/>
      <point x="66" y="-232" type="line"/>
      <point x="82" y="-236"/>
      <point x="102" y="-240"/>
    </contour>
  </outline>
</glyph>
<glyph name="uni019C" format="2">
  <advance width="530"/>
  <unicode hex="019C"/>
  <anchor x="250" y="0" name="bottom"/>
  <anchor x="250" y="357" name="center"/>
  <anchor x="250" y="714" name="top"/>
  <anchor x="20" y="714" name="topleft"/>
  <outline>
    <contour>
      <point x="135" y="-9" type="curve" smooth="yes"/>
      <point x="196" y="-9"/>
      <point x="228" y="27"/>
      <point x="242" y="68" type="curve"/>
      <point x="245" y="68" type="line"/>
      <point x="251" y="32"/>
      <point x="275" y="-9"/>
      <point x="337" y="-9" type="curve" smooth="yes"/>
      <point x="400" y="-9"/>
      <point x="426" y="36"/>
      <point x="436" y="71" type="curve"/>
      <point x="438" y="71" type="line"/>
      <point x="441" y="0" type="line"/>
      <point x="460" y="0" type="line"/>
      <point x="460" y="714" type="line"/>
      <point x="434" y="714" type="line"/>
      <point x="434" y="162" type="line" smooth="yes"/>
      <point x="434" y="88"/>
      <point x="401" y="15"/>
      <point x="339" y="15" type="curve" smooth="yes"/>
      <point x="297" y="15"/>
      <point x="262" y="31"/>
      <point x="262" y="144" type="curve" smooth="yes"/>
      <point x="262" y="714" type="line"/>
      <point x="236" y="714" type="line"/>
      <point x="236" y="162" type="line" smooth="yes"/>
      <point x="236" y="70"/>
      <point x="198" y="15"/>
      <point x="138" y="15" type="curve" smooth="yes"/>
      <point x="98" y="15"/>
      <point x="66" y="35"/>
      <point x="66" y="127" type="curve" smooth="yes"/>
      <point x="66" y="714" type="line"/>
      <point x="40" y="714" type="line"/>
      <point x="40" y="125" type="line" smooth="yes"/>
      <point x="40" y="23"/>
      <point x="76" y="-9"/>
    </contour>
  </outline>
</glyph>
<glyph name="uni01A5" format="2">
  <advance width="530"/>
  <unicode hex="01A5"/>
  <anchor x="270" y="-240" name="bottom"/>
  <anchor x="270" y="766" name="top"/>
  <outline>
    <contour>
      <point x="85" y="-240" type="line"/>
      <point x="111" y="-240" type="line"/>
      <point x="111" y="11" type="line" smooth="yes"/>
      <point x="111" y="48"/>
      <point x="111" y="83"/>
      <point x="109" y="112" type="curve"/>
      <point x="112" y="112" type="line"/>
      <point x="129" y="50"/>
      <point x="172" y="-10"/>
      <point x="258" y="-10" type="curve" smooth="yes"/>
      <point x="371" y="-10"/>
      <point x="440" y="83"/>
      <point x="440" y="270" type="curve" smooth="yes"/>
      <point x="440" y="448"/>
      <point x="380" y="537"/>
      <point x="265" y="537" type="curve" smooth="yes"/>
      <point x="173" y="537"/>
      <point x="129" y="472"/>
      <point x="109" y="403" type="curve"/>
      <point x="107" y="403" type="line"/>
      <point x="110" y="444"/>
      <point x="111" y="486"/>
      <point x="111" y="527" type="curve" smooth="yes"/>
      <point x="111" y="666" type="line" smooth="yes"/>
      <point x="111" y="717"/>
      <point x="134" y="741"/>
      <point x="166" y="741" type="curve" smooth="yes"/>
      <point x="181" y="741"/>
      <point x="193" y="738"/>
      <point x="204" y="732" type="curve"/>
      <point x="204" y="758" type="line"/>
      <point x="196" y="762"/>
      <point x="183" y="766"/>
      <point x="164" y="766" type="curve" smooth="yes"/>
      <point x="122" y="766"/>
      <point x="85" y="741"/>
      <point x="85" y="669" type="curve" smooth="yes"/>
    </contour>
    <contour>
      <point x="259" y="15" type="curve" smooth="yes"/>
      <point x="171" y="15"/>
      <point x="111" y="95"/>
      <point x="111" y="241" type="curve" smooth="yes"/>
      <point x="111" y="279" type="line" smooth="yes"/>
      <point x="111" y="419"/>
      <point x="165" y="512"/>
      <point x="264" y="512" type="curve" smooth="yes"/>
      <point x="364" y="512"/>
      <point x="414" y="429"/>
      <point x="414" y="270" type="curve" smooth="yes"/>
      <point x="414" y="90"/>
      <point x="350" y="15"/>
    </contour>
  </outline>
</glyph>
<glyph name="uni01BA" format="2">
  <advance width="530"/>
  <unicode hex="01BA"/>
  <anchor x="250" y="-240" name="bottom"/>
  <anchor x="250" y="528" name="top"/>
  <outline>
    <contour>
      <point x="230" y="-240" type="curve" smooth="yes"/>
      <point x="304" y="-240"/>
      <point x="363" y="-228"/>
      <point x="400" y="-215" type="curve"/>
      <point x="400" y="-189" type="line"/>
      <point x="348" y="-206"/>
      <point x="297" y="-215"/>
      <point x="230" y="-215" type="curve" smooth="yes"/>
      <point x="135" y="-215"/>
      <point x="87" y="-184"/>
      <point x="87" y="-125" type="curve" smooth="yes"/>
      <point x="87" y="-66"/>
      <point x="118" y="-33"/>
      <point x="221" y="-24" type="curve" smooth="yes"/>
      <point x="344" y="-13"/>
      <point x="416" y="24"/>
      <point x="416" y="139" type="curve" smooth="yes"/>
      <point x="416" y="272"/>
      <point x="301" y="288"/>
      <point x="184" y="288" type="curve"/>
      <point x="400" y="509" type="line"/>
      <point x="400" y="528" type="line"/>
      <point x="84" y="528" type="line"/>
      <point x="84" y="503" type="line"/>
      <point x="358" y="503" type="line"/>
      <point x="150" y="288" type="line"/>
      <point x="150" y="263" type="line"/>
      <point x="186" y="263" type="line" smooth="yes"/>
      <point x="294" y="263"/>
      <point x="389" y="250"/>
      <point x="389" y="139" type="curve" smooth="yes"/>
      <point x="389" y="40"/>
      <point x="328" y="12"/>
      <point x="221" y="1" type="curve" smooth="yes"/>
      <point x="109" y="-10"/>
      <point x="59" y="-48"/>
      <point x="59" y="-123" type="curve" smooth="yes"/>
      <point x="59" y="-198"/>
      <point x="116" y="-240"/>
    </contour>
  </outline>
</glyph>
<glyph name="uni01F7" format="2">
  <advance width="530"/>
  <unicode hex="01F7"/>
  <anchor x="256" y="-240" name="bottom"/>
  <anchor x="256" y="714" name="top"/>
  <outline>
    <contour>
      <point x="78" y="-232" type="line"/>
      <point x="104" y="-232" type="line"/>
      <point x="104" y="1" type="line"/>
      <point x="255" y="40"/>
      <point x="449" y="193"/>
      <point x="449" y="462" type="curve" smooth="yes"/>
      <point x="449" y="617"/>
      <point x="393" y="724"/>
      <point x="266" y="724" type="curve" smooth="yes"/>
      <point x="177" y="724"/>
      <point x="130" y="678"/>
      <point x="105" y="626" type="curve"/>
      <point x="102" y="626" type="line"/>
      <point x="98" y="714" type="line"/>
      <point x="78" y="714" type="line"/>
    </contour>
    <contour>
      <point x="104" y="27" type="curve"/>
      <point x="104" y="521" type="line" smooth="yes"/>
      <point x="104" y="643"/>
      <point x="176" y="699"/>
      <point x="266" y="699" type="curve" smooth="yes"/>
      <point x="371" y="699"/>
      <point x="422" y="603"/>
      <point x="422" y="463" type="curve" smooth="yes"/>
      <point x="422" y="208"/>
      <point x="244" y="67"/>
    </contour>
  </outline>
</glyph>
<glyph name="uni0224" format="2">
  <advance width="530"/>
  <unicode hex="0224"/>
  <anchor x="292" y="-240" name="bottom"/>
  <anchor x="264" y="714" name="top"/>
  <anchor x="480" y="714" name="topright"/>
  <outline>
    <contour>
      <point x="365" y="-170" type="curve" smooth="yes"/>
      <point x="412" y="-170"/>
      <point x="435" y="-142"/>
      <point x="435" y="-89" type="curve" smooth="yes"/>
      <point x="435" y="25" type="line"/>
      <point x="398" y="25" type="line"/>
      <point x="398" y="0" type="line"/>
      <point x="412" y="0" type="line"/>
      <point x="412" y="-85" type="line" smooth="yes"/>
      <point x="412" y="-129"/>
      <point x="395" y="-148"/>
      <point x="365" y="-148" type="curve" smooth="yes"/>
      <point x="352" y="-148"/>
      <point x="340" y="-145"/>
      <point x="325" y="-139" type="curve"/>
      <point x="325" y="-162" type="line"/>
      <point x="338" y="-167"/>
      <point x="350" y="-170"/>
    </contour>
    <component base="Z"/>
  </outline>
</glyph>
<glyph name="uni0247" format="2">
  <advance width="530"/>
  <unicode hex="0247"/>
  <anchor x="250" y="-188" name="bottom"/>
  <anchor x="250" y="760" name="top"/>
  <anchor x="267" y="10" name="ogonek"/>
  <anchor x="480" y="528" name="topright"/>
  <outline>
    <contour>
      <point x="128" y="-188" type="line"/>
      <point x="155" y="-188" type="line"/>
      <point x="364" y="760" type="line"/>
      <point x="337" y="760" type="line"/>
    </contour>
    <component base="e"/>
  </outline>
</glyph>
<glyph name="uni024A" format="2">
  <advance width="530"/>
  <unicode hex="024A"/>
  <anchor x="250" y="-241" name="bottom"/>
  <anchor x="250" y="714" name="top"/>
  <outline>
    <contour>
      <point x="498" y="-241" type="curve" smooth="yes"/>
      <point x="518" y="-241"/>
      <point x="537" y="-236"/>
      <point x="551" y="-228" type="curve"/>
      <point x="551" y="-202" type="line"/>
      <point x="535" y="-208"/>
      <point x="517" y="-216"/>
      <point x="498" y="-216" type="curve" smooth="yes"/>
      <point x="453" y="-216"/>
      <point x="435" y="-184"/>
      <point x="435" y="-91" type="curve" smooth="yes"/>
      <point x="435" y="142" type="line"/>
      <point x="411" y="148" type="line"/>
      <point x="410" y="128"/>
      <point x="409" y="90"/>
      <point x="409" y="58" type="curve" smooth="yes"/>
      <point x="409" y="-97" type="line" smooth="yes"/>
      <point x="409" y="-204"/>
      <point x="437" y="-241"/>
    </contour>
    <component base="uni2C6D"/>
  </outline>
</glyph>
<glyph name="uni024B" format="2">
  <advance width="530"/>
  <unicode hex="024B"/>
  <anchor x="240" y="-241" name="bottom"/>
  <anchor x="240" y="528" name="top"/>
  <outline>
    <contour>
      <point x="482" y="-241" type="curve" smooth="yes"/>
      <point x="503" y="-241"/>
      <point x="519" y="-236"/>
      <point x="531" y="-230" type="curve"/>
      <point x="531" y="-205" type="line"/>
      <point x="519" y="-211"/>
      <point x="503" y="-216"/>
      <point x="483" y="-216" type="curve" smooth="yes"/>
      <point x="435" y="-216"/>
      <point x="415" y="-184"/>
      <point x="415" y="-91" type="curve" smooth="yes"/>
      <point x="415" y="528" type="line"/>
      <point x="394" y="528" type="line"/>
      <point x="390" y="426" type="line"/>
      <point x="388" y="426" type="line"/>
      <point x="371" y="488"/>
      <point x="323" y="537"/>
      <point x="243" y="537" type="curve" smooth="yes"/>
      <point x="118" y="537"/>
      <point x="60" y="425"/>
      <point x="60" y="261" type="curve" smooth="yes"/>
      <point x="60" y="83"/>
      <point x="121" y="-11"/>
      <point x="233" y="-11" type="curve" smooth="yes"/>
      <point x="315" y="-11"/>
      <point x="368" y="43"/>
      <point x="389" y="116" type="curve"/>
      <point x="391" y="116" type="line"/>
      <point x="390" y="85"/>
      <point x="389" y="40"/>
      <point x="389" y="17" type="curve" smooth="yes"/>
      <point x="389" y="-97" type="line" smooth="yes"/>
      <point x="389" y="-204"/>
      <point x="418" y="-241"/>
    </contour>
    <contour>
      <point x="233" y="15" type="curve" smooth="yes"/>
      <point x="141" y="15"/>
      <point x="87" y="95"/>
      <point x="87" y="261" type="curve" smooth="yes"/>
      <point x="87" y="420"/>
      <point x="141" y="511"/>
      <point x="243" y="511" type="curve" smooth="yes"/>
      <point x="337" y="511"/>
      <point x="389" y="434"/>
      <point x="389" y="299" type="curve" smooth="yes"/>
      <point x="389" y="239" type="line" smooth="yes"/>
      <point x="389" y="104"/>
      <point x="334" y="15"/>
    </contour>
  </outline>
</glyph>
<glyph name="uni0256" format="2">
  <advance width="530"/>
  <unicode hex="0256"/>
  <anchor x="250" y="-240" name="bottom"/>
  <anchor x="250" y="760" name="top"/>
  <outline>
    <contour>
      <point x="487" y="-240" type="curve" smooth="yes"/>
      <point x="507" y="-240"/>
      <point x="524" y="-236"/>
      <point x="534" y="-232" type="curve"/>
      <point x="534" y="-206" type="line"/>
      <point x="522" y="-211"/>
      <point x="508" y="-215"/>
      <point x="489" y="-215" type="curve" smooth="yes"/>
      <point x="442" y="-215"/>
      <point x="415" y="-186"/>
      <point x="415" y="-117" type="curve" smooth="yes"/>
      <point x="415" y="760" type="line"/>
      <point x="389" y="760" type="line"/>
      <point x="389" y="520" type="line" smooth="yes"/>
      <point x="389" y="488"/>
      <point x="390" y="456"/>
      <point x="391" y="421" type="curve"/>
      <point x="389" y="421" type="line"/>
      <point x="373" y="481"/>
      <point x="324" y="538"/>
      <point x="240" y="538" type="curve" smooth="yes"/>
      <point x="126" y="538"/>
      <point x="60" y="439"/>
      <point x="60" y="258" type="curve" smooth="yes"/>
      <point x="60" y="83"/>
      <point x="118" y="-10"/>
      <point x="233" y="-10" type="curve" smooth="yes"/>
      <point x="322" y="-10"/>
      <point x="372" y="52"/>
      <point x="389" y="114" type="curve"/>
      <point x="391" y="114" type="line"/>
      <point x="390" y="85"/>
      <point x="389" y="47"/>
      <point x="389" y="18" type="curve" smooth="yes"/>
      <point x="389" y="-122" type="line" smooth="yes"/>
      <point x="389" y="-204"/>
      <point x="426" y="-240"/>
    </contour>
    <contour>
      <point x="234" y="15" type="curve" smooth="yes"/>
      <point x="134" y="15"/>
      <point x="87" y="99"/>
      <point x="87" y="258" type="curve" smooth="yes"/>
      <point x="87" y="426"/>
      <point x="142" y="513"/>
      <point x="240" y="513" type="curve" smooth="yes"/>
      <point x="331" y="513"/>
      <point x="389" y="434"/>
      <point x="389" y="291" type="curve" smooth="yes"/>
      <point x="389" y="242" type="line" smooth="yes"/>
      <point x="389" y="102"/>
      <point x="334" y="15"/>
    </contour>
  </outline>
</glyph>
<glyph name="uni0257" format="2">
  <advance width="530"/>
  <unicode hex="0257"/>
  <anchor x="250" y="0" name="bottom"/>
  <anchor x="250" y="765" name="top"/>
  <outline>
    <contour>
      <point x="232" y="-10" type="curve" smooth="yes"/>
      <point x="326" y="-10"/>
      <point x="371" y="49"/>
      <point x="389" y="110" type="curve"/>
      <point x="391" y="110" type="line"/>
      <point x="394" y="0" type="line"/>
      <point x="415" y="0" type="line"/>
      <point x="415" y="665" type="line" smooth="yes"/>
      <point x="415" y="716"/>
      <point x="428" y="740"/>
      <point x="460" y="740" type="curve" smooth="yes"/>
      <point x="471" y="740"/>
      <point x="480" y="738"/>
      <point x="491" y="733" type="curve"/>
      <point x="491" y="759" type="line"/>
      <point x="483" y="762"/>
      <point x="473" y="765"/>
      <point x="458" y="765" type="curve" smooth="yes"/>
      <point x="416" y="765"/>
      <point x="389" y="740"/>
      <point x="389" y="668" type="curve" smooth="yes"/>
      <point x="389" y="520" type="line" smooth="yes"/>
      <point x="389" y="488"/>
      <point x="390" y="457"/>
      <point x="391" y="422" type="curve"/>
      <point x="389" y="422" type="line"/>
      <point x="373" y="482"/>
      <point x="325" y="538"/>
      <point x="238" y="538" type="curve" smooth="yes"/>
      <point x="124" y="538"/>
      <point x="60" y="439"/>
      <point x="60" y="255" type="curve" smooth="yes"/>
      <point x="60" y="83"/>
      <point x="116" y="-10"/>
    </contour>
    <contour>
      <point x="233" y="15" type="curve" smooth="yes"/>
      <point x="132" y="15"/>
      <point x="87" y="99"/>
      <point x="87" y="255" type="curve" smooth="yes"/>
      <point x="87" y="426"/>
      <point x="140" y="513"/>
      <point x="239" y="513" type="curve" smooth="yes"/>
      <point x="339" y="513"/>
      <point x="389" y="429"/>
      <point x="389" y="291" type="curve" smooth="yes"/>
      <point x="389" y="242" type="line" smooth="yes"/>
      <point x="389" y="102"/>
      <point x="343" y="15"/>
    </contour>
  </outline>
</glyph>
<glyph name="uni025E" format="2">
  <advance width="530"/>
  <unicode hex="025E"/>
  <anchor x="250" y="0" name="bottom"/>
  <anchor x="250" y="528" name="top"/>
  <outline>
    <contour>
      <point x="259" y="-10" type="curve" smooth="yes"/>
      <point x="381" y="-10"/>
      <point x="440" y="55"/>
      <point x="440" y="144" type="curve" smooth="yes"/>
      <point x="440" y="217"/>
      <point x="402" y="261"/>
      <point x="333" y="281" type="curve"/>
      <point x="333" y="284" type="line"/>
      <point x="390" y="301"/>
      <point x="422" y="345"/>
      <point x="422" y="407" type="curve" smooth="yes"/>
      <point x="422" y="490"/>
      <point x="364" y="538"/>
      <point x="268" y="538" type="curve" smooth="yes"/>
      <point x="127" y="538"/>
      <point x="62" y="436"/>
      <point x="62" y="259" type="curve" smooth="yes"/>
      <point x="62" y="86"/>
      <point x="120" y="-10"/>
    </contour>
    <contour>
      <point x="259" y="15" type="curve" smooth="yes"/>
      <point x="134" y="15"/>
      <point x="88" y="107"/>
      <point x="88" y="260" type="curve" smooth="yes"/>
      <point x="88" y="417"/>
      <point x="140" y="513"/>
      <point x="268" y="513" type="curve" smooth="yes"/>
      <point x="352" y="513"/>
      <point x="395" y="471"/>
      <point x="395" y="406" type="curve" smooth="yes"/>
      <point x="395" y="334"/>
      <point x="349" y="294"/>
      <point x="252" y="294" type="curve" smooth="yes"/>
      <point x="224" y="294" type="line"/>
      <point x="224" y="269" type="line"/>
      <point x="255" y="269" type="line" smooth="yes"/>
      <point x="355" y="269"/>
      <point x="413" y="229"/>
      <point x="413" y="145" type="curve" smooth="yes"/>
      <point x="413" y="65"/>
      <point x="360" y="15"/>
    </contour>
  </outline>
</glyph>
<glyph name="uni0262" format="2">
  <advance width="530"/>
  <unicode hex="0262"/>
  <anchor x="280" y="0" name="bottom"/>
  <anchor x="280" y="528" name="top"/>
  <outline>
    <contour>
      <point x="289" y="-9" type="curve" smooth="yes"/>
      <point x="344" y="-9"/>
      <point x="386" y="0"/>
      <point x="423" y="15" type="curve"/>
      <point x="423" y="262" type="line"/>
      <point x="266" y="262" type="line"/>
      <point x="266" y="237" type="line"/>
      <point x="397" y="237" type="line"/>
      <point x="397" y="32" type="line"/>
      <point x="367" y="23"/>
      <point x="336" y="16"/>
      <point x="293" y="16" type="curve" smooth="yes"/>
      <point x="144" y="16"/>
      <point x="78" y="113"/>
      <point x="78" y="263" type="curve" smooth="yes"/>
      <point x="78" y="419"/>
      <point x="158" y="514"/>
      <point x="293" y="514" type="curve" smooth="yes"/>
      <point x="341" y="514"/>
      <point x="377" y="505"/>
      <point x="406" y="489" type="curve"/>
      <point x="416" y="513" type="line"/>
      <point x="384" y="530"/>
      <point x="346" y="539"/>
      <point x="295" y="539" type="curve" smooth="yes"/>
      <point x="137" y="539"/>
      <point x="52" y="428"/>
      <point x="52" y="264" type="curve" smooth="yes"/>
      <point x="52" y="96"/>
      <point x="133" y="-9"/>
    </contour>
  </outline>
</glyph>
<glyph name="uni0267" format="2">
  <advance width="530"/>
  <unicode hex="0267"/>
  <anchor x="250" y="-241" name="bottom"/>
  <anchor x="250" y="264" name="center"/>
  <anchor x="146" y="760" name="top"/>
  <outline>
    <contour>
      <point x="325" y="-241" type="curve" smooth="yes"/>
      <point x="377" y="-241"/>
      <point x="420" y="-211"/>
      <point x="420" y="-126" type="curve" smooth="yes"/>
      <point x="420" y="356" type="line" smooth="yes"/>
      <point x="420" y="479"/>
      <point x="366" y="538"/>
      <point x="271" y="538" type="curve" smooth="yes"/>
      <point x="176" y="538"/>
      <point x="129" y="478"/>
      <point x="111" y="421" type="curve"/>
      <point x="109" y="421" type="line"/>
      <point x="110" y="446"/>
      <point x="111" y="464"/>
      <point x="111" y="494" type="curve" smooth="yes"/>
      <point x="111" y="653" type="line" smooth="yes"/>
      <point x="111" y="709"/>
      <point x="130" y="740"/>
      <point x="173" y="740" type="curve" smooth="yes"/>
      <point x="188" y="740"/>
      <point x="203" y="738"/>
      <point x="219" y="731" type="curve"/>
      <point x="219" y="757" type="line"/>
      <point x="207" y="761"/>
      <point x="192" y="765"/>
      <point x="172" y="765" type="curve" smooth="yes"/>
      <point x="122" y="765"/>
      <point x="85" y="733"/>
      <point x="85" y="656" type="curve" smooth="yes"/>
      <point x="85" y="0" type="line"/>
      <point x="111" y="0" type="line"/>
      <point x="111" y="300" type="line" smooth="yes"/>
      <point x="111" y="447"/>
      <point x="180" y="513"/>
      <point x="270" y="513" type="curve" smooth="yes"/>
      <point x="346" y="513"/>
      <point x="394" y="467"/>
      <point x="394" y="353" type="curve" smooth="yes"/>
      <point x="394" y="-124" type="line" smooth="yes"/>
      <point x="394" y="-188"/>
      <point x="368" y="-216"/>
      <point x="325" y="-216" type="curve" smooth="yes"/>
      <point x="311" y="-216"/>
      <point x="295" y="-214"/>
      <point x="280" y="-207" type="curve"/>
      <point x="280" y="-233" type="line"/>
      <point x="292" y="-238"/>
      <point x="307" y="-241"/>
    </contour>
  </outline>
</glyph>
<glyph name="uni026A" format="2">
  <advance width="530"/>
  <unicode hex="026A"/>
  <anchor x="250" y="0" name="bottom"/>
  <anchor x="250" y="528" name="top"/>
  <outline>
    <contour>
      <point x="120" y="0" type="line"/>
      <point x="380" y="0" type="line"/>
      <point x="380" y="20" type="line"/>
      <point x="263" y="23" type="line"/>
      <point x="263" y="504" type="line"/>
      <point x="380" y="508" type="line"/>
      <point x="380" y="528" type="line"/>
      <point x="120" y="528" type="line"/>
      <point x="120" y="508" type="line"/>
      <point x="237" y="504" type="line"/>
      <point x="237" y="23" type="line"/>
      <point x="120" y="20" type="line"/>
    </contour>
  </outline>
</glyph>
<glyph name="uni027D" format="2">
  <advance width="530"/>
  <unicode hex="027D"/>
  <anchor x="276" y="-240" name="bottom"/>
  <anchor x="252" y="528" name="top"/>
  <outline>
    <contour>
      <point x="293" y="-242" type="curve" smooth="yes"/>
      <point x="312" y="-242"/>
      <point x="329" y="-238"/>
      <point x="339" y="-233" type="curve"/>
      <point x="339" y="-208" type="line"/>
      <point x="328" y="-213"/>
      <point x="310" y="-217"/>
      <point x="295" y="-217" type="curve" smooth="yes"/>
      <point x="251" y="-217"/>
      <point x="238" y="-193"/>
      <point x="238" y="-142" type="curve" smooth="yes"/>
      <point x="238" y="303" type="line" smooth="yes"/>
      <point x="238" y="434"/>
      <point x="288" y="510"/>
      <point x="381" y="510" type="curve" smooth="yes"/>
      <point x="405" y="510"/>
      <point x="434" y="505"/>
      <point x="456" y="497" type="curve"/>
      <point x="462" y="523" type="line"/>
      <point x="443" y="530"/>
      <point x="409" y="536"/>
      <point x="381" y="536" type="curve" smooth="yes"/>
      <point x="300" y="536"/>
      <point x="257" y="484"/>
      <point x="240" y="427" type="curve"/>
      <point x="238" y="427" type="line"/>
      <point x="234" y="528" type="line"/>
      <point x="83" y="528" type="line"/>
      <point x="83" y="507" type="line"/>
      <point x="212" y="503" type="line"/>
      <point x="212" y="-145" type="line" smooth="yes"/>
      <point x="212" y="-217"/>
      <point x="239" y="-242"/>
    </contour>
  </outline>
</glyph>
<glyph name="uni027E" format="2">
  <advance width="530"/>
  <unicode hex="027E"/>
  <anchor x="250" y="0" name="bottom"/>
  <anchor x="320" y="528" name="top"/>
  <outline>
    <contour>
      <point x="180" y="0" type="line"/>
      <point x="206" y="0" type="line"/>
      <point x="206" y="346" type="line" smooth="yes"/>
      <point x="206" y="472"/>
      <point x="267" y="513"/>
      <point x="343" y="513" type="curve" smooth="yes"/>
      <point x="381" y="513"/>
      <point x="417" y="501"/>
      <point x="436" y="491" type="curve"/>
      <point x="444" y="517" type="line"/>
      <point x="426" y="526"/>
      <point x="388" y="538"/>
      <point x="342" y="538" type="curve" smooth="yes"/>
      <point x="250" y="538"/>
      <point x="180" y="480"/>
      <point x="180" y="353" type="curve" smooth="yes"/>
    </contour>
  </outline>
</glyph>
<glyph name="uni0282" format="2">
  <advance width="530"/>
  <unicode hex="0282"/>
  <anchor x="250" y="-291" name="bottom"/>
  <anchor x="250" y="528" name="top"/>
  <anchor x="480" y="528" name="topright"/>
  <outline>
    <contour>
      <point x="176" y="-242" type="curve" smooth="yes"/>
      <point x="191" y="-242"/>
      <point x="201" y="-239"/>
      <point x="209" y="-236" type="curve"/>
      <point x="209" y="-210" type="line"/>
      <point x="198" y="-215"/>
      <point x="189" y="-217"/>
      <point x="178" y="-217" type="curve" smooth="yes"/>
      <point x="146" y="-217"/>
      <point x="133" y="-193"/>
      <point x="133" y="-142" type="curve" smooth="yes"/>
      <point x="133" y="27" type="line"/>
      <point x="107" y="42" type="line"/>
      <point x="107" y="-145" type="line" smooth="yes"/>
      <point x="107" y="-217"/>
      <point x="134" y="-242"/>
    </contour>
    <component base="s"/>
  </outline>
</glyph>
<glyph name="uni0284" format="2">
  <advance width="530"/>
  <unicode hex="0284"/>
  <anchor x="166" y="-240" name="bottom"/>
  <anchor x="318" y="763" name="top"/>
  <outline>
    <contour>
      <point x="105" y="287" type="line"/>
      <point x="399" y="287" type="line"/>
      <point x="399" y="312" type="line"/>
      <point x="105" y="312" type="line"/>
    </contour>
    <component base="uni0283"/>
  </outline>
</glyph>
<glyph name="eshsquatreversed" format="2">
  <advance width="530"/>
  <unicode hex="0285"/>
  <anchor x="340" y="-240" name="bottom"/>
  <anchor x="145" y="528" name="top"/>
  <outline>
    <contour>
      <point x="378" y="-240" type="curve" smooth="yes"/>
      <point x="421" y="-240"/>
      <point x="451" y="-229"/>
      <point x="466" y="-221" type="curve"/>
      <point x="466" y="-193" type="line"/>
      <point x="449" y="-202"/>
      <point x="419" y="-215"/>
      <point x="378" y="-215" type="curve" smooth="yes"/>
      <point x="308" y="-215"/>
      <point x="260" y="-174"/>
      <point x="260" y="-63" type="curve" smooth="yes"/>
      <point x="260" y="351" type="line" smooth="yes"/>
      <point x="260" y="470"/>
      <point x="207" y="536"/>
      <point x="109" y="536" type="curve" smooth="yes"/>
      <point x="75" y="536"/>
      <point x="49" y="529"/>
      <point x="33" y="522" type="curve"/>
      <point x="33" y="497" type="line"/>
      <point x="48" y="504"/>
      <point x="78" y="511"/>
      <point x="110" y="511" type="curve" smooth="yes"/>
      <point x="191" y="511"/>
      <point x="234" y="460"/>
      <point x="234" y="348" type="curve" smooth="yes"/>
      <point x="234" y="-66" type="line" smooth="yes"/>
      <point x="234" y="-184"/>
      <point x="293" y="-240"/>
    </contour>
  </outline>
</glyph>
<glyph name="ezhcurl" format="2">
  <advance width="530"/>
  <unicode hex="0293"/>
  <anchor x="259" y="-241" name="bottom"/>
  <anchor x="245" y="527" name="top"/>
  <outline>
    <contour>
      <point x="452" y="-241" type="curve"/>
      <point x="475" y="-226" type="line"/>
      <point x="453" y="-192"/>
      <point x="420" y="-149"/>
      <point x="398" y="-121" type="curve"/>
      <point x="410" y="-97"/>
      <point x="426" y="-63"/>
      <point x="426" y="-2" type="curve" smooth="yes"/>
      <point x="426" y="131"/>
      <point x="347" y="195"/>
      <point x="154" y="195" type="curve"/>
      <point x="407" y="508" type="line"/>
      <point x="407" y="528" type="line"/>
      <point x="89" y="528" type="line"/>
      <point x="89" y="503" type="line"/>
      <point x="370" y="503" type="line"/>
      <point x="120" y="192" type="line"/>
      <point x="120" y="170" type="line"/>
      <point x="158" y="170" type="line" smooth="yes"/>
      <point x="329" y="170"/>
      <point x="399" y="118"/>
      <point x="399" y="-4" type="curve" smooth="yes"/>
      <point x="399" y="-50"/>
      <point x="388" y="-85"/>
      <point x="380" y="-102" type="curve"/>
      <point x="327" y="-44"/>
      <point x="259" y="-2"/>
      <point x="177" y="-2" type="curve" smooth="yes"/>
      <point x="73" y="-2"/>
      <point x="26" y="-55"/>
      <point x="26" y="-120" type="curve" smooth="yes"/>
      <point x="26" y="-201"/>
      <point x="96" y="-240"/>
      <point x="189" y="-240" type="curve" smooth="yes"/>
      <point x="299" y="-240"/>
      <point x="357" y="-177"/>
      <point x="382" y="-143" type="curve"/>
      <point x="401" y="-165"/>
      <point x="431" y="-209"/>
    </contour>
    <contour>
      <point x="190" y="-215" type="curve" smooth="yes"/>
      <point x="112" y="-215"/>
      <point x="53" y="-183"/>
      <point x="53" y="-120" type="curve" smooth="yes"/>
      <point x="53" y="-66"/>
      <point x="89" y="-27"/>
      <point x="177" y="-27" type="curve" smooth="yes"/>
      <point x="242" y="-27"/>
      <point x="302" y="-56"/>
      <point x="366" y="-124" type="curve"/>
      <point x="333" y="-170"/>
      <point x="281" y="-215"/>
    </contour>
  </outline>
</glyph>
<glyph name="cstretched" format="2">
  <advance width="530"/>
  <unicode hex="0297"/>
  <anchor x="309" y="-239" name="bottom"/>
  <anchor x="300" y="528" name="top"/>
  <outline>
    <contour>
      <point x="306" y="-239" type="curve" smooth="yes"/>
      <point x="356" y="-239"/>
      <point x="397" y="-228"/>
      <point x="427" y="-216" type="curve"/>
      <point x="427" y="-191" type="line"/>
      <point x="395" y="-203"/>
      <point x="355" y="-214"/>
      <point x="309" y="-214" type="curve" smooth="yes"/>
      <point x="188" y="-214"/>
      <point x="96" y="-133"/>
      <point x="96" y="160" type="curve" smooth="yes"/>
      <point x="96" y="418"/>
      <point x="191" y="513"/>
      <point x="317" y="513" type="curve" smooth="yes"/>
      <point x="356" y="513"/>
      <point x="393" y="505"/>
      <point x="428" y="492" type="curve"/>
      <point x="433" y="518" type="line"/>
      <point x="404" y="529"/>
      <point x="366" y="538"/>
      <point x="317" y="538" type="curve" smooth="yes"/>
      <point x="176" y="538"/>
      <point x="69" y="435"/>
      <point x="69" y="160" type="curve" smooth="yes"/>
      <point x="69" y="-146"/>
      <point x="171" y="-239"/>
    </contour>
  </outline>
</glyph>
<glyph name="uni029D" format="2">
  <advance width="530"/>
  <unicode hex="029D"/>
  <anchor x="289" y="-240" name="bottom"/>
  <anchor x="290" y="760" name="top"/>
  <outline>
    <contour>
      <point x="199" y="-232" type="curve" smooth="yes"/>
      <point x="267" y="-232"/>
      <point x="306" y="-184"/>
      <point x="306" y="-76" type="curve"/>
      <point x="373" y="-76" type="line"/>
      <point x="373" y="-52" type="line"/>
      <point x="306" y="-52" type="line"/>
      <point x="306" y="528" type="line"/>
      <point x="111" y="528" type="line"/>
      <point x="111" y="507" type="line"/>
      <point x="280" y="503" type="line"/>
      <point x="280" y="-52" type="line"/>
      <point x="237" y="-52" type="line" smooth="yes"/>
      <point x="169" y="-52"/>
      <point x="109" y="-68"/>
      <point x="109" y="-147" type="curve" smooth="yes"/>
      <point x="109" y="-204"/>
      <point x="148" y="-232"/>
    </contour>
    <contour>
      <point x="199" y="-209" type="curve" smooth="yes"/>
      <point x="160" y="-209"/>
      <point x="134" y="-186"/>
      <point x="134" y="-147" type="curve" smooth="yes"/>
      <point x="134" y="-96"/>
      <point x="166" y="-76"/>
      <point x="236" y="-76" type="curve" smooth="yes"/>
      <point x="280" y="-76" type="line"/>
      <point x="280" y="-81" type="line" smooth="yes"/>
      <point x="280" y="-150"/>
      <point x="263" y="-209"/>
    </contour>
    <contour>
      <point x="290" y="650" type="curve" smooth="yes"/>
      <point x="316" y="650"/>
      <point x="320" y="669"/>
      <point x="320" y="687" type="curve" smooth="yes"/>
      <point x="320" y="706"/>
      <point x="314" y="724"/>
      <point x="290" y="724" type="curve" smooth="yes"/>
      <point x="264" y="724"/>
      <point x="258" y="706"/>
      <point x="258" y="687" type="curve" smooth="yes"/>
      <point x="258" y="667"/>
      <point x="265" y="650"/>
    </contour>
  </outline>
</glyph>
<glyph name="qhook" format="2">
  <advance width="530"/>
  <unicode hex="02A0"/>
  <anchor x="250" y="-232" name="bottom"/>
  <anchor x="250" y="765" name="top"/>
  <outline>
    <contour>
      <point x="389" y="-232" type="line"/>
      <point x="415" y="-232" type="line"/>
      <point x="415" y="665" type="line" smooth="yes"/>
      <point x="415" y="716"/>
      <point x="428" y="740"/>
      <point x="460" y="740" type="curve" smooth="yes"/>
      <point x="471" y="740"/>
      <point x="480" y="738"/>
      <point x="491" y="733" type="curve"/>
      <point x="491" y="759" type="line"/>
      <point x="483" y="762"/>
      <point x="473" y="765"/>
      <point x="458" y="765" type="curve" smooth="yes"/>
      <point x="416" y="765"/>
      <point x="389" y="740"/>
      <point x="389" y="668" type="curve" smooth="yes"/>
      <point x="389" y="498" type="line" smooth="yes"/>
      <point x="389" y="475"/>
      <point x="390" y="455"/>
      <point x="392" y="434" type="curve"/>
      <point x="390" y="434" type="line"/>
      <point x="372" y="487"/>
      <point x="335" y="537"/>
      <point x="244" y="537" type="curve" smooth="yes"/>
      <point x="121" y="537"/>
      <point x="60" y="435"/>
      <point x="60" y="259" type="curve" smooth="yes"/>
      <point x="60" y="82"/>
      <point x="121" y="-10"/>
      <point x="239" y="-10" type="curve" smooth="yes"/>
      <point x="327" y="-10"/>
      <point x="371" y="43"/>
      <point x="389" y="104" type="curve"/>
      <point x="392" y="104" type="line"/>
      <point x="390" y="75"/>
      <point x="389" y="45"/>
      <point x="389" y="30" type="curve" smooth="yes"/>
    </contour>
    <contour>
      <point x="239" y="15" type="curve" smooth="yes"/>
      <point x="147" y="15"/>
      <point x="86" y="91"/>
      <point x="86" y="259" type="curve" smooth="yes"/>
      <point x="86" y="417"/>
      <point x="138" y="511"/>
      <point x="244" y="511" type="curve" smooth="yes"/>
      <point x="341" y="511"/>
      <point x="389" y="437"/>
      <point x="389" y="323" type="curve" smooth="yes"/>
      <point x="389" y="213" type="line" smooth="yes"/>
      <point x="389" y="99"/>
      <point x="341" y="15"/>
    </contour>
  </outline>
</glyph>
<glyph name="uni02AE" format="2">
  <advance width="530"/>
  <unicode hex="02AE"/>
  <anchor x="250" y="-240" name="bottom"/>
  <anchor x="250" y="528" name="top"/>
  <outline>
    <contour>
      <point x="389" y="-232" type="line"/>
      <point x="415" y="-232" type="line"/>
      <point x="415" y="528" type="line"/>
      <point x="389" y="528" type="line"/>
      <point x="389" y="228" type="line" smooth="yes"/>
      <point x="389" y="81"/>
      <point x="320" y="15"/>
      <point x="230" y="15" type="curve" smooth="yes"/>
      <point x="154" y="15"/>
      <point x="106" y="61"/>
      <point x="106" y="175" type="curve" smooth="yes"/>
      <point x="106" y="440" type="line" smooth="yes"/>
      <point x="106" y="512"/>
      <point x="79" y="537"/>
      <point x="37" y="537" type="curve" smooth="yes"/>
      <point x="22" y="537"/>
      <point x="12" y="534"/>
      <point x="4" y="531" type="curve"/>
      <point x="4" y="505" type="line"/>
      <point x="15" y="510"/>
      <point x="24" y="512"/>
      <point x="35" y="512" type="curve" smooth="yes"/>
      <point x="67" y="512"/>
      <point x="80" y="488"/>
      <point x="80" y="437" type="curve" smooth="yes"/>
      <point x="80" y="172" type="line" smooth="yes"/>
      <point x="80" y="49"/>
      <point x="134" y="-10"/>
      <point x="229" y="-10" type="curve" smooth="yes"/>
      <point x="324" y="-10"/>
      <point x="371" y="50"/>
      <point x="389" y="107" type="curve"/>
      <point x="391" y="107" type="line"/>
      <point x="390" y="82"/>
      <point x="389" y="64"/>
      <point x="389" y="34" type="curve" smooth="yes"/>
    </contour>
  </outline>
</glyph>
<glyph name="uni02BE" format="2">
  <advance width="530"/>
  <unicode hex="02BE"/>
  <outline>
    <contour>
      <point x="197" y="575" type="line"/>
      <point x="264" y="575"/>
      <point x="304" y="612"/>
      <point x="304" y="680" type="curve" smooth="yes"/>
      <point x="304" y="743"/>
      <point x="264" y="781"/>
      <point x="197" y="781" type="curve"/>
      <point x="197" y="759" type="line"/>
      <point x="254" y="759"/>
      <point x="280" y="728"/>
      <point x="280" y="680" type="curve" smooth="yes"/>
      <point x="280" y="625"/>
      <point x="254" y="597"/>
      <point x="197" y="597" type="curve"/>
    </contour>
  </outline>
</glyph>
<glyph name="uni02C0" format="2">
  <advance width="530"/>
  <unicode hex="02C0"/>
  <outline>
    <contour>
      <point x="226" y="534" type="line"/>
      <point x="247" y="534" type="line"/>
      <point x="247" y="580" type="line"/>
      <point x="305" y="595"/>
      <point x="334" y="627"/>
      <point x="334" y="675" type="curve" smooth="yes"/>
      <point x="334" y="728"/>
      <point x="300" y="765"/>
      <point x="243" y="765" type="curve" smooth="yes"/>
      <point x="213" y="765"/>
      <point x="186" y="754"/>
      <point x="167" y="740" type="curve"/>
      <point x="177" y="720" type="line"/>
      <point x="194" y="733"/>
      <point x="216" y="743"/>
      <point x="243" y="743" type="curve" smooth="yes"/>
      <point x="291" y="743"/>
      <point x="311" y="711"/>
      <point x="311" y="675" type="curve" smooth="yes"/>
      <point x="311" y="632"/>
      <point x="281" y="607"/>
      <point x="226" y="596" type="curve"/>
    </contour>
  </outline>
</glyph>
<glyph name="uni02D0" format="2">
  <advance width="530"/>
  <unicode hex="02D0"/>
  <outline>
    <contour>
      <point x="250" y="414" type="line"/>
      <point x="303" y="527" type="line"/>
      <point x="197" y="527" type="line"/>
    </contour>
    <contour>
      <point x="197" y="0" type="line"/>
      <point x="303" y="0" type="line"/>
      <point x="250" y="113" type="line"/>
    </contour>
  </outline>
</glyph>
<glyph name="uni02D7" format="2">
  <advance width="530"/>
  <unicode hex="02D7"/>
  <outline>
    <contour>
      <point x="167" y="336" type="line"/>
      <point x="167" y="311" type="line"/>
      <point x="334" y="311" type="line"/>
      <point x="334" y="336" type="line"/>
    </contour>
  </outline>
</glyph>
<glyph name="uni02EB" format="2">
  <advance width="530"/>
  <unicode hex="02EB"/>
  <outline>
    <contour>
      <point x="141" y="166" type="line"/>
      <point x="196" y="166" type="line"/>
      <point x="196" y="320" type="line"/>
      <point x="359" y="320" type="line"/>
      <point x="359" y="375" type="line"/>
      <point x="196" y="375" type="line"/>
      <point x="196" y="528" type="line"/>
      <point x="141" y="528" type="line"/>
    </contour>
  </outline>
</glyph>
<glyph name="uni02EF" format="2">
  <advance width="530"/>
  <unicode hex="02EF"/>
  <outline>
    <contour>
      <point x="243" y="-208" type="line"/>
      <point x="256" y="-208" type="line"/>
      <point x="340" y="-36" type="line"/>
      <point x="314" y="-36" type="line"/>
      <point x="250" y="-174" type="line"/>
      <point x="185" y="-36" type="line"/>
      <point x="160" y="-36" type="line"/>
    </contour>
  </outline>
</glyph>
<glyph name="uni02FE" format="2">
  <advance width="500"/>
  <unicode hex="02FE"/>
  <outline>
    <contour>
      <point x="154" y="-188" type="line"/>
      <point x="346" y="-188" type="line"/>
      <point x="346" y="-163" type="line"/>
      <point x="180" y="-163" type="line"/>
      <point x="180" y="-50" type="line"/>
      <point x="154" y="-50" type="line"/>
    </contour>
  </outline>
</glyph>
<glyph name="overlinecmb" format="2">
  <unicode hex="0305"/>
  <anchor x="0" y="527" name="_top"/>
  <anchor x="0" y="835" name="top"/>
  <outline>
    <contour>
      <point x="-134" y="835" type="line"/>
      <point x="-134" y="810" type="line"/>
      <point x="134" y="810" type="line"/>
      <point x="134" y="835" type="line"/>
    </contour>
  </outline>
</glyph>
<glyph name="plusbelowcomb" format="2">
  <unicode hex="031F"/>
  <anchor x="0" y="0" name="_bottom"/>
  <anchor x="0" y="-197" name="bottom"/>
  <outline>
    <contour>
      <point x="-12" y="-197" type="line"/>
      <point x="14" y="-197" type="line"/>
      <point x="14" y="-130" type="line"/>
      <point x="66" y="-130" type="line"/>
      <point x="66" y="-105" type="line"/>
      <point x="14" y="-105" type="line"/>
      <point x="14" y="-38" type="line"/>
      <point x="-12" y="-38" type="line"/>
      <point x="-12" y="-105" type="line"/>
      <point x="-66" y="-105" type="line"/>
      <point x="-66" y="-130" type="line"/>
      <point x="-12" y="-130" type="line"/>
    </contour>
  </outline>
</glyph>
<glyph name="hookpalatalizedbelowcomb" format="2">
  <unicode hex="0321"/>
  <outline>
    <contour>
      <point x="-13" y="-235" type="curve"/>
      <point x="29" y="-235"/>
      <point x="44" y="-205"/>
      <point x="44" y="-159" type="curve" smooth="yes"/>
      <point x="44" y="31" type="line"/>
      <point x="18" y="31" type="line"/>
      <point x="18" y="-155" type="line" smooth="yes"/>
      <point x="18" y="-191"/>
      <point x="8" y="-210"/>
      <point x="-14" y="-210" type="curve" smooth="yes"/>
      <point x="-26" y="-210"/>
      <point x="-38" y="-205"/>
      <point x="-45" y="-201" type="curve"/>
      <point x="-45" y="-226" type="line"/>
      <point x="-38" y="-230"/>
      <point x="-27" y="-235"/>
    </contour>
  </outline>
</glyph>
<glyph name="dblarchinvertedbelowcomb" format="2">
  <unicode hex="032B"/>
  <anchor x="0" y="0" name="_bottom"/>
  <anchor x="0" y="-167" name="bottom"/>
  <outline>
    <contour>
      <point x="-54" y="-167" type="curve" smooth="yes"/>
      <point x="-24" y="-167"/>
      <point x="-9" y="-142"/>
      <point x="0" y="-116" type="curve"/>
      <point x="7" y="-142"/>
      <point x="21" y="-167"/>
      <point x="51" y="-167" type="curve" smooth="yes"/>
      <point x="81" y="-167"/>
      <point x="109" y="-144"/>
      <point x="109" y="-61" type="curve"/>
      <point x="87" y="-61" type="line"/>
      <point x="87" y="-106"/>
      <point x="78" y="-146"/>
      <point x="51" y="-146" type="curve" smooth="yes"/>
      <point x="23" y="-146"/>
      <point x="11" y="-106"/>
      <point x="11" y="-61" type="curve"/>
      <point x="-12" y="-61" type="line"/>
      <point x="-12" y="-105"/>
      <point x="-26" y="-146"/>
      <point x="-53" y="-146" type="curve" smooth="yes"/>
      <point x="-81" y="-146"/>
      <point x="-86" y="-104"/>
      <point x="-86" y="-61" type="curve"/>
      <point x="-109" y="-61" type="line"/>
      <point x="-109" y="-142"/>
      <point x="-84" y="-167"/>
    </contour>
  </outline>
</glyph>
<glyph name="xabovecomb" format="2">
  <unicode hex="033D"/>
  <anchor x="0" y="527" name="_top"/>
  <anchor x="0" y="755" name="top"/>
  <outline>
    <contour>
      <point x="-66" y="592" type="line"/>
      <point x="-1" y="658" type="line"/>
      <point x="66" y="593" type="line"/>
      <point x="82" y="608" type="line"/>
      <point x="15" y="673" type="line"/>
      <point x="81" y="739" type="line"/>
      <point x="65" y="755" type="line"/>
      <point x="-1" y="690" type="line"/>
      <point x="-65" y="754" type="line"/>
      <point x="-81" y="738" type="line"/>
      <point x="-16" y="673" type="line"/>
      <point x="-82" y="607" type="line"/>
    </contour>
  </outline>
</glyph>
<glyph name="arrowheadrightheadupbelowcomb" format="2">
  <unicode hex="0356"/>
  <anchor x="0" y="0" name="_bottom"/>
  <anchor x="0" y="-239" name="bottom"/>
  <outline>
    <contour>
      <point x="-21" y="-226" type="line"/>
      <point x="-3" y="-226" type="line"/>
      <point x="15" y="-192"/>
      <point x="38" y="-135"/>
      <point x="50" y="-95" type="curve"/>
      <point x="62" y="-135"/>
      <point x="83" y="-188"/>
      <point x="104" y="-226" type="curve"/>
      <point x="121" y="-226" type="line"/>
      <point x="121" y="-218" type="line"/>
      <point x="101" y="-167"/>
      <point x="73" y="-95"/>
      <point x="61" y="-52" type="curve"/>
      <point x="38" y="-52" type="line"/>
      <point x="26" y="-95"/>
      <point x="-2" y="-175"/>
      <point x="-21" y="-218" type="curve"/>
    </contour>
    <contour>
      <point x="-122" y="-239" type="line"/>
      <point x="-116" y="-239" type="line"/>
      <point x="-91" y="-213"/>
      <point x="-50" y="-173"/>
      <point x="-23" y="-150" type="curve"/>
      <point x="-23" y="-128" type="line"/>
      <point x="-50" y="-105"/>
      <point x="-75" y="-80"/>
      <point x="-116" y="-38" type="curve"/>
      <point x="-122" y="-38" type="line"/>
      <point x="-122" y="-60" type="line"/>
      <point x="-100" y="-88"/>
      <point x="-73" y="-117"/>
      <point x="-51" y="-139" type="curve"/>
      <point x="-74" y="-163"/>
      <point x="-102" y="-193"/>
      <point x="-122" y="-219" type="curve"/>
    </contour>
  </outline>
</glyph>
<glyph name="zigzagabovecomb" format="2">
  <unicode hex="035B"/>
  <anchor x="0" y="527" name="_top"/>
  <anchor x="0" y="772" name="top"/>
  <outline>
    <contour>
      <point x="12" y="606" type="line"/>
      <point x="36" y="606" type="line"/>
      <point x="62" y="698" type="line"/>
      <point x="-32" y="698" type="line"/>
      <point x="-11" y="772" type="line"/>
      <point x="-36" y="772" type="line"/>
      <point x="-63" y="675" type="line"/>
      <point x="31" y="675" type="line"/>
    </contour>
  </outline>
</glyph>
<glyph name="tildedoublecomb" format="2">
  <unicode hex="0360"/>
  <anchor x="0" y="527" name="_top"/>
  <anchor x="0" y="710" name="top"/>
  <outline>
    <contour>
      <point x="-245" y="607" type="curve"/>
      <point x="-220" y="607" type="line"/>
      <point x="-209" y="656"/>
      <point x="-184" y="682"/>
      <point x="-130" y="682" type="curve" smooth="yes"/>
      <point x="-39" y="682"/>
      <point x="39" y="608"/>
      <point x="137" y="608" type="curve" smooth="yes"/>
      <point x="190" y="608"/>
      <point x="232" y="633"/>
      <point x="245" y="710" type="curve"/>
      <point x="220" y="710" type="line"/>
      <point x="212" y="661"/>
      <point x="185" y="633"/>
      <point x="137" y="633" type="curve" smooth="yes"/>
      <point x="50" y="633"/>
      <point x="-39" y="707"/>
      <point x="-130" y="707" type="curve" smooth="yes"/>
      <point x="-190" y="707"/>
      <point x="-233" y="677"/>
    </contour>
  </outline>
</glyph>
<glyph name="heta" format="2">
  <advance width="500"/>
  <unicode hex="0371"/>
  <anchor x="250" y="0" name="bottom"/>
  <anchor x="250" y="528" name="top"/>
  <outline>
    <contour>
      <point x="157" y="0" type="line"/>
      <point x="183" y="0" type="line"/>
      <point x="183" y="263" type="line"/>
      <point x="342" y="263" type="line"/>
      <point x="342" y="288" type="line"/>
      <point x="183" y="288" type="line"/>
      <point x="183" y="527" type="line"/>
      <point x="157" y="527" type="line"/>
    </contour>
  </outline>
</glyph>
<glyph name="Archaicsampi" format="2">
  <advance width="500"/>
  <unicode hex="0372"/>
  <anchor x="250" y="0" name="bottom"/>
  <anchor x="250" y="714" name="top"/>
  <anchor x="480" y="714" name="topright"/>
  <anchor x="250" y="357" name="center"/>
  <outline>
    <contour>
      <point x="429" y="496" type="line"/>
      <point x="455" y="496" type="line"/>
      <point x="455" y="714" type="line"/>
      <point x="429" y="714" type="line"/>
    </contour>
    <contour>
      <point x="45" y="496" type="line"/>
      <point x="71" y="496" type="line"/>
      <point x="71" y="714" type="line"/>
      <point x="45" y="714" type="line"/>
    </contour>
    <component base="T"/>
  </outline>
</glyph>
<glyph name="dieresistonos" format="2">
  <advance width="530"/>
  <unicode hex="0385"/>
  <anchor x="250" y="528" name="_top"/>
  <anchor x="250" y="805" name="top"/>
  <outline>
    <contour>
      <point x="234" y="643" type="line"/>
      <point x="253" y="643" type="line"/>
      <point x="270" y="686"/>
      <point x="290" y="757"/>
      <point x="297" y="798" type="curve"/>
      <point x="297" y="805" type="line"/>
      <point x="267" y="805" type="line"/>
      <point x="262" y="761"/>
      <point x="248" y="689"/>
      <point x="234" y="650" type="curve"/>
    </contour>
    <contour>
      <point x="161" y="622" type="curve" smooth="yes"/>
      <point x="179" y="622"/>
      <point x="186" y="635"/>
      <point x="186" y="653" type="curve" smooth="yes"/>
      <point x="186" y="671"/>
      <point x="179" y="685"/>
      <point x="161" y="685" type="curve" smooth="yes"/>
      <point x="144" y="685"/>
      <point x="137" y="670"/>
      <point x="137" y="653" type="curve" smooth="yes"/>
      <point x="137" y="636"/>
      <point x="144" y="622"/>
    </contour>
    <contour>
      <point x="338" y="622" type="curve" smooth="yes"/>
      <point x="357" y="622"/>
      <point x="363" y="636"/>
      <point x="363" y="654" type="curve" smooth="yes"/>
      <point x="363" y="671"/>
      <point x="356" y="685"/>
      <point x="338" y="685" type="curve" smooth="yes"/>
      <point x="322" y="685"/>
      <point x="314" y="670"/>
      <point x="314" y="654" type="curve" smooth="yes"/>
      <point x="314" y="636"/>
      <point x="322" y="622"/>
    </contour>
  </outline>
</glyph>
<glyph name="Etatonos" format="2">
  <advance width="530"/>
  <unicode hex="0389"/>
  <anchor x="266" y="0" name="bottom"/>
  <anchor x="266" y="375" name="center"/>
  <anchor x="266" y="714" name="top"/>
  <anchor x="36" y="714" name="topleft"/>
  <outline>
    <contour>
      <point x="100" y="0" type="line"/>
      <point x="126" y="0" type="line"/>
      <point x="126" y="363" type="line"/>
      <point x="404" y="363" type="line"/>
      <point x="404" y="0" type="line"/>
      <point x="430" y="0" type="line"/>
      <point x="430" y="714" type="line"/>
      <point x="404" y="714" type="line"/>
      <point x="404" y="388" type="line"/>
      <point x="126" y="388" type="line"/>
      <point x="126" y="714" type="line"/>
      <point x="100" y="714" type="line"/>
    </contour>
    <component base="tonos" xOffset="-264"/>
  </outline>
</glyph>
<glyph name="Theta" format="2">
  <advance width="530"/>
  <unicode hex="0398"/>
  <anchor x="250" y="0" name="bottom"/>
  <anchor x="250" y="714" name="top"/>
  <anchor x="20" y="714" name="topleft"/>
  <anchor x="251" y="10" name="ogonek"/>
  <anchor x="250" y="357" name="center"/>
  <anchor x="500" y="714" name="topright"/>
  <outline>
    <contour>
      <point x="131" y="348" type="line"/>
      <point x="370" y="348" type="line"/>
      <point x="370" y="373" type="line"/>
      <point x="131" y="373" type="line"/>
    </contour>
    <component base="O"/>
  </outline>
</glyph>
<glyph name="Lambda" format="2">
  <advance width="530"/>
  <unicode hex="039B"/>
  <anchor x="250" y="0" name="bottom"/>
  <anchor x="250" y="714" name="top"/>
  <outline>
    <contour>
      <point x="20" y="0" type="line"/>
      <point x="47" y="0" type="line"/>
      <point x="210" y="535" type="line" smooth="yes"/>
      <point x="225" y="585"/>
      <point x="240" y="641"/>
      <point x="250" y="684" type="curve"/>
      <point x="259" y="646"/>
      <point x="274" y="585"/>
      <point x="289" y="536" type="curve" smooth="yes"/>
      <point x="453" y="0" type="line"/>
      <point x="480" y="0" type="line"/>
      <point x="265" y="714" type="line"/>
      <point x="236" y="714" type="line"/>
    </contour>
  </outline>
</glyph>
<glyph name="beta" format="2">
  <advance width="530"/>
  <unicode hex="03B2"/>
  <anchor x="276" y="0" name="bottom"/>
  <anchor x="254" y="765" name="top"/>
  <anchor x="480" y="765" name="topright"/>
  <outline>
    <contour>
      <point x="85" y="-236" type="line"/>
      <point x="111" y="-236" type="line"/>
      <point x="111" y="44" type="line"/>
      <point x="151" y="12"/>
      <point x="191" y="-7"/>
      <point x="250" y="-7" type="curve" smooth="yes"/>
      <point x="374" y="-7"/>
      <point x="441" y="79"/>
      <point x="441" y="209" type="curve" smooth="yes"/>
      <point x="441" y="322"/>
      <point x="390" y="388"/>
      <point x="307" y="401" type="curve"/>
      <point x="307" y="404" type="line"/>
      <point x="372" y="417"/>
      <point x="416" y="481"/>
      <point x="416" y="582" type="curve" smooth="yes"/>
      <point x="416" y="698"/>
      <point x="358" y="765"/>
      <point x="256" y="765" type="curve" smooth="yes"/>
      <point x="145" y="765"/>
      <point x="85" y="685"/>
      <point x="85" y="558" type="curve" smooth="yes"/>
    </contour>
    <contour>
      <point x="249" y="18" type="curve" smooth="yes"/>
      <point x="193" y="18"/>
      <point x="151" y="38"/>
      <point x="111" y="71" type="curve"/>
      <point x="111" y="554" type="line" smooth="yes"/>
      <point x="111" y="672"/>
      <point x="161" y="740"/>
      <point x="256" y="740" type="curve" smooth="yes"/>
      <point x="342" y="740"/>
      <point x="390" y="685"/>
      <point x="390" y="581" type="curve" smooth="yes"/>
      <point x="390" y="469"/>
      <point x="334" y="414"/>
      <point x="245" y="414" type="curve" smooth="yes"/>
      <point x="204" y="414" type="line"/>
      <point x="204" y="389" type="line"/>
      <point x="244" y="389" type="line" smooth="yes"/>
      <point x="367" y="389"/>
      <point x="415" y="318"/>
      <point x="415" y="210" type="curve" smooth="yes"/>
      <point x="415" y="91"/>
      <point x="356" y="18"/>
    </contour>
  </outline>
</glyph>
<glyph name="delta" format="2">
  <advance width="530"/>
  <unicode hex="03B4"/>
  <anchor x="256" y="0" name="bottom"/>
  <anchor x="287" y="765" name="top"/>
  <outline>
    <contour>
      <point x="253" y="-10" type="curve" smooth="yes"/>
      <point x="378" y="-10"/>
      <point x="440" y="87"/>
      <point x="440" y="213" type="curve" smooth="yes"/>
      <point x="440" y="344"/>
      <point x="366" y="406"/>
      <point x="278" y="473" type="curve" smooth="yes"/>
      <point x="203" y="530"/>
      <point x="156" y="569"/>
      <point x="156" y="636" type="curve" smooth="yes"/>
      <point x="156" y="699"/>
      <point x="203" y="740"/>
      <point x="282" y="740" type="curve" smooth="yes"/>
      <point x="328" y="740"/>
      <point x="369" y="730"/>
      <point x="411" y="706" type="curve"/>
      <point x="423" y="728" type="line"/>
      <point x="378" y="753"/>
      <point x="330" y="765"/>
      <point x="282" y="765" type="curve" smooth="yes"/>
      <point x="195" y="765"/>
      <point x="129" y="717"/>
      <point x="129" y="637" type="curve" smooth="yes"/>
      <point x="129" y="563"/>
      <point x="175" y="522"/>
      <point x="246" y="468" type="curve"/>
      <point x="120" y="422"/>
      <point x="60" y="328"/>
      <point x="60" y="210" type="curve" smooth="yes"/>
      <point x="60" y="84"/>
      <point x="130" y="-10"/>
    </contour>
    <contour>
      <point x="253" y="15" type="curve" smooth="yes"/>
      <point x="149" y="15"/>
      <point x="86" y="95"/>
      <point x="86" y="210" type="curve" smooth="yes"/>
      <point x="86" y="319"/>
      <point x="143" y="407"/>
      <point x="267" y="450" type="curve"/>
      <point x="362" y="382"/>
      <point x="413" y="314"/>
      <point x="413" y="212" type="curve" smooth="yes"/>
      <point x="413" y="95"/>
      <point x="357" y="15"/>
    </contour>
  </outline>
</glyph>
<glyph name="sigma1" format="2">
  <advance width="530"/>
  <unicode hex="03C2"/>
  <anchor x="308" y="-207" name="bottom"/>
  <anchor x="320" y="528" name="top"/>
  <outline>
    <contour>
      <point x="323" y="-202" type="curve"/>
      <point x="353" y="-202" type="line"/>
      <point x="380" y="-168"/>
      <point x="406" y="-126"/>
      <point x="406" y="-77" type="curve" smooth="yes"/>
      <point x="406" y="0"/>
      <point x="351" y="25"/>
      <point x="282" y="45" type="curve" smooth="yes"/>
      <point x="164" y="79"/>
      <point x="122" y="138"/>
      <point x="122" y="267" type="curve" smooth="yes"/>
      <point x="122" y="427"/>
      <point x="187" y="512"/>
      <point x="319" y="512" type="curve" smooth="yes"/>
      <point x="352" y="512"/>
      <point x="383" y="507"/>
      <point x="411" y="495" type="curve"/>
      <point x="417" y="519" type="line"/>
      <point x="392" y="530"/>
      <point x="359" y="538"/>
      <point x="319" y="538" type="curve" smooth="yes"/>
      <point x="173" y="538"/>
      <point x="95" y="447"/>
      <point x="95" y="268" type="curve" smooth="yes"/>
      <point x="95" y="117"/>
      <point x="151" y="55"/>
      <point x="274" y="18" type="curve" smooth="yes"/>
      <point x="348" y="-4"/>
      <point x="379" y="-22"/>
      <point x="379" y="-76" type="curve" smooth="yes"/>
      <point x="379" y="-119"/>
      <point x="359" y="-155"/>
    </contour>
  </outline>
</glyph>
<glyph name="chi" format="2">
  <advance width="530"/>
  <unicode hex="03C7"/>
  <anchor x="250" y="-244" name="bottom"/>
  <anchor x="250" y="528" name="top"/>
  <anchor x="480" y="528" name="topright"/>
  <outline>
    <contour>
      <point x="407" y="-244" type="curve" smooth="yes"/>
      <point x="419" y="-244"/>
      <point x="428" y="-242"/>
      <point x="435" y="-239" type="curve"/>
      <point x="435" y="-215" type="line"/>
      <point x="429" y="-218"/>
      <point x="421" y="-220"/>
      <point x="410" y="-220" type="curve" smooth="yes"/>
      <point x="383" y="-220"/>
      <point x="367" y="-205"/>
      <point x="351" y="-148" type="curve" smooth="yes"/>
      <point x="264" y="159" type="line"/>
      <point x="408" y="528" type="line"/>
      <point x="380" y="528" type="line"/>
      <point x="250" y="196" type="line"/>
      <point x="173" y="461" type="line" smooth="yes"/>
      <point x="158" y="514"/>
      <point x="137" y="536"/>
      <point x="102" y="536" type="curve" smooth="yes"/>
      <point x="86" y="536"/>
      <point x="72" y="533"/>
      <point x="65" y="529" type="curve"/>
      <point x="65" y="505" type="line"/>
      <point x="74" y="508"/>
      <point x="84" y="511"/>
      <point x="97" y="511" type="curve" smooth="yes"/>
      <point x="122" y="511"/>
      <point x="136" y="497"/>
      <point x="151" y="447" type="curve" smooth="yes"/>
      <point x="234" y="161" type="line"/>
      <point x="83" y="-240" type="line"/>
      <point x="111" y="-240" type="line"/>
      <point x="247" y="125" type="line"/>
      <point x="328" y="-164" type="line" smooth="yes"/>
      <point x="345" y="-224"/>
      <point x="368" y="-244"/>
    </contour>
  </outline>
</glyph>
<glyph name="uni03D8" format="2">
  <advance width="500"/>
  <unicode hex="03D8"/>
  <anchor x="250" y="0" name="bottom"/>
  <anchor x="250" y="714" name="top"/>
  <outline>
    <contour>
      <point x="235" y="0" type="line"/>
      <point x="261" y="0" type="line"/>
      <point x="261" y="140" type="line"/>
      <point x="401" y="152"/>
      <point x="442" y="290"/>
      <point x="442" y="435" type="curve" smooth="yes"/>
      <point x="442" y="580"/>
      <point x="400" y="724"/>
      <point x="248" y="724" type="curve" smooth="yes"/>
      <point x="122" y="724"/>
      <point x="54" y="623"/>
      <point x="54" y="435" type="curve" smooth="yes"/>
      <point x="54" y="296"/>
      <point x="91" y="153"/>
      <point x="235" y="140" type="curve"/>
    </contour>
    <contour>
      <point x="248" y="165" type="curve" smooth="yes"/>
      <point x="139" y="165"/>
      <point x="81" y="260"/>
      <point x="81" y="435" type="curve" smooth="yes"/>
      <point x="81" y="606"/>
      <point x="139" y="699"/>
      <point x="248" y="699" type="curve" smooth="yes"/>
      <point x="359" y="699"/>
      <point x="415" y="607"/>
      <point x="415" y="435" type="curve" smooth="yes"/>
      <point x="415" y="260"/>
      <point x="357" y="165"/>
    </contour>
  </outline>
</glyph>
<glyph name="uni03D9" format="2">
  <advance width="500"/>
  <unicode hex="03D9"/>
  <anchor x="250" y="-240" name="bottom"/>
  <anchor x="250" y="528" name="top"/>
  <anchor x="251" y="15" name="ogonek"/>
  <anchor x="480" y="528" name="topright"/>
  <anchor x="250" y="264" name="center"/>
  <outline>
    <contour>
      <point x="237" y="-240" type="line"/>
      <point x="263" y="-240" type="line"/>
      <point x="263" y="-10" type="line"/>
      <point x="237" y="-9" type="line"/>
    </contour>
    <component base="o"/>
  </outline>
</glyph>
<glyph name="uni03DA" format="2">
  <advance width="500"/>
  <unicode hex="03DA"/>
  <anchor x="329" y="0" name="bottom"/>
  <anchor x="329" y="714" name="top"/>
  <outline>
    <contour>
      <point x="315" y="1" type="line"/>
      <point x="341" y="1" type="line"/>
      <point x="341" y="167" type="line"/>
      <point x="316" y="167" type="line" smooth="yes"/>
      <point x="164" y="167"/>
      <point x="81" y="263"/>
      <point x="81" y="425" type="curve" smooth="yes"/>
      <point x="81" y="580"/>
      <point x="168" y="699"/>
      <point x="311" y="699" type="curve" smooth="yes"/>
      <point x="366" y="699"/>
      <point x="412" y="688"/>
      <point x="448" y="671" type="curve"/>
      <point x="460" y="696" type="line"/>
      <point x="423" y="713"/>
      <point x="373" y="724"/>
      <point x="310" y="724" type="curve" smooth="yes"/>
      <point x="154" y="724"/>
      <point x="54" y="596"/>
      <point x="54" y="425" type="curve" smooth="yes"/>
      <point x="54" y="252"/>
      <point x="142" y="144"/>
      <point x="315" y="143" type="curve"/>
    </contour>
  </outline>
</glyph>
<glyph name="uni03DB" format="2">
  <advance width="500"/>
  <unicode hex="03DB"/>
  <anchor x="268" y="-208" name="bottom"/>
  <anchor x="315" y="527" name="top"/>
  <outline>
    <contour>
      <point x="267" y="-213" type="curve" smooth="yes"/>
      <point x="365" y="-213"/>
      <point x="410" y="-160"/>
      <point x="410" y="-85" type="curve" smooth="yes"/>
      <point x="410" y="-5"/>
      <point x="365" y="19"/>
      <point x="281" y="44" type="curve" smooth="yes"/>
      <point x="157" y="81"/>
      <point x="122" y="135"/>
      <point x="122" y="275" type="curve" smooth="yes"/>
      <point x="122" y="437"/>
      <point x="199" y="512"/>
      <point x="314" y="512" type="curve" smooth="yes"/>
      <point x="357" y="512"/>
      <point x="386" y="504"/>
      <point x="411" y="494" type="curve"/>
      <point x="417" y="520" type="line"/>
      <point x="391" y="530"/>
      <point x="356" y="537"/>
      <point x="315" y="537" type="curve" smooth="yes"/>
      <point x="180" y="537"/>
      <point x="95" y="454"/>
      <point x="95" y="275" type="curve" smooth="yes"/>
      <point x="95" y="124"/>
      <point x="137" y="58"/>
      <point x="270" y="21" type="curve" smooth="yes"/>
      <point x="333" y="3"/>
      <point x="383" y="-15"/>
      <point x="383" y="-87" type="curve" smooth="yes"/>
      <point x="383" y="-144"/>
      <point x="351" y="-187"/>
      <point x="266" y="-187" type="curve" smooth="yes"/>
      <point x="233" y="-187"/>
      <point x="194" y="-180"/>
      <point x="165" y="-172" type="curve"/>
      <point x="165" y="-199" type="line"/>
      <point x="193" y="-208"/>
      <point x="232" y="-213"/>
    </contour>
  </outline>
</glyph>
<glyph name="uni03DD" format="2">
  <advance width="500"/>
  <unicode hex="03DD"/>
  <anchor x="269" y="-240" name="bottom"/>
  <anchor x="281" y="528" name="top"/>
  <outline>
    <contour>
      <point x="105" y="-236" type="line"/>
      <point x="131" y="-236" type="line"/>
      <point x="131" y="165" type="line"/>
      <point x="385" y="165" type="line"/>
      <point x="385" y="30" type="line"/>
      <point x="411" y="30" type="line"/>
      <point x="411" y="190" type="line"/>
      <point x="131" y="190" type="line"/>
      <point x="131" y="503" type="line"/>
      <point x="431" y="503" type="line"/>
      <point x="431" y="528" type="line"/>
      <point x="105" y="528" type="line"/>
    </contour>
  </outline>
</glyph>
<glyph name="uni03E0" format="2">
  <advance width="500"/>
  <unicode hex="03E0"/>
  <anchor x="260" y="0" name="bottom"/>
  <anchor x="260" y="714" name="top"/>
  <outline>
    <contour>
      <point x="350" y="0" type="curve"/>
      <point x="378" y="0" type="line"/>
      <point x="407" y="75"/>
      <point x="440" y="201"/>
      <point x="440" y="339" type="curve" smooth="yes"/>
      <point x="440" y="590"/>
      <point x="347" y="720"/>
      <point x="197" y="720" type="curve" smooth="yes"/>
      <point x="116" y="720"/>
      <point x="64" y="683"/>
      <point x="38" y="656" type="curve"/>
      <point x="52" y="635" type="line"/>
      <point x="81" y="663"/>
      <point x="127" y="695"/>
      <point x="197" y="695" type="curve" smooth="yes"/>
      <point x="267" y="695"/>
      <point x="320" y="661"/>
      <point x="356" y="604" type="curve"/>
      <point x="168" y="470" type="line"/>
      <point x="182" y="448" type="line"/>
      <point x="368" y="581" type="line"/>
      <point x="386" y="544"/>
      <point x="399" y="499"/>
      <point x="406" y="449" type="curve"/>
      <point x="241" y="331" type="line"/>
      <point x="254" y="309" type="line"/>
      <point x="409" y="420" type="line"/>
      <point x="412" y="392"/>
      <point x="413" y="364"/>
      <point x="413" y="338" type="curve" smooth="yes"/>
      <point x="413" y="208"/>
      <point x="382" y="86"/>
    </contour>
  </outline>
</glyph>
<glyph name="uni03E1" format="2">
  <advance width="500"/>
  <unicode hex="03E1"/>
  <anchor x="270" y="-240" name="bottom"/>
  <anchor x="270" y="714" name="top"/>
  <outline>
    <contour>
      <point x="373" y="-240" type="curve"/>
      <point x="402" y="-240" type="line"/>
      <point x="440" y="-145"/>
      <point x="469" y="-36"/>
      <point x="469" y="110" type="curve" smooth="yes"/>
      <point x="469" y="459"/>
      <point x="299" y="705"/>
      <point x="31" y="761" type="curve"/>
      <point x="38" y="734" type="line"/>
      <point x="157" y="704"/>
      <point x="271" y="629"/>
      <point x="346" y="505" type="curve"/>
      <point x="141" y="426" type="line"/>
      <point x="149" y="403" type="line"/>
      <point x="358" y="482" type="line"/>
      <point x="383" y="436"/>
      <point x="404" y="384"/>
      <point x="417" y="326" type="curve"/>
      <point x="188" y="238" type="line"/>
      <point x="197" y="214" type="line"/>
      <point x="423" y="301" type="line"/>
      <point x="435" y="241"/>
      <point x="442" y="176"/>
      <point x="442" y="109" type="curve" smooth="yes"/>
      <point x="442" y="-25"/>
      <point x="412" y="-143"/>
    </contour>
  </outline>
</glyph>
<glyph name="afii10059" format="2">
  <advance width="530"/>
  <unicode hex="040A"/>
  <anchor x="250" y="0" name="bottom"/>
  <anchor x="165" y="714" name="top"/>
  <outline>
    <contour>
      <point x="40" y="0" type="line"/>
      <point x="66" y="0" type="line"/>
      <point x="66" y="366" type="line"/>
      <point x="274" y="366" type="line"/>
      <point x="276" y="391" type="line"/>
      <point x="66" y="391" type="line"/>
      <point x="66" y="714" type="line"/>
      <point x="40" y="714" type="line"/>
    </contour>
    <contour>
      <point x="263" y="0" type="line"/>
      <point x="340" y="0" type="line" smooth="yes"/>
      <point x="436" y="0"/>
      <point x="490" y="68"/>
      <point x="490" y="201" type="curve" smooth="yes"/>
      <point x="490" y="339"/>
      <point x="433" y="391"/>
      <point x="335" y="391" type="curve" smooth="yes"/>
      <point x="289" y="391" type="line"/>
      <point x="289" y="714" type="line"/>
      <point x="263" y="714" type="line"/>
    </contour>
    <contour>
      <point x="289" y="25" type="line"/>
      <point x="289" y="366" type="line"/>
      <point x="330" y="366" type="line" smooth="yes"/>
      <point x="420" y="366"/>
      <point x="463" y="320"/>
      <point x="463" y="200" type="curve" smooth="yes"/>
      <point x="463" y="83"/>
      <point x="422" y="25"/>
      <point x="335" y="25" type="curve" smooth="yes"/>
    </contour>
  </outline>
</glyph>
<glyph name="afii10060" format="2">
  <advance width="530"/>
  <unicode hex="040B"/>
  <anchor x="269" y="0" name="bottom"/>
  <anchor x="190" y="714" name="top"/>
  <outline>
    <contour>
      <point x="109" y="0" type="line"/>
      <point x="135" y="0" type="line"/>
      <point x="135" y="398" type="line"/>
      <point x="253" y="398" type="line" smooth="yes"/>
      <point x="354" y="398"/>
      <point x="394" y="356"/>
      <point x="394" y="258" type="curve" smooth="yes"/>
      <point x="394" y="0" type="line"/>
      <point x="420" y="0" type="line"/>
      <point x="420" y="262" type="line" smooth="yes"/>
      <point x="420" y="377"/>
      <point x="369" y="423"/>
      <point x="259" y="423" type="curve" smooth="yes"/>
      <point x="135" y="423" type="line"/>
      <point x="135" y="689" type="line"/>
      <point x="343" y="689" type="line"/>
      <point x="343" y="714" type="line"/>
      <point x="0" y="714" type="line"/>
      <point x="0" y="689" type="line"/>
      <point x="109" y="689" type="line"/>
    </contour>
  </outline>
</glyph>
<glyph name="afii10021" format="2">
  <advance width="530"/>
  <unicode hex="0414"/>
  <anchor x="250" y="-175" name="bottom"/>
  <anchor x="300" y="714" name="top"/>
  <outline>
    <contour>
      <point x="20" y="-175" type="line"/>
      <point x="46" y="-175" type="line"/>
      <point x="46" y="0" type="line"/>
      <point x="444" y="0" type="line"/>
      <point x="444" y="-175" type="line"/>
      <point x="470" y="-175" type="line"/>
      <point x="470" y="25" type="line"/>
      <point x="415" y="25" type="line"/>
      <point x="415" y="714" type="line"/>
      <point x="184" y="714" type="line"/>
      <point x="177" y="496"/>
      <point x="132" y="201"/>
      <point x="69" y="25" type="curve"/>
      <point x="20" y="25" type="line"/>
    </contour>
    <contour>
      <point x="99" y="25" type="line"/>
      <point x="157" y="197"/>
      <point x="199" y="474"/>
      <point x="209" y="689" type="curve"/>
      <point x="389" y="689" type="line"/>
      <point x="389" y="25" type="line"/>
    </contour>
  </outline>
</glyph>
<glyph name="afii10028" format="2">
  <advance width="530"/>
  <unicode hex="041A"/>
  <anchor x="255" y="0" name="bottom"/>
  <anchor x="480" y="0" name="bottomright"/>
  <anchor x="250" y="714" name="top"/>
  <outline>
    <contour>
      <point x="65" y="0" type="line"/>
      <point x="91" y="0" type="line"/>
      <point x="91" y="369" type="line"/>
      <point x="405" y="0" type="line"/>
      <point x="440" y="0" type="line"/>
      <point x="123" y="372" type="line"/>
      <point x="426" y="714" type="line"/>
      <point x="391" y="714" type="line"/>
      <point x="91" y="372" type="line"/>
      <point x="91" y="714" type="line"/>
      <point x="65" y="714" type="line"/>
    </contour>
  </outline>
</glyph>
<glyph name="afii10038" format="2">
  <advance width="530"/>
  <unicode hex="0424"/>
  <anchor x="250" y="0" name="bottom"/>
  <anchor x="250" y="714" name="top"/>
  <outline>
    <contour>
      <point x="237" y="-10" type="line"/>
      <point x="263" y="-10" type="line"/>
      <point x="263" y="99" type="line"/>
      <point x="376" y="103"/>
      <point x="460" y="192"/>
      <point x="460" y="375" type="curve" smooth="yes"/>
      <point x="460" y="557"/>
      <point x="377" y="635"/>
      <point x="263" y="637" type="curve"/>
      <point x="263" y="724" type="line"/>
      <point x="237" y="724" type="line"/>
      <point x="237" y="637" type="line"/>
      <point x="120" y="633"/>
      <point x="40" y="545"/>
      <point x="40" y="373" type="curve" smooth="yes"/>
      <point x="40" y="189"/>
      <point x="130" y="101"/>
      <point x="237" y="99" type="curve"/>
    </contour>
    <contour>
      <point x="237" y="125" type="line"/>
      <point x="140" y="127"/>
      <point x="67" y="206"/>
      <point x="67" y="372" type="curve" smooth="yes"/>
      <point x="67" y="532"/>
      <point x="137" y="610"/>
      <point x="237" y="612" type="curve"/>
    </contour>
    <contour>
      <point x="263" y="125" type="curve"/>
      <point x="263" y="612" type="line"/>
      <point x="366" y="610"/>
      <point x="433" y="541"/>
      <point x="433" y="376" type="curve" smooth="yes"/>
      <point x="433" y="206"/>
      <point x="361" y="128"/>
    </contour>
  </outline>
</glyph>
<glyph name="afii10040" format="2">
  <advance width="530"/>
  <unicode hex="0426"/>
  <anchor x="250" y="-176" name="bottom"/>
  <anchor x="250" y="714" name="top"/>
  <outline>
    <contour>
      <point x="65" y="0" type="line"/>
      <point x="435" y="0" type="line"/>
      <point x="435" y="714" type="line"/>
      <point x="409" y="714" type="line"/>
      <point x="409" y="25" type="line"/>
      <point x="91" y="25" type="line"/>
      <point x="91" y="714" type="line"/>
      <point x="65" y="714" type="line"/>
    </contour>
    <contour>
      <point x="474" y="-174" type="line"/>
      <point x="500" y="-174" type="line"/>
      <point x="500" y="25" type="line"/>
      <point x="419" y="25" type="line"/>
      <point x="419" y="0" type="line"/>
      <point x="474" y="0" type="line"/>
    </contour>
  </outline>
</glyph>
<glyph name="afii10046" format="2">
  <advance width="530"/>
  <unicode hex="042C"/>
  <anchor x="250" y="0" name="bottom"/>
  <anchor x="250" y="714" name="top"/>
  <outline>
    <contour>
      <point x="95" y="0" type="line"/>
      <point x="233" y="0" type="line" smooth="yes"/>
      <point x="375" y="0"/>
      <point x="455" y="67"/>
      <point x="455" y="203" type="curve" smooth="yes"/>
      <point x="455" y="349"/>
      <point x="365" y="393"/>
      <point x="222" y="393" type="curve" smooth="yes"/>
      <point x="121" y="393" type="line"/>
      <point x="121" y="714" type="line"/>
      <point x="95" y="714" type="line"/>
    </contour>
    <contour>
      <point x="121" y="25" type="line"/>
      <point x="121" y="368" type="line"/>
      <point x="217" y="368" type="line" smooth="yes"/>
      <point x="347" y="368"/>
      <point x="428" y="335"/>
      <point x="428" y="203" type="curve" smooth="yes"/>
      <point x="428" y="78"/>
      <point x="362" y="25"/>
      <point x="226" y="25" type="curve" smooth="yes"/>
    </contour>
  </outline>
</glyph>
<glyph name="afii10048" format="2">
  <advance width="530"/>
  <unicode hex="042E"/>
  <anchor x="250" y="0" name="bottom"/>
  <anchor x="250" y="714" name="top"/>
  <outline>
    <contour>
      <point x="303" y="-10" type="curve" smooth="yes"/>
      <point x="425" y="-10"/>
      <point x="450" y="161"/>
      <point x="450" y="354" type="curve" smooth="yes"/>
      <point x="450" y="575"/>
      <point x="417" y="725"/>
      <point x="302" y="725" type="curve" smooth="yes"/>
      <point x="199" y="725"/>
      <point x="149" y="600"/>
      <point x="149" y="359" type="curve" smooth="yes"/>
      <point x="149" y="143"/>
      <point x="189" y="-10"/>
    </contour>
    <contour>
      <point x="40" y="0" type="line"/>
      <point x="66" y="0" type="line"/>
      <point x="66" y="363" type="line"/>
      <point x="156" y="363" type="line"/>
      <point x="156" y="388" type="line"/>
      <point x="66" y="388" type="line"/>
      <point x="66" y="714" type="line"/>
      <point x="40" y="714" type="line"/>
    </contour>
    <contour>
      <point x="302" y="15" type="curve" smooth="yes"/>
      <point x="208" y="15"/>
      <point x="174" y="155"/>
      <point x="174" y="357" type="curve" smooth="yes"/>
      <point x="174" y="566"/>
      <point x="212" y="700"/>
      <point x="302" y="700" type="curve" smooth="yes"/>
      <point x="397" y="700"/>
      <point x="424" y="564"/>
      <point x="424" y="357" type="curve" smooth="yes"/>
      <point x="424" y="150"/>
      <point x="397" y="15"/>
    </contour>
  </outline>
</glyph>
<glyph name="afii10072" format="2">
  <advance width="530"/>
  <unicode hex="0436"/>
  <anchor x="250" y="0" name="bottom"/>
  <anchor x="480" y="0" name="bottomright"/>
  <anchor x="250" y="528" name="top"/>
  <outline>
    <contour>
      <point x="22" y="0" type="line"/>
      <point x="55" y="0" type="line"/>
      <point x="237" y="272" type="line"/>
      <point x="237" y="0" type="line"/>
      <point x="263" y="0" type="line"/>
      <point x="263" y="272" type="line"/>
      <point x="445" y="0" type="line"/>
      <point x="478" y="0" type="line"/>
      <point x="291" y="274" type="line"/>
      <point x="463" y="528" type="line"/>
      <point x="431" y="528" type="line"/>
      <point x="263" y="276" type="line"/>
      <point x="263" y="528" type="line"/>
      <point x="237" y="528" type="line"/>
      <point x="237" y="276" type="line"/>
      <point x="68" y="528" type="line"/>
      <point x="36" y="528" type="line"/>
      <point x="209" y="275" type="line"/>
    </contour>
  </outline>
</glyph>
<glyph name="afii10074" format="2">
  <advance width="530"/>
  <unicode hex="0438"/>
  <anchor x="280" y="0" name="bottom"/>
  <anchor x="480" y="0" name="bottomright"/>
  <anchor x="250" y="528" name="top"/>
  <outline>
    <contour>
      <point x="85" y="0" type="line"/>
      <point x="118" y="0" type="line"/>
      <point x="389" y="493" type="line"/>
      <point x="389" y="461"/>
      <point x="389" y="435"/>
      <point x="389" y="403" type="curve" smooth="yes"/>
      <point x="389" y="0" type="line"/>
      <point x="415" y="0" type="line"/>
      <point x="415" y="528" type="line"/>
      <point x="381" y="528" type="line"/>
      <point x="110" y="37" type="line"/>
      <point x="111" y="66"/>
      <point x="111" y="89"/>
      <point x="111" y="120" type="curve" smooth="yes"/>
      <point x="111" y="528" type="line"/>
      <point x="85" y="528" type="line"/>
    </contour>
  </outline>
</glyph>
<glyph name="afii10077" format="2">
  <advance width="530"/>
  <unicode hex="043B"/>
  <anchor x="278" y="0" name="bottom"/>
  <anchor x="313" y="528" name="top"/>
  <outline>
    <contour>
      <point x="58" y="-4" type="curve" smooth="yes"/>
      <point x="176" y="-4"/>
      <point x="203" y="169"/>
      <point x="227" y="503" type="curve"/>
      <point x="389" y="503" type="line"/>
      <point x="389" y="0" type="line"/>
      <point x="415" y="0" type="line"/>
      <point x="415" y="528" type="line"/>
      <point x="202" y="528" type="line"/>
      <point x="181" y="180"/>
      <point x="149" y="21"/>
      <point x="58" y="21" type="curve" smooth="yes"/>
      <point x="41" y="21"/>
      <point x="32" y="22"/>
      <point x="25" y="24" type="curve"/>
      <point x="25" y="-1" type="line"/>
      <point x="31" y="-2"/>
      <point x="41" y="-4"/>
    </contour>
  </outline>
</glyph>
<glyph name="afii10086" format="2">
  <advance width="530"/>
  <unicode hex="0444"/>
  <anchor x="250" y="-240" name="bottom"/>
  <anchor x="250" y="760" name="top"/>
  <outline>
    <contour>
      <point x="237" y="-240" type="line"/>
      <point x="263" y="-240" type="line"/>
      <point x="263" y="-8" type="line"/>
      <point x="376" y="1"/>
      <point x="440" y="113"/>
      <point x="440" y="265" type="curve" smooth="yes"/>
      <point x="440" y="428"/>
      <point x="377" y="529"/>
      <point x="263" y="536" type="curve"/>
      <point x="263" y="760" type="line"/>
      <point x="237" y="760" type="line"/>
      <point x="237" y="536" type="line"/>
      <point x="124" y="528"/>
      <point x="60" y="426"/>
      <point x="60" y="265" type="curve" smooth="yes"/>
      <point x="60" y="102"/>
      <point x="123" y="-3"/>
      <point x="237" y="-8" type="curve"/>
    </contour>
    <contour>
      <point x="237" y="17" type="line"/>
      <point x="141" y="21"/>
      <point x="87" y="113"/>
      <point x="87" y="265" type="curve" smooth="yes"/>
      <point x="87" y="411"/>
      <point x="140" y="506"/>
      <point x="237" y="511" type="curve"/>
    </contour>
    <contour>
      <point x="263" y="17" type="curve"/>
      <point x="263" y="511" type="line"/>
      <point x="361" y="505"/>
      <point x="413" y="414"/>
      <point x="413" y="265" type="curve" smooth="yes"/>
      <point x="413" y="124"/>
      <point x="358" y="23"/>
    </contour>
  </outline>
</glyph>
<glyph name="afii10088" format="2">
  <advance width="530"/>
  <unicode hex="0446"/>
  <anchor x="261" y="-135" name="bottom"/>
  <anchor x="249" y="528" name="top"/>
  <outline>
    <contour>
      <point x="437" y="-175" type="line"/>
      <point x="463" y="-175" type="line"/>
      <point x="463" y="25" type="line"/>
      <point x="408" y="25" type="line"/>
      <point x="408" y="0" type="line"/>
      <point x="437" y="0" type="line"/>
    </contour>
    <contour>
      <point x="85" y="528" type="line"/>
      <point x="85" y="0" type="line"/>
      <point x="415" y="0" type="line"/>
      <point x="415" y="528" type="line"/>
      <point x="389" y="528" type="line"/>
      <point x="389" y="25" type="line"/>
      <point x="111" y="25" type="line"/>
      <point x="111" y="528" type="line"/>
    </contour>
  </outline>
</glyph>
<glyph name="afii10089" format="2">
  <advance width="530"/>
  <unicode hex="0447"/>
  <anchor x="250" y="0" name="bottom"/>
  <anchor x="480" y="0" name="bottomright"/>
  <anchor x="250" y="528" name="top"/>
  <outline>
    <contour>
      <point x="389" y="0" type="line"/>
      <point x="415" y="0" type="line"/>
      <point x="415" y="528" type="line"/>
      <point x="389" y="528" type="line"/>
      <point x="389" y="278" type="line"/>
      <point x="347" y="237"/>
      <point x="300" y="211"/>
      <point x="238" y="211" type="curve" smooth="yes"/>
      <point x="158" y="211"/>
      <point x="111" y="246"/>
      <point x="111" y="342" type="curve" smooth="yes"/>
      <point x="111" y="528" type="line"/>
      <point x="85" y="528" type="line"/>
      <point x="85" y="335" type="line" smooth="yes"/>
      <point x="85" y="238"/>
      <point x="136" y="186"/>
      <point x="235" y="186" type="curve" smooth="yes"/>
      <point x="297" y="186"/>
      <point x="345" y="209"/>
      <point x="389" y="249" type="curve"/>
    </contour>
  </outline>
</glyph>
<glyph name="afii10091" format="2">
  <advance width="530"/>
  <unicode hex="0449"/>
  <anchor x="250" y="-141" name="bottom"/>
  <anchor x="250" y="528" name="top"/>
  <outline>
    <contour>
      <point x="474" y="-175" type="line"/>
      <point x="500" y="-175" type="line"/>
      <point x="500" y="25" type="line"/>
      <point x="415" y="25" type="line"/>
      <point x="415" y="0" type="line"/>
      <point x="474" y="0" type="line"/>
    </contour>
    <component base="afii10090"/>
  </outline>
</glyph>
<glyph name="uni0461" format="2">
  <advance width="530"/>
  <unicode hex="0461"/>
  <anchor x="250" y="0" name="bottom"/>
  <anchor x="250" y="528" name="top"/>
  <outline>
    <contour>
      <point x="128" y="-6" type="curve"/>
      <point x="156" y="-6" type="line"/>
      <point x="246" y="327" type="line"/>
      <point x="266" y="218"/>
      <point x="299" y="105"/>
      <point x="349" y="-6" type="curve"/>
      <point x="374" y="-6" type="line"/>
      <point x="442" y="144"/>
      <point x="476" y="328"/>
      <point x="479" y="528" type="curve"/>
      <point x="450" y="528" type="line"/>
      <point x="447" y="337"/>
      <point x="413" y="157"/>
      <point x="362" y="31" type="curve"/>
      <point x="361" y="31" type="line"/>
      <point x="315" y="141"/>
      <point x="253" y="343"/>
      <point x="253" y="528" type="curve"/>
      <point x="225" y="528" type="line"/>
      <point x="226" y="485"/>
      <point x="229" y="430"/>
      <point x="236" y="381" type="curve"/>
      <point x="162" y="115" type="line" smooth="yes"/>
      <point x="150" y="73"/>
      <point x="145" y="54"/>
      <point x="140" y="34" type="curve"/>
      <point x="139" y="34" type="line"/>
      <point x="94" y="151"/>
      <point x="55" y="332"/>
      <point x="45" y="528" type="curve"/>
      <point x="17" y="528" type="line"/>
      <point x="29" y="323"/>
      <point x="67" y="145"/>
    </contour>
  </outline>
</glyph>
<glyph name="uni0464" format="2">
  <advance width="530"/>
  <unicode hex="0464"/>
  <anchor x="250" y="0" name="bottom"/>
  <anchor x="250" y="714" name="top"/>
  <outline>
    <contour>
      <point x="387" y="-10" type="curve" smooth="yes"/>
      <point x="427" y="-10"/>
      <point x="447" y="-3"/>
      <point x="466" y="6" type="curve"/>
      <point x="466" y="32" type="line"/>
      <point x="445" y="22"/>
      <point x="422" y="15"/>
      <point x="388" y="15" type="curve" smooth="yes"/>
      <point x="285" y="15"/>
      <point x="225" y="111"/>
      <point x="225" y="363" type="curve"/>
      <point x="425" y="363" type="line"/>
      <point x="425" y="388" type="line"/>
      <point x="226" y="388" type="line"/>
      <point x="232" y="575"/>
      <point x="282" y="699"/>
      <point x="396" y="699" type="curve" smooth="yes"/>
      <point x="427" y="699"/>
      <point x="443" y="693"/>
      <point x="467" y="683" type="curve"/>
      <point x="479" y="706" type="line"/>
      <point x="454" y="717"/>
      <point x="435" y="724"/>
      <point x="396" y="724" type="curve" smooth="yes"/>
      <point x="265" y="724"/>
      <point x="203" y="592"/>
      <point x="198" y="388" type="curve"/>
      <point x="89" y="388" type="line"/>
      <point x="89" y="714" type="line"/>
      <point x="63" y="714" type="line"/>
      <point x="63" y="0" type="line"/>
      <point x="89" y="0" type="line"/>
      <point x="89" y="363" type="line"/>
      <point x="198" y="363" type="line"/>
      <point x="198" y="100"/>
      <point x="261" y="-10"/>
    </contour>
  </outline>
</glyph>
<glyph name="uni0465" format="2">
  <advance width="530"/>
  <unicode hex="0465"/>
  <anchor x="250" y="0" name="bottom"/>
  <anchor x="250" y="528" name="top"/>
  <outline>
    <contour>
      <point x="374" y="-10" type="curve" smooth="yes"/>
      <point x="406" y="-10"/>
      <point x="435" y="-2"/>
      <point x="453" y="5" type="curve"/>
      <point x="453" y="31" type="line"/>
      <point x="428" y="22"/>
      <point x="403" y="15"/>
      <point x="376" y="15" type="curve" smooth="yes"/>
      <point x="289" y="15"/>
      <point x="239" y="93"/>
      <point x="239" y="263" type="curve"/>
      <point x="393" y="263" type="line"/>
      <point x="393" y="289" type="line"/>
      <point x="239" y="289" type="line"/>
      <point x="241" y="438"/>
      <point x="295" y="512"/>
      <point x="382" y="512" type="curve" smooth="yes"/>
      <point x="404" y="512"/>
      <point x="427" y="507"/>
      <point x="443" y="499" type="curve"/>
      <point x="452" y="522" type="line"/>
      <point x="429" y="532"/>
      <point x="405" y="537"/>
      <point x="380" y="537" type="curve" smooth="yes"/>
      <point x="276" y="537"/>
      <point x="216" y="449"/>
      <point x="212" y="288" type="curve"/>
      <point x="104" y="288" type="line"/>
      <point x="104" y="527" type="line"/>
      <point x="78" y="527" type="line"/>
      <point x="78" y="0" type="line"/>
      <point x="104" y="0" type="line"/>
      <point x="104" y="263" type="line"/>
      <point x="212" y="263" type="line"/>
      <point x="213" y="90"/>
      <point x="262" y="-10"/>
    </contour>
  </outline>
</glyph>
<glyph name="uni0468" format="2">
  <advance width="530"/>
  <unicode hex="0468"/>
  <anchor x="355" y="0" name="bottom"/>
  <anchor x="355" y="714" name="top"/>
  <outline>
    <contour>
      <point x="-151" y="0" type="line"/>
      <point x="-125" y="0" type="line"/>
      <point x="-125" y="341" type="line"/>
      <point x="191" y="341" type="line"/>
      <point x="55" y="0" type="line"/>
      <point x="84" y="0" type="line"/>
      <point x="219" y="341" type="line"/>
      <point x="342" y="341" type="line"/>
      <point x="342" y="0" type="line"/>
      <point x="369" y="0" type="line"/>
      <point x="369" y="341" type="line"/>
      <point x="484" y="341" type="line"/>
      <point x="621" y="0" type="line"/>
      <point x="651" y="0" type="line"/>
      <point x="366" y="714" type="line"/>
      <point x="340" y="714" type="line"/>
      <point x="201" y="366" type="line"/>
      <point x="-125" y="366" type="line"/>
      <point x="-125" y="714" type="line"/>
      <point x="-151" y="714" type="line"/>
    </contour>
    <contour>
      <point x="230" y="366" type="line"/>
      <point x="311" y="571" type="line" smooth="yes"/>
      <point x="329" y="616"/>
      <point x="342" y="647"/>
      <point x="352" y="677" type="curve"/>
      <point x="363" y="647"/>
      <point x="378" y="609"/>
      <point x="393" y="571" type="curve" smooth="yes"/>
      <point x="475" y="366" type="line"/>
    </contour>
  </outline>
</glyph>
<glyph name="uni0469" format="2">
  <advance width="530"/>
  <unicode hex="0469"/>
  <anchor x="316" y="0" name="bottom"/>
  <anchor x="316" y="527" name="top"/>
  <outline>
    <contour>
      <point x="71" y="0" type="line"/>
      <point x="97" y="0" type="line"/>
      <point x="97" y="263" type="line"/>
      <point x="225" y="263" type="line"/>
      <point x="151" y="0" type="line"/>
      <point x="178" y="0" type="line"/>
      <point x="252" y="264" type="line"/>
      <point x="304" y="264" type="line"/>
      <point x="304" y="0" type="line"/>
      <point x="329" y="0" type="line"/>
      <point x="329" y="264" type="line"/>
      <point x="380" y="264" type="line"/>
      <point x="456" y="0" type="line"/>
      <point x="482" y="0" type="line"/>
      <point x="333" y="527" type="line"/>
      <point x="300" y="527" type="line"/>
      <point x="233" y="288" type="line"/>
      <point x="97" y="288" type="line"/>
      <point x="97" y="527" type="line"/>
      <point x="71" y="527" type="line"/>
    </contour>
    <contour>
      <point x="258" y="288" type="line"/>
      <point x="305" y="456" type="line" smooth="yes"/>
      <point x="309" y="471"/>
      <point x="312" y="482"/>
      <point x="315" y="496" type="curve"/>
      <point x="318" y="496" type="line"/>
      <point x="321" y="482"/>
      <point x="324" y="470"/>
      <point x="328" y="456" type="curve" smooth="yes"/>
      <point x="375" y="288" type="line"/>
    </contour>
  </outline>
</glyph>
<glyph name="uni047C" format="2">
  <advance width="530"/>
  <unicode hex="047C"/>
  <outline>
    <contour>
      <point x="118" y="920" type="line"/>
      <point x="143" y="920" type="line"/>
      <point x="143" y="963"/>
      <point x="158" y="982"/>
      <point x="195" y="982" type="curve" smooth="yes"/>
      <point x="263" y="982"/>
      <point x="291" y="920"/>
      <point x="383" y="920" type="curve" smooth="yes"/>
      <point x="387" y="920" type="line"/>
      <point x="387" y="945" type="line"/>
      <point x="383" y="945" type="line" smooth="yes"/>
      <point x="302" y="945"/>
      <point x="269" y="1007"/>
      <point x="194" y="1007" type="curve" smooth="yes"/>
      <point x="142" y="1007"/>
      <point x="118" y="977"/>
      <point x="118" y="927" type="curve" smooth="yes"/>
    </contour>
    <contour>
      <point x="181" y="769" type="line"/>
      <point x="238" y="789"/>
      <point x="265" y="825"/>
      <point x="265" y="869" type="curve" smooth="yes"/>
      <point x="265" y="903"/>
      <point x="249" y="925"/>
      <point x="225" y="925" type="curve" smooth="yes"/>
      <point x="211" y="925"/>
      <point x="200" y="917"/>
      <point x="200" y="899" type="curve" smooth="yes"/>
      <point x="200" y="865"/>
      <point x="237" y="872"/>
      <point x="237" y="847" type="curve" smooth="yes"/>
      <point x="237" y="828"/>
      <point x="217" y="805"/>
      <point x="181" y="791" type="curve"/>
    </contour>
    <component base="uniA64C"/>
  </outline>
</glyph>
<glyph name="uni0481" format="2">
  <advance width="530"/>
  <unicode hex="0481"/>
  <anchor x="333" y="-240" name="bottom"/>
  <anchor x="307" y="528" name="top"/>
  <outline>
    <contour>
      <point x="323" y="-241" type="line"/>
      <point x="348" y="-241" type="line"/>
      <point x="348" y="16" type="line"/>
      <point x="338" y="15"/>
      <point x="329" y="15"/>
      <point x="320" y="15" type="curve" smooth="yes"/>
      <point x="178" y="15"/>
      <point x="122" y="120"/>
      <point x="122" y="259" type="curve" smooth="yes"/>
      <point x="122" y="418"/>
      <point x="195" y="513"/>
      <point x="313" y="513" type="curve" smooth="yes"/>
      <point x="346" y="513"/>
      <point x="383" y="507"/>
      <point x="412" y="493" type="curve"/>
      <point x="420" y="517" type="line"/>
      <point x="391" y="531"/>
      <point x="354" y="538"/>
      <point x="312" y="538" type="curve" smooth="yes"/>
      <point x="177" y="538"/>
      <point x="95" y="431"/>
      <point x="95" y="259" type="curve" smooth="yes"/>
      <point x="95" y="86"/>
      <point x="171" y="-10"/>
      <point x="323" y="-10" type="curve"/>
    </contour>
  </outline>
</glyph>
<glyph name="uni0482" format="2">
  <advance width="530"/>
  <unicode hex="0482"/>
  <outline>
    <contour>
      <point x="160" y="4" type="line"/>
      <point x="215" y="172" type="line"/>
      <point x="341" y="131" type="line"/>
      <point x="349" y="155" type="line"/>
      <point x="222" y="196" type="line"/>
      <point x="296" y="422" type="line"/>
      <point x="422" y="381" type="line"/>
      <point x="430" y="405" type="line"/>
      <point x="303" y="446" type="line"/>
      <point x="356" y="609" type="line"/>
      <point x="332" y="617" type="line"/>
      <point x="279" y="454" type="line"/>
      <point x="158" y="494" type="line"/>
      <point x="150" y="470" type="line"/>
      <point x="271" y="430" type="line"/>
      <point x="198" y="204" type="line"/>
      <point x="77" y="244" type="line"/>
      <point x="69" y="220" type="line"/>
      <point x="191" y="180" type="line"/>
      <point x="136" y="12" type="line"/>
    </contour>
  </outline>
</glyph>
<glyph name="uni0489" format="2">
  <advance width="530"/>
  <unicode hex="0489"/>
  <outline>
    <contour>
      <point x="214" y="454" type="line"/>
      <point x="243" y="474"/>
      <point x="290" y="506"/>
      <point x="359" y="550" type="curve"/>
      <point x="345" y="566" type="line"/>
      <point x="279" y="539"/>
      <point x="237" y="515"/>
      <point x="193" y="487" type="curve"/>
      <point x="191" y="478" type="line"/>
    </contour>
    <contour>
      <point x="-343" y="-52" type="line"/>
      <point x="-310" y="-39"/>
      <point x="-225" y="5"/>
      <point x="-190" y="24" type="curve"/>
      <point x="-188" y="32" type="line"/>
      <point x="-214" y="61" type="line"/>
      <point x="-243" y="40"/>
      <point x="-291" y="8"/>
      <point x="-360" y="-35" type="curve"/>
    </contour>
    <contour>
      <point x="-301" y="237" type="curve"/>
      <point x="-294" y="241" type="line"/>
      <point x="-294" y="279" type="line"/>
      <point x="-332" y="285"/>
      <point x="-389" y="296"/>
      <point x="-465" y="315" type="curve"/>
      <point x="-465" y="292" type="line"/>
      <point x="-412" y="267"/>
      <point x="-358" y="251"/>
    </contour>
    <contour>
      <point x="-45" y="-188" type="curve"/>
      <point x="-21" y="-188" type="line"/>
      <point x="3" y="-128"/>
      <point x="21" y="-74"/>
      <point x="34" y="-24" type="curve"/>
      <point x="29" y="-17" type="line"/>
      <point x="-10" y="-17" type="line"/>
      <point x="-16" y="-55"/>
      <point x="-27" y="-112"/>
    </contour>
    <contour>
      <point x="296" y="-97" type="curve"/>
      <point x="313" y="-84" type="line"/>
      <point x="284" y="-16"/>
      <point x="261" y="26"/>
      <point x="235" y="68" type="curve"/>
      <point x="226" y="71" type="line"/>
      <point x="200" y="49" type="line"/>
      <point x="223" y="16"/>
      <point x="255" y="-32"/>
    </contour>
    <contour>
      <point x="-229" y="441" type="line"/>
      <point x="-203" y="464" type="line"/>
      <point x="-222" y="489"/>
      <point x="-254" y="538"/>
      <point x="-299" y="610" type="curve"/>
      <point x="-316" y="595" type="line"/>
      <point x="-291" y="532"/>
      <point x="-262" y="486"/>
      <point x="-238" y="443" type="curve"/>
    </contour>
    <contour>
      <point x="464" y="224" type="curve"/>
      <point x="464" y="250" type="line"/>
      <point x="430" y="265"/>
      <point x="345" y="290"/>
      <point x="300" y="301" type="curve"/>
      <point x="293" y="296" type="line"/>
      <point x="293" y="260" type="line"/>
      <point x="331" y="254"/>
      <point x="388" y="243"/>
    </contour>
    <contour>
      <point x="-24" y="557" type="line"/>
      <point x="11" y="557" type="line"/>
      <point x="17" y="595"/>
      <point x="28" y="652"/>
      <point x="46" y="728" type="curve"/>
      <point x="22" y="728" type="line"/>
      <point x="-3" y="664"/>
      <point x="-16" y="622"/>
      <point x="-29" y="564" type="curve"/>
    </contour>
  </outline>
</glyph>
<glyph name="uni048B" format="2">
  <advance width="530"/>
  <unicode hex="048B"/>
  <anchor x="250" y="-173" name="bottom"/>
  <anchor x="250" y="716" name="top"/>
  <anchor x="480" y="0" name="bottomright"/>
  <outline>
    <contour>
      <point x="417" y="-173" type="line"/>
      <point x="444" y="-173" type="line"/>
      <point x="500" y="25" type="line"/>
      <point x="411" y="25" type="line"/>
      <point x="408" y="0" type="line"/>
      <point x="467" y="0" type="line"/>
    </contour>
    <component base="afii10074"/>
    <component base="breve"/>
  </outline>
</glyph>
<glyph name="uni048D" format="2">
  <advance width="530"/>
  <unicode hex="048D"/>
  <anchor x="250" y="0" name="bottom"/>
  <anchor x="143" y="760" name="top"/>
  <outline>
    <contour>
      <point x="131" y="0" type="line"/>
      <point x="274" y="0" type="line" smooth="yes"/>
      <point x="374" y="0"/>
      <point x="427" y="55"/>
      <point x="427" y="144" type="curve" smooth="yes"/>
      <point x="427" y="233"/>
      <point x="375" y="288"/>
      <point x="280" y="288" type="curve" smooth="yes"/>
      <point x="157" y="288" type="line"/>
      <point x="157" y="611" type="line"/>
      <point x="286" y="611" type="line"/>
      <point x="286" y="636" type="line"/>
      <point x="157" y="636" type="line"/>
      <point x="157" y="760" type="line"/>
      <point x="131" y="760" type="line"/>
      <point x="131" y="636" type="line"/>
      <point x="42" y="636" type="line"/>
      <point x="42" y="611" type="line"/>
      <point x="131" y="611" type="line"/>
    </contour>
    <contour>
      <point x="157" y="25" type="line"/>
      <point x="157" y="263" type="line"/>
      <point x="277" y="263" type="line" smooth="yes"/>
      <point x="358" y="263"/>
      <point x="400" y="221"/>
      <point x="400" y="144" type="curve" smooth="yes"/>
      <point x="400" y="69"/>
      <point x="359" y="25"/>
      <point x="271" y="25" type="curve" smooth="yes"/>
    </contour>
  </outline>
</glyph>
<glyph name="uni048E" format="2">
  <advance width="530"/>
  <unicode hex="048E"/>
  <anchor x="250" y="0" name="bottom"/>
  <anchor x="250" y="714" name="top"/>
  <anchor x="500" y="714" name="topright"/>
  <outline>
    <contour>
      <point x="406" y="237" type="line"/>
      <point x="428" y="254" type="line"/>
      <point x="302" y="448" type="line"/>
      <point x="280" y="433" type="line"/>
    </contour>
    <component base="P"/>
  </outline>
</glyph>
<glyph name="uni048F" format="2">
  <advance width="530"/>
  <unicode hex="048F"/>
  <anchor x="250" y="-240" name="bottom"/>
  <anchor x="250" y="528" name="top"/>
  <anchor x="480" y="528" name="topright"/>
  <outline>
    <contour>
      <point x="370" y="-79" type="line"/>
      <point x="392" y="-66" type="line"/>
      <point x="291" y="137" type="line"/>
      <point x="268" y="125" type="line"/>
    </contour>
    <component base="p"/>
  </outline>
</glyph>
<glyph name="afii10098" format="2">
  <advance width="530"/>
  <unicode hex="0491"/>
  <anchor x="250" y="0" name="bottom"/>
  <anchor x="250" y="692" name="top"/>
  <anchor x="480" y="0" name="bottomright"/>
  <outline>
    <contour>
      <point x="412" y="503" type="line"/>
      <point x="437" y="503" type="line"/>
      <point x="437" y="692" type="line"/>
      <point x="412" y="692" type="line"/>
    </contour>
    <component base="afii10068"/>
  </outline>
</glyph>
<glyph name="uni0497" format="2">
  <advance width="530"/>
  <unicode hex="0497"/>
  <anchor x="250" y="-179" name="bottom"/>
  <anchor x="250" y="528" name="top"/>
  <anchor x="480" y="0" name="bottomright"/>
  <outline>
    <contour>
      <point x="462" y="-175" type="line"/>
      <point x="487" y="-175" type="line"/>
      <point x="487" y="25" type="line"/>
      <point x="451" y="25" type="line"/>
      <point x="462" y="0" type="line"/>
    </contour>
    <component base="afii10072"/>
  </outline>
</glyph>
<glyph name="uni049B" format="2">
  <advance width="530"/>
  <unicode hex="049B"/>
  <anchor x="268" y="-177" name="bottom"/>
  <anchor x="250" y="528" name="top"/>
  <anchor x="480" y="0" name="bottomright"/>
  <outline>
    <contour>
      <point x="437" y="-175" type="line"/>
      <point x="463" y="-175" type="line"/>
      <point x="463" y="25" type="line"/>
      <point x="418" y="25" type="line"/>
      <point x="437" y="0" type="line"/>
    </contour>
    <component base="afii10076"/>
  </outline>
</glyph>
<glyph name="uni04A2" format="2">
  <advance width="530"/>
  <unicode hex="04A2"/>
  <anchor x="246" y="-199" name="bottom"/>
  <anchor x="246" y="714" name="top"/>
  <outline>
    <contour>
      <point x="434" y="-173" type="line"/>
      <point x="460" y="-173" type="line"/>
      <point x="460" y="25" type="line"/>
      <point x="408" y="25" type="line"/>
      <point x="408" y="714" type="line"/>
      <point x="382" y="714" type="line"/>
      <point x="382" y="388" type="line"/>
      <point x="104" y="388" type="line"/>
      <point x="104" y="714" type="line"/>
      <point x="78" y="714" type="line"/>
      <point x="78" y="0" type="line"/>
      <point x="104" y="0" type="line"/>
      <point x="104" y="363" type="line"/>
      <point x="382" y="363" type="line"/>
      <point x="382" y="0" type="line"/>
      <point x="434" y="0" type="line"/>
    </contour>
  </outline>
</glyph>
<glyph name="uni04A4" format="2">
  <advance width="530"/>
  <unicode hex="04A4"/>
  <anchor x="222" y="0" name="bottom"/>
  <anchor x="224" y="714" name="top"/>
  <outline>
    <contour>
      <point x="65" y="0" type="line"/>
      <point x="91" y="0" type="line"/>
      <point x="91" y="363" type="line"/>
      <point x="349" y="363" type="line"/>
      <point x="349" y="0" type="line"/>
      <point x="375" y="0" type="line"/>
      <point x="375" y="689" type="line"/>
      <point x="497" y="689" type="line"/>
      <point x="497" y="714" type="line"/>
      <point x="349" y="714" type="line"/>
      <point x="349" y="388" type="line"/>
      <point x="91" y="388" type="line"/>
      <point x="91" y="714" type="line"/>
      <point x="65" y="714" type="line"/>
    </contour>
  </outline>
</glyph>
<glyph name="uni04A5" format="2">
  <advance width="530"/>
  <unicode hex="04A5"/>
  <anchor x="230" y="0" name="bottom"/>
  <anchor x="230" y="528" name="top"/>
  <outline>
    <contour>
      <point x="85" y="0" type="line"/>
      <point x="111" y="0" type="line"/>
      <point x="111" y="263" type="line"/>
      <point x="352" y="263" type="line"/>
      <point x="352" y="0" type="line"/>
      <point x="378" y="0" type="line"/>
      <point x="378" y="503" type="line"/>
      <point x="497" y="503" type="line"/>
      <point x="497" y="528" type="line"/>
      <point x="352" y="528" type="line"/>
      <point x="352" y="288" type="line"/>
      <point x="111" y="288" type="line"/>
      <point x="111" y="528" type="line"/>
      <point x="85" y="528" type="line"/>
    </contour>
  </outline>
</glyph>
<glyph name="uni04A6" format="2">
  <advance width="530"/>
  <unicode hex="04A6"/>
  <anchor x="250" y="-242" name="bottom"/>
  <anchor x="166" y="714" name="top"/>
  <outline>
    <contour>
      <point x="341" y="-242" type="curve" smooth="yes"/>
      <point x="436" y="-242"/>
      <point x="474" y="-124"/>
      <point x="474" y="63" type="curve" smooth="yes"/>
      <point x="474" y="281"/>
      <point x="440" y="391"/>
      <point x="333" y="391" type="curve" smooth="yes"/>
      <point x="317" y="391"/>
      <point x="295" y="388"/>
      <point x="279" y="382" type="curve"/>
      <point x="279" y="714" type="line"/>
      <point x="58" y="714" type="line"/>
      <point x="58" y="0" type="line"/>
      <point x="84" y="0" type="line"/>
      <point x="84" y="689" type="line"/>
      <point x="253" y="689" type="line"/>
      <point x="253" y="0" type="line"/>
      <point x="279" y="0" type="line"/>
      <point x="279" y="356" type="line"/>
      <point x="293" y="361"/>
      <point x="313" y="365"/>
      <point x="334" y="365" type="curve" smooth="yes"/>
      <point x="419" y="365"/>
      <point x="448" y="272"/>
      <point x="448" y="68" type="curve" smooth="yes"/>
      <point x="448" y="-103"/>
      <point x="417" y="-218"/>
      <point x="341" y="-218" type="curve" smooth="yes"/>
      <point x="317" y="-218"/>
      <point x="301" y="-213"/>
      <point x="280" y="-205" type="curve"/>
      <point x="280" y="-230" type="line"/>
      <point x="299" y="-238"/>
      <point x="315" y="-242"/>
    </contour>
  </outline>
</glyph>
<glyph name="uni04AC" format="2">
  <advance width="530"/>
  <unicode hex="04AC"/>
  <anchor x="250" y="-173" name="bottom"/>
  <anchor x="250" y="714" name="top"/>
  <anchor x="480" y="714" name="topright"/>
  <anchor x="250" y="357" name="center"/>
  <outline>
    <contour>
      <point x="287" y="-173" type="line"/>
      <point x="313" y="-173" type="line"/>
      <point x="313" y="25" type="line"/>
      <point x="252" y="25" type="line"/>
      <point x="246" y="0" type="line"/>
      <point x="287" y="0" type="line"/>
    </contour>
    <component base="T"/>
  </outline>
</glyph>
<glyph name="uni04B0" format="2">
  <advance width="530"/>
  <unicode hex="04B0"/>
  <anchor x="250" y="0" name="bottom"/>
  <anchor x="250" y="714" name="top"/>
  <anchor x="20" y="714" name="topleft"/>
  <anchor x="480" y="714" name="topright"/>
  <outline>
    <contour>
      <point x="140" y="212" type="line"/>
      <point x="362" y="212" type="line"/>
      <point x="362" y="237" type="line"/>
      <point x="140" y="237" type="line"/>
    </contour>
    <component base="Y"/>
  </outline>
</glyph>
<glyph name="uni04B2" format="2">
  <advance width="530"/>
  <unicode hex="04B2"/>
  <anchor x="250" y="-173" name="bottom"/>
  <anchor x="250" y="714" name="top"/>
  <anchor x="480" y="714" name="topright"/>
  <outline>
    <contour>
      <point x="442" y="-173" type="line"/>
      <point x="467" y="-173" type="line"/>
      <point x="467" y="25" type="line"/>
      <point x="432" y="25" type="line"/>
      <point x="439" y="0" type="line"/>
      <point x="442" y="0" type="line"/>
    </contour>
    <component base="X"/>
  </outline>
</glyph>
<glyph name="uni04B3" format="2">
  <advance width="530"/>
  <unicode hex="04B3"/>
  <anchor x="250" y="-175" name="bottom"/>
  <anchor x="250" y="528" name="top"/>
  <anchor x="480" y="528" name="topright"/>
  <outline>
    <contour>
      <point x="433" y="-179" type="line" smooth="yes"/>
      <point x="439" y="-176" type="line" smooth="yes"/>
      <point x="459" y="-168" type="line" smooth="yes"/>
      <point x="461" y="-167" type="line" smooth="yes"/>
      <point x="468" y="-163" type="line" smooth="yes"/>
      <point x="539" y="-130" type="line" smooth="yes"/>
    </contour>
    <component base="x"/>
  </outline>
</glyph>
<glyph name="uni04B6" format="2">
  <advance width="530"/>
  <unicode hex="04B6"/>
  <anchor x="250" y="-173" name="bottom"/>
  <anchor x="250" y="714" name="top"/>
  <anchor x="480" y="0" name="bottomright"/>
  <outline>
    <contour>
      <point x="461" y="-173" type="line"/>
      <point x="487" y="-173" type="line"/>
      <point x="487" y="25" type="line"/>
      <point x="426" y="25" type="line"/>
      <point x="420" y="0" type="line"/>
      <point x="461" y="0" type="line"/>
    </contour>
    <component base="afii10041"/>
  </outline>
</glyph>
<glyph name="uni04B9" format="2">
  <advance width="530"/>
  <unicode hex="04B9"/>
  <anchor x="250" y="0" name="bottom"/>
  <anchor x="250" y="528" name="top"/>
  <anchor x="480" y="0" name="bottomright"/>
  <outline>
    <contour>
      <point x="235" y="62" type="line"/>
      <point x="260" y="62" type="line"/>
      <point x="260" y="371" type="line"/>
      <point x="235" y="371" type="line"/>
    </contour>
    <component base="afii10089"/>
  </outline>
</glyph>
<glyph name="uni04BD" format="2">
  <advance width="530"/>
  <unicode hex="04BD"/>
  <anchor x="310" y="0" name="bottom"/>
  <anchor x="310" y="528" name="top"/>
  <outline>
    <contour>
      <point x="317" y="-10" type="curve" smooth="yes"/>
      <point x="374" y="-10"/>
      <point x="408" y="4"/>
      <point x="436" y="20" type="curve"/>
      <point x="436" y="47" type="line"/>
      <point x="409" y="32"/>
      <point x="377" y="15"/>
      <point x="319" y="15" type="curve" smooth="yes"/>
      <point x="209" y="15"/>
      <point x="160" y="99"/>
      <point x="159" y="272" type="curve"/>
      <point x="462" y="272" type="line"/>
      <point x="462" y="307" type="line" smooth="yes"/>
      <point x="462" y="427"/>
      <point x="425" y="537"/>
      <point x="308" y="537" type="curve" smooth="yes"/>
      <point x="196" y="537"/>
      <point x="137" y="451"/>
      <point x="132" y="297" type="curve"/>
      <point x="120" y="297" type="line" smooth="yes"/>
      <point x="82" y="297"/>
      <point x="56" y="316"/>
      <point x="56" y="360" type="curve" smooth="yes"/>
      <point x="56" y="381"/>
      <point x="62" y="397"/>
      <point x="68" y="410" type="curve"/>
      <point x="42" y="410" type="line"/>
      <point x="37" y="399"/>
      <point x="31" y="384"/>
      <point x="31" y="360" type="curve" smooth="yes"/>
      <point x="31" y="301"/>
      <point x="67" y="272"/>
      <point x="132" y="272" type="curve"/>
      <point x="132" y="88"/>
      <point x="190" y="-10"/>
    </contour>
    <contour>
      <point x="159" y="297" type="line"/>
      <point x="163" y="430"/>
      <point x="207" y="512"/>
      <point x="309" y="512" type="curve" smooth="yes"/>
      <point x="407" y="512"/>
      <point x="436" y="406"/>
      <point x="436" y="297" type="curve"/>
    </contour>
  </outline>
</glyph>
<glyph name="uni04C3" format="2">
  <advance width="530"/>
  <unicode hex="04C3"/>
  <anchor x="241" y="-242" name="bottom"/>
  <anchor x="240" y="714" name="top"/>
  <outline>
    <contour>
      <point x="219" y="-242" type="curve" smooth="yes"/>
      <point x="382" y="-242"/>
      <point x="434" y="-78"/>
      <point x="434" y="69" type="curve" smooth="yes"/>
      <point x="434" y="248"/>
      <point x="374" y="391"/>
      <point x="210" y="391" type="curve" smooth="yes"/>
      <point x="179" y="391"/>
      <point x="152" y="385"/>
      <point x="135" y="379" type="curve"/>
      <point x="407" y="714" type="line"/>
      <point x="375" y="714" type="line"/>
      <point x="173" y="466" type="line" smooth="yes"/>
      <point x="151" y="438"/>
      <point x="122" y="400"/>
      <point x="104" y="375" type="curve"/>
      <point x="104" y="714" type="line"/>
      <point x="78" y="714" type="line"/>
      <point x="78" y="0" type="line"/>
      <point x="104" y="0" type="line"/>
      <point x="104" y="344" type="line"/>
      <point x="123" y="355"/>
      <point x="162" y="366"/>
      <point x="204" y="366" type="curve" smooth="yes"/>
      <point x="358" y="366"/>
      <point x="407" y="232"/>
      <point x="407" y="70" type="curve" smooth="yes"/>
      <point x="407" y="-63"/>
      <point x="362" y="-217"/>
      <point x="219" y="-217" type="curve" smooth="yes"/>
      <point x="191" y="-217"/>
      <point x="164" y="-207"/>
      <point x="135" y="-188" type="curve"/>
      <point x="135" y="-217" type="line"/>
      <point x="160" y="-234"/>
      <point x="189" y="-242"/>
    </contour>
  </outline>
</glyph>
<glyph name="uni04C4" format="2">
  <advance width="530"/>
  <unicode hex="04C4"/>
  <anchor x="280" y="-242" name="bottom"/>
  <anchor x="232" y="528" name="top"/>
  <outline>
    <contour>
      <point x="213" y="-242" type="curve" smooth="yes"/>
      <point x="328" y="-242"/>
      <point x="408" y="-152"/>
      <point x="408" y="14" type="curve" smooth="yes"/>
      <point x="408" y="202"/>
      <point x="328" y="294"/>
      <point x="157" y="294" type="curve"/>
      <point x="382" y="527" type="line"/>
      <point x="349" y="527" type="line"/>
      <point x="116" y="282" type="line"/>
      <point x="116" y="527" type="line"/>
      <point x="91" y="527" type="line"/>
      <point x="91" y="0" type="line"/>
      <point x="116" y="0" type="line"/>
      <point x="116" y="266" type="line"/>
      <point x="130" y="269"/>
      <point x="146" y="271"/>
      <point x="168" y="271" type="curve" smooth="yes"/>
      <point x="293" y="271"/>
      <point x="381" y="196"/>
      <point x="381" y="16" type="curve" smooth="yes"/>
      <point x="381" y="-139"/>
      <point x="312" y="-217"/>
      <point x="214" y="-217" type="curve" smooth="yes"/>
      <point x="179" y="-217"/>
      <point x="154" y="-209"/>
      <point x="134" y="-197" type="curve"/>
      <point x="134" y="-226" type="line"/>
      <point x="156" y="-235"/>
      <point x="175" y="-242"/>
    </contour>
  </outline>
</glyph>
<glyph name="uni04C7" format="2">
  <advance width="530"/>
  <unicode hex="04C7"/>
  <anchor x="250" y="-240" name="bottom"/>
  <anchor x="250" y="714" name="top"/>
  <outline>
    <contour>
      <point x="268" y="-242" type="curve" smooth="yes"/>
      <point x="387" y="-242"/>
      <point x="435" y="-155"/>
      <point x="435" y="-42" type="curve" smooth="yes"/>
      <point x="435" y="714" type="line"/>
      <point x="409" y="714" type="line"/>
      <point x="409" y="388" type="line"/>
      <point x="91" y="388" type="line"/>
      <point x="91" y="714" type="line"/>
      <point x="65" y="714" type="line"/>
      <point x="65" y="0" type="line"/>
      <point x="91" y="0" type="line"/>
      <point x="91" y="363" type="line"/>
      <point x="409" y="363" type="line"/>
      <point x="409" y="-39" type="line" smooth="yes"/>
      <point x="409" y="-150"/>
      <point x="370" y="-217"/>
      <point x="268" y="-217" type="curve" smooth="yes"/>
      <point x="235" y="-217"/>
      <point x="204" y="-208"/>
      <point x="179" y="-197" type="curve"/>
      <point x="179" y="-224" type="line"/>
      <point x="202" y="-234"/>
      <point x="234" y="-242"/>
    </contour>
  </outline>
</glyph>
<glyph name="uni04CC" format="2">
  <advance width="530"/>
  <unicode hex="04CC"/>
  <anchor x="250" y="-240" name="bottom"/>
  <anchor x="250" y="528" name="top"/>
  <anchor x="480" y="0" name="bottomright"/>
  <outline>
    <contour>
      <point x="348" y="-173" type="line"/>
      <point x="374" y="-173" type="line"/>
      <point x="374" y="0" type="line"/>
      <point x="405" y="0" type="line"/>
      <point x="399" y="25" type="line"/>
      <point x="348" y="25" type="line"/>
    </contour>
    <component base="afii10089"/>
  </outline>
</glyph>
<glyph name="uni04F6" format="2">
  <advance width="530"/>
  <unicode hex="04F6"/>
  <anchor x="163" y="-240" name="bottom"/>
  <anchor x="250" y="714" name="top"/>
  <anchor x="480" y="0" name="bottomright"/>
  <outline>
    <contour>
      <point x="148" y="-173" type="line"/>
      <point x="174" y="-173" type="line"/>
      <point x="174" y="25" type="line"/>
      <point x="113" y="25" type="line"/>
      <point x="107" y="0" type="line"/>
      <point x="148" y="0" type="line"/>
    </contour>
    <component base="afii10020"/>
  </outline>
</glyph>
<glyph name="uni0502" format="2">
  <advance width="530"/>
  <unicode hex="0502"/>
  <anchor x="250" y="0" name="bottom"/>
  <anchor x="250" y="714" name="top"/>
  <outline>
    <contour>
      <point x="148" y="-10" type="curve" smooth="yes"/>
      <point x="208" y="-10"/>
      <point x="239" y="30"/>
      <point x="249" y="73" type="curve"/>
      <point x="258" y="26"/>
      <point x="294" y="-10"/>
      <point x="350" y="-10" type="curve" smooth="yes"/>
      <point x="419" y="-10"/>
      <point x="458" y="36"/>
      <point x="458" y="122" type="curve" smooth="yes"/>
      <point x="458" y="414" type="line"/>
      <point x="432" y="414" type="line"/>
      <point x="432" y="126" type="line" smooth="yes"/>
      <point x="432" y="50"/>
      <point x="402" y="15"/>
      <point x="350" y="15" type="curve" smooth="yes"/>
      <point x="297" y="15"/>
      <point x="263" y="53"/>
      <point x="263" y="152" type="curve" smooth="yes"/>
      <point x="263" y="714" type="line"/>
      <point x="237" y="714" type="line"/>
      <point x="237" y="413" type="line"/>
      <point x="206" y="413" type="line" smooth="yes"/>
      <point x="69" y="413"/>
      <point x="30" y="333"/>
      <point x="30" y="194" type="curve" smooth="yes"/>
      <point x="30" y="55"/>
      <point x="73" y="-10"/>
    </contour>
    <contour>
      <point x="148" y="15" type="curve" smooth="yes"/>
      <point x="94" y="15"/>
      <point x="57" y="65"/>
      <point x="57" y="194" type="curve" smooth="yes"/>
      <point x="57" y="325"/>
      <point x="89" y="388"/>
      <point x="202" y="388" type="curve" smooth="yes"/>
      <point x="237" y="388" type="line"/>
      <point x="237" y="152" type="line" smooth="yes"/>
      <point x="237" y="59"/>
      <point x="206" y="15"/>
    </contour>
  </outline>
</glyph>
<glyph name="uni0503" format="2">
  <advance width="530"/>
  <unicode hex="0503"/>
  <anchor x="283" y="0" name="bottom"/>
  <anchor x="283" y="760" name="top"/>
  <outline>
    <contour>
      <point x="168" y="-10" type="curve" smooth="yes"/>
      <point x="228" y="-10"/>
      <point x="268" y="33"/>
      <point x="279" y="97" type="curve"/>
      <point x="281" y="37"/>
      <point x="305" y="-10"/>
      <point x="367" y="-10" type="curve" smooth="yes"/>
      <point x="431" y="-10"/>
      <point x="463" y="27"/>
      <point x="463" y="135" type="curve" smooth="yes"/>
      <point x="463" y="342" type="line"/>
      <point x="436" y="342" type="line"/>
      <point x="436" y="138" type="line" smooth="yes"/>
      <point x="436" y="48"/>
      <point x="416" y="15"/>
      <point x="369" y="15" type="curve" smooth="yes"/>
      <point x="323" y="15"/>
      <point x="297" y="52"/>
      <point x="297" y="140" type="curve" smooth="yes"/>
      <point x="297" y="760" type="line"/>
      <point x="270" y="760" type="line"/>
      <point x="270" y="513" type="line" smooth="yes"/>
      <point x="270" y="491"/>
      <point x="270" y="496"/>
      <point x="271" y="471" type="curve"/>
      <point x="270" y="471" type="line"/>
      <point x="256" y="504"/>
      <point x="232" y="537"/>
      <point x="173" y="537" type="curve" smooth="yes"/>
      <point x="85" y="537"/>
      <point x="35" y="463"/>
      <point x="35" y="256" type="curve" smooth="yes"/>
      <point x="35" y="61"/>
      <point x="74" y="-10"/>
    </contour>
    <contour>
      <point x="168" y="15" type="curve" smooth="yes"/>
      <point x="93" y="15"/>
      <point x="62" y="83"/>
      <point x="62" y="256" type="curve" smooth="yes"/>
      <point x="62" y="445"/>
      <point x="102" y="511"/>
      <point x="174" y="511" type="curve" smooth="yes"/>
      <point x="235" y="511"/>
      <point x="270" y="462"/>
      <point x="270" y="345" type="curve" smooth="yes"/>
      <point x="270" y="201" type="line" smooth="yes"/>
      <point x="270" y="76"/>
      <point x="236" y="15"/>
    </contour>
  </outline>
</glyph>
<glyph name="uni0507" format="2">
  <advance width="530"/>
  <unicode hex="0507"/>
  <anchor x="257" y="-176" name="bottom"/>
  <anchor x="210" y="528" name="top"/>
  <outline>
    <contour>
      <point x="428" y="-176" type="line"/>
      <point x="454" y="-176" type="line"/>
      <point x="454" y="25" type="line"/>
      <point x="384" y="25" type="line"/>
      <point x="384" y="150" type="line" smooth="yes"/>
      <point x="384" y="241"/>
      <point x="328" y="274"/>
      <point x="260" y="282" type="curve"/>
      <point x="260" y="284" type="line"/>
      <point x="317" y="298"/>
      <point x="365" y="338"/>
      <point x="365" y="404" type="curve" smooth="yes"/>
      <point x="365" y="489"/>
      <point x="311" y="538"/>
      <point x="213" y="538" type="curve" smooth="yes"/>
      <point x="145" y="538"/>
      <point x="86" y="516"/>
      <point x="41" y="494" type="curve"/>
      <point x="51" y="470" type="line"/>
      <point x="96" y="492"/>
      <point x="152" y="513"/>
      <point x="213" y="513" type="curve" smooth="yes"/>
      <point x="293" y="513"/>
      <point x="338" y="474"/>
      <point x="338" y="404" type="curve" smooth="yes"/>
      <point x="338" y="330"/>
      <point x="267" y="294"/>
      <point x="201" y="294" type="curve" smooth="yes"/>
      <point x="134" y="294" type="line"/>
      <point x="134" y="269" type="line"/>
      <point x="201" y="269" type="line" smooth="yes"/>
      <point x="288" y="269"/>
      <point x="358" y="239"/>
      <point x="358" y="151" type="curve" smooth="yes"/>
      <point x="358" y="0" type="line"/>
      <point x="428" y="0" type="line"/>
    </contour>
  </outline>
</glyph>
<glyph name="uni0509" format="2">
  <advance width="530"/>
  <unicode hex="0509"/>
  <anchor x="315" y="0" name="bottom"/>
  <anchor x="192" y="528" name="top"/>
  <outline>
    <contour>
      <point x="362" y="-10" type="curve" smooth="yes"/>
      <point x="438" y="-10"/>
      <point x="470" y="44"/>
      <point x="470" y="158" type="curve" smooth="yes"/>
      <point x="470" y="342" type="line"/>
      <point x="444" y="342" type="line"/>
      <point x="444" y="160" type="line" smooth="yes"/>
      <point x="444" y="60"/>
      <point x="421" y="15"/>
      <point x="362" y="15" type="curve" smooth="yes"/>
      <point x="302" y="15"/>
      <point x="278" y="62"/>
      <point x="278" y="160" type="curve"/>
      <point x="278" y="528" type="line"/>
      <point x="106" y="528" type="line"/>
      <point x="100" y="192"/>
      <point x="87" y="20"/>
      <point x="11" y="20" type="curve" smooth="yes"/>
      <point x="5" y="20"/>
      <point x="1" y="20"/>
      <point x="-5" y="22" type="curve"/>
      <point x="-5" y="-2" type="line"/>
      <point x="1" y="-4"/>
      <point x="5" y="-4"/>
      <point x="12" y="-4" type="curve" smooth="yes"/>
      <point x="120" y="-4"/>
      <point x="119" y="181"/>
      <point x="131" y="503" type="curve"/>
      <point x="252" y="503" type="line"/>
      <point x="252" y="159" type="line"/>
      <point x="252" y="45"/>
      <point x="284" y="-10"/>
    </contour>
  </outline>
</glyph>
<glyph name="uni050C" format="2">
  <advance width="530"/>
  <unicode hex="050C"/>
  <anchor x="257" y="0" name="bottom"/>
  <anchor x="274" y="714" name="top"/>
  <outline>
    <contour>
      <point x="268" y="-10" type="curve" smooth="yes"/>
      <point x="412" y="-10"/>
      <point x="444" y="133"/>
      <point x="444" y="313" type="curve" smooth="yes"/>
      <point x="444" y="351" type="line"/>
      <point x="293" y="351" type="line"/>
      <point x="293" y="326" type="line"/>
      <point x="419" y="326" type="line"/>
      <point x="419" y="106"/>
      <point x="372" y="15"/>
      <point x="267" y="15" type="curve" smooth="yes"/>
      <point x="146" y="15"/>
      <point x="81" y="141"/>
      <point x="81" y="358" type="curve" smooth="yes"/>
      <point x="81" y="570"/>
      <point x="145" y="699"/>
      <point x="278" y="699" type="curve" smooth="yes"/>
      <point x="318" y="699"/>
      <point x="360" y="687"/>
      <point x="401" y="657" type="curve"/>
      <point x="416" y="679" type="line"/>
      <point x="372" y="711"/>
      <point x="328" y="724"/>
      <point x="279" y="724" type="curve" smooth="yes"/>
      <point x="123" y="724"/>
      <point x="54" y="582"/>
      <point x="54" y="358" type="curve" smooth="yes"/>
      <point x="54" y="139"/>
      <point x="123" y="-10"/>
    </contour>
  </outline>
</glyph>
<glyph name="uni050D" format="2">
  <advance width="530"/>
  <unicode hex="050D"/>
  <anchor x="247" y="0" name="bottom"/>
  <anchor x="266" y="528" name="top"/>
  <outline>
    <contour>
      <point x="246" y="-10" type="curve" smooth="yes"/>
      <point x="372" y="-10"/>
      <point x="427" y="72"/>
      <point x="427" y="227" type="curve" smooth="yes"/>
      <point x="427" y="253" type="line"/>
      <point x="258" y="253" type="line"/>
      <point x="258" y="228" type="line"/>
      <point x="401" y="228" type="line"/>
      <point x="401" y="100"/>
      <point x="359" y="15"/>
      <point x="246" y="15" type="curve" smooth="yes"/>
      <point x="139" y="15"/>
      <point x="86" y="109"/>
      <point x="86" y="258" type="curve" smooth="yes"/>
      <point x="86" y="429"/>
      <point x="152" y="512"/>
      <point x="264" y="512" type="curve" smooth="yes"/>
      <point x="321" y="512"/>
      <point x="365" y="495"/>
      <point x="396" y="475" type="curve"/>
      <point x="410" y="498" type="line"/>
      <point x="377" y="519"/>
      <point x="330" y="537"/>
      <point x="267" y="537" type="curve" smooth="yes"/>
      <point x="132" y="537"/>
      <point x="59" y="442"/>
      <point x="59" y="258" type="curve" smooth="yes"/>
      <point x="59" y="88"/>
      <point x="123" y="-10"/>
    </contour>
  </outline>
</glyph>
<glyph name="uni0512" format="2">
  <advance width="530"/>
  <unicode hex="0512"/>
  <anchor x="297" y="-240" name="bottom"/>
  <anchor x="302" y="714" name="top"/>
  <outline>
    <contour>
      <point x="399" y="-160" type="curve" smooth="yes"/>
      <point x="446" y="-160"/>
      <point x="469" y="-132"/>
      <point x="469" y="-79" type="curve" smooth="yes"/>
      <point x="469" y="25" type="line"/>
      <point x="414" y="25" type="line"/>
      <point x="414" y="714" type="line"/>
      <point x="187" y="714" type="line"/>
      <point x="176" y="523"/>
      <point x="160" y="334"/>
      <point x="142" y="208" type="curve" smooth="yes"/>
      <point x="120" y="53"/>
      <point x="97" y="19"/>
      <point x="44" y="19" type="curve" smooth="yes"/>
      <point x="32" y="19"/>
      <point x="25" y="21"/>
      <point x="14" y="26" type="curve"/>
      <point x="14" y="2" type="line"/>
      <point x="22" y="-3"/>
      <point x="32" y="-6"/>
      <point x="48" y="-6" type="curve" smooth="yes"/>
      <point x="125" y="-6"/>
      <point x="146" y="63"/>
      <point x="167" y="211" type="curve" smooth="yes"/>
      <point x="183" y="323"/>
      <point x="201" y="516"/>
      <point x="210" y="689" type="curve"/>
      <point x="388" y="689" type="line"/>
      <point x="388" y="0" type="line"/>
      <point x="446" y="0" type="line"/>
      <point x="446" y="-75" type="line" smooth="yes"/>
      <point x="446" y="-119"/>
      <point x="429" y="-138"/>
      <point x="399" y="-138" type="curve" smooth="yes"/>
      <point x="386" y="-138"/>
      <point x="374" y="-135"/>
      <point x="359" y="-129" type="curve"/>
      <point x="359" y="-152" type="line"/>
      <point x="372" y="-157"/>
      <point x="384" y="-160"/>
    </contour>
  </outline>
</glyph>
<glyph name="uni0514" format="2">
  <advance width="500"/>
  <unicode hex="0514"/>
  <anchor x="260" y="0" name="bottom"/>
  <anchor x="260" y="714" name="top"/>
  <outline>
    <contour>
      <point x="180" y="0" type="line"/>
      <point x="207" y="0" type="line"/>
      <point x="343" y="348" type="line"/>
      <point x="473" y="0" type="line"/>
      <point x="500" y="0" type="line"/>
      <point x="359" y="372" type="line"/>
      <point x="495" y="714" type="line"/>
      <point x="466" y="714" type="line"/>
      <point x="343" y="396" type="line"/>
      <point x="224" y="714" type="line"/>
      <point x="197" y="714" type="line"/>
      <point x="327" y="372" type="line"/>
    </contour>
    <contour>
      <point x="34" y="-6" type="curve" smooth="yes"/>
      <point x="101" y="-6"/>
      <point x="119" y="69"/>
      <point x="130" y="200" type="curve" smooth="yes"/>
      <point x="140" y="320"/>
      <point x="148" y="522"/>
      <point x="154" y="689" type="curve"/>
      <point x="214" y="689" type="line"/>
      <point x="211" y="714" type="line"/>
      <point x="130" y="714" type="line"/>
      <point x="124" y="532"/>
      <point x="115" y="319"/>
      <point x="106" y="204" type="curve" smooth="yes"/>
      <point x="94" y="55"/>
      <point x="71" y="19"/>
      <point x="34" y="19" type="curve" smooth="yes"/>
      <point x="22" y="19"/>
      <point x="11" y="21"/>
      <point x="0" y="26" type="curve"/>
      <point x="0" y="2" type="line"/>
      <point x="8" y="-3"/>
      <point x="18" y="-6"/>
    </contour>
  </outline>
</glyph>
<glyph name="uni0516" format="2">
  <advance width="500"/>
  <unicode hex="0516"/>
  <anchor x="195" y="0" name="bottom"/>
  <anchor x="195" y="714" name="top"/>
  <outline>
    <contour>
      <point x="40" y="0" type="line"/>
      <point x="66" y="0" type="line"/>
      <point x="66" y="306" type="line"/>
      <point x="125" y="306" type="line" smooth="yes"/>
      <point x="260" y="306"/>
      <point x="330" y="372"/>
      <point x="330" y="515" type="curve" smooth="yes"/>
      <point x="330" y="663"/>
      <point x="253" y="714"/>
      <point x="118" y="714" type="curve" smooth="yes"/>
      <point x="40" y="714" type="line"/>
    </contour>
    <contour>
      <point x="66" y="331" type="line"/>
      <point x="66" y="689" type="line"/>
      <point x="109" y="689" type="line" smooth="yes"/>
      <point x="242" y="689"/>
      <point x="303" y="645"/>
      <point x="303" y="516" type="curve" smooth="yes"/>
      <point x="303" y="385"/>
      <point x="241" y="331"/>
      <point x="116" y="331" type="curve" smooth="yes"/>
    </contour>
    <contour>
      <point x="467" y="0" type="line"/>
      <point x="500" y="0" type="line"/>
      <point x="295" y="372" type="line"/>
      <point x="486" y="714" type="line"/>
      <point x="454" y="714" type="line"/>
      <point x="268" y="372" type="line"/>
      <point x="263" y="371" type="line"/>
    </contour>
  </outline>
</glyph>
<glyph name="uni0522" format="2">
  <advance width="500"/>
  <unicode hex="0522"/>
  <anchor x="71" y="-242" name="bottom"/>
  <anchor x="76" y="714" name="top"/>
  <outline>
    <contour>
      <point x="379" y="-242" type="curve" smooth="yes"/>
      <point x="557" y="-242"/>
      <point x="619" y="-84"/>
      <point x="619" y="71" type="curve" smooth="yes"/>
      <point x="619" y="237"/>
      <point x="547" y="391"/>
      <point x="364" y="391" type="curve" smooth="yes"/>
      <point x="320" y="391"/>
      <point x="289" y="382"/>
      <point x="266" y="374" type="curve"/>
      <point x="266" y="714" type="line"/>
      <point x="240" y="714" type="line"/>
      <point x="240" y="0" type="line"/>
      <point x="266" y="0" type="line"/>
      <point x="266" y="347" type="line"/>
      <point x="287" y="356"/>
      <point x="322" y="365"/>
      <point x="364" y="365" type="curve" smooth="yes"/>
      <point x="526" y="365"/>
      <point x="592" y="229"/>
      <point x="592" y="71" type="curve" smooth="yes"/>
      <point x="592" y="-70"/>
      <point x="539" y="-216"/>
      <point x="380" y="-216" type="curve" smooth="yes"/>
      <point x="335" y="-216"/>
      <point x="308" y="-204"/>
      <point x="280" y="-189" type="curve"/>
      <point x="280" y="-219" type="line"/>
      <point x="304" y="-232"/>
      <point x="334" y="-242"/>
    </contour>
    <contour>
      <point x="-119" y="0" type="line"/>
      <point x="-93" y="0" type="line"/>
      <point x="-93" y="363" type="line"/>
      <point x="246" y="363" type="line"/>
      <point x="246" y="388" type="line"/>
      <point x="-93" y="388" type="line"/>
      <point x="-93" y="714" type="line"/>
      <point x="-119" y="714" type="line"/>
    </contour>
  </outline>
</glyph>
<glyph name="uni0523" format="2">
  <advance width="500"/>
  <unicode hex="0523"/>
  <anchor x="75" y="-243" name="bottom"/>
  <anchor x="80" y="528" name="top"/>
  <outline>
    <contour>
      <point x="406" y="-243" type="curve" smooth="yes"/>
      <point x="536" y="-243"/>
      <point x="611" y="-150"/>
      <point x="611" y="26" type="curve" smooth="yes"/>
      <point x="611" y="213"/>
      <point x="526" y="312"/>
      <point x="356" y="312" type="curve" smooth="yes"/>
      <point x="325" y="312"/>
      <point x="291" y="309"/>
      <point x="264" y="303" type="curve"/>
      <point x="264" y="528" type="line"/>
      <point x="238" y="528" type="line"/>
      <point x="238" y="288" type="line"/>
      <point x="-85" y="288" type="line"/>
      <point x="-85" y="528" type="line"/>
      <point x="-111" y="528" type="line"/>
      <point x="-111" y="0" type="line"/>
      <point x="-85" y="0" type="line"/>
      <point x="-85" y="263" type="line"/>
      <point x="238" y="263" type="line"/>
      <point x="238" y="0" type="line"/>
      <point x="264" y="0" type="line"/>
      <point x="264" y="277" type="line"/>
      <point x="290" y="283"/>
      <point x="322" y="287"/>
      <point x="356" y="287" type="curve" smooth="yes"/>
      <point x="506" y="287"/>
      <point x="584" y="195"/>
      <point x="584" y="27" type="curve" smooth="yes"/>
      <point x="584" y="-125"/>
      <point x="520" y="-216"/>
      <point x="402" y="-216" type="curve" smooth="yes"/>
      <point x="359" y="-216"/>
      <point x="315" y="-204"/>
      <point x="271" y="-183" type="curve"/>
      <point x="271" y="-212" type="line"/>
      <point x="304" y="-230"/>
      <point x="358" y="-243"/>
    </contour>
  </outline>
</glyph>
<glyph name="uni0524" format="2">
  <advance width="500"/>
  <unicode hex="0524"/>
  <anchor x="247" y="-174" name="bottom"/>
  <anchor x="247" y="714" name="top"/>
  <outline>
    <contour>
      <point x="78" y="0" type="line"/>
      <point x="104" y="0" type="line"/>
      <point x="104" y="689" type="line"/>
      <point x="382" y="689" type="line"/>
      <point x="382" y="0" type="line"/>
      <point x="408" y="0" type="line"/>
      <point x="408" y="714" type="line"/>
      <point x="78" y="714" type="line"/>
    </contour>
    <contour>
      <point x="434" y="-174" type="line"/>
      <point x="460" y="-174" type="line"/>
      <point x="460" y="25" type="line"/>
      <point x="393" y="25" type="line"/>
      <point x="393" y="0" type="line"/>
      <point x="434" y="0" type="line"/>
    </contour>
  </outline>
</glyph>
<glyph name="uni0526" format="2">
  <advance width="500"/>
  <unicode hex="0526"/>
  <anchor x="268" y="-174" name="bottom"/>
  <anchor x="250" y="714" name="top"/>
  <anchor x="20" y="714" name="bottomright"/>
  <outline>
    <contour>
      <point x="464" y="-174" type="line"/>
      <point x="490" y="-174" type="line"/>
      <point x="490" y="25" type="line"/>
      <point x="423" y="25" type="line"/>
      <point x="423" y="0" type="line"/>
      <point x="464" y="0" type="line"/>
    </contour>
    <component base="afii10041" xScale="-1" yScale="-1" xOffset="500" yOffset="714"/>
  </outline>
</glyph>
